<svg width="11" height="11" viewBox="0 0 11 11" fill="none" xmlns="http://www.w3.org/2000/svg">
<g opacity="0.7">
<path d="M5.65479 10.0494C8.22555 10.0494 10.3096 8.02364 10.3096 5.52471C10.3096 3.02578 8.22555 1 5.65479 1C3.08402 1 1 3.02578 1 5.52471C1 8.02364 3.08402 10.0494 5.65479 10.0494Z" stroke="#343846" stroke-linecap="round" stroke-linejoin="round"/>
<path d="M4.30078 4.16673C4.41022 3.86433 4.62622 3.60934 4.91054 3.44691C5.19485 3.28449 5.52913 3.22511 5.85417 3.27931C6.1792 3.3335 6.47401 3.49777 6.68639 3.74301C6.89877 3.98825 7.01501 4.29864 7.01452 4.6192C7.01452 5.52415 5.61809 5.97662 5.61809 5.97662" stroke="#343846" stroke-linecap="round" stroke-linejoin="round"/>
<path d="M5.65625 7.78711H5.66078" stroke="#343846" stroke-linecap="round" stroke-linejoin="round"/>
</g>
</svg>
