<svg width="13" height="18" viewBox="0 0 13 18" fill="none" xmlns="http://www.w3.org/2000/svg">
<path d="M10.3278 17.1401H2.67523C1.73895 17.1401 0.982451 16.3825 0.982451 15.4473V3.57227H12.0195V15.4473C12.0195 16.3825 11.2616 17.1401 10.3278 17.1401ZM3.85627 5.723C3.85627 5.4061 3.60038 5.14773 3.28206 5.14773C2.96516 5.14773 2.70785 5.40614 2.70785 5.723V14.9198C2.70785 15.2381 2.96516 15.4954 3.28206 15.4954C3.60038 15.4954 3.85627 15.2381 3.85627 14.9198V5.723ZM7.05741 5.723C7.05741 5.4061 6.80116 5.14773 6.4832 5.14773C6.1663 5.14773 5.90899 5.40614 5.90899 5.723V14.9198C5.90899 15.2381 6.1663 15.4954 6.4832 15.4954C6.80116 15.4954 7.05741 15.2381 7.05741 14.9198V5.723ZM10.2567 5.723C10.2567 5.4061 10.0008 5.14773 9.68398 5.14773C9.36713 5.14773 9.10837 5.40614 9.10837 5.723V14.9198C9.10837 15.2381 9.36713 15.4954 9.68398 15.4954C10.0009 15.4954 10.2567 15.2381 10.2567 14.9198V5.723Z" fill="#343846" fill-opacity="0.6"/>
<path d="M2.07097 0.902898H4.40113C4.45711 0.395843 4.88271 0 5.40345 0H7.59688C8.12049 0 8.54503 0.395843 8.60065 0.902898H10.9293C12.0712 0.902898 12.9936 1.82805 13 2.96714H-0.000471115C0.00385571 1.82809 0.927591 0.902898 2.07097 0.902898Z" fill="#343846" fill-opacity="0.6"/>
</svg>
