<svg width="30" height="30" viewBox="0 0 30 30" fill="none" xmlns="http://www.w3.org/2000/svg">
<path d="M5.39863 10.9062C4.96598 10.9062 4.71484 11.1156 4.71484 11.5762V13.558C4.71484 14.0186 4.96604 14.2279 5.39863 14.2279C5.83135 14.2279 6.09654 14.0186 6.09654 13.558V11.5762C6.09654 11.1156 5.83135 10.9062 5.39863 10.9062Z" fill="#F9003B"/>
<path d="M11.8088 15.4004C11.3762 15.4004 11.125 15.6097 11.125 16.0703V18.0522C11.125 18.5127 11.3763 18.7221 11.8088 18.7221C12.2414 18.7221 12.5067 18.5127 12.5067 18.0522V16.0703C12.5066 15.6098 12.2415 15.4004 11.8088 15.4004Z" fill="#F9003B"/>
<path d="M29.0976 5.55469H19.7502L19.707 5.59781L20.4753 6.36609C21.0915 6.98232 21.0915 7.98504 20.4753 8.60127L19.707 9.36955L20.4753 10.1378C21.0915 10.7541 21.0915 11.7568 20.4753 12.373L19.707 13.1413L20.4753 13.9096C21.0915 14.5258 21.0915 15.5285 20.4753 16.1447L19.707 16.913L20.4753 17.6813C21.0915 18.2975 21.0915 19.3003 20.4753 19.9165L19.707 20.6848L20.4753 21.453C20.7739 21.7515 20.9383 22.1484 20.9383 22.5706C20.9383 22.9928 20.7738 23.3897 20.4753 23.6882L19.7183 24.4453H29.0976C29.5957 24.4453 29.9995 24.0414 29.9995 23.5433V6.45668C29.9995 5.95852 29.5957 5.55469 29.0976 5.55469Z" fill="#F9003B"/>
<path d="M18.8265 11.2554L18.0582 10.4871C17.7596 10.1886 17.5953 9.79172 17.5953 9.36955C17.5953 8.94732 17.7597 8.55041 18.0582 8.25193L18.8265 7.48365L18.0582 6.71537C17.7392 6.39633 17.5868 5.97369 17.5981 5.55469H0.901934C0.403828 5.55457 0 5.9584 0 6.45656V23.5431C0 24.0413 0.403828 24.4451 0.901934 24.4451H17.5956C17.5985 24.0272 17.7623 23.6346 18.0582 23.3388L18.8265 22.5705L18.0582 21.8022C17.442 21.186 17.442 20.1833 18.0582 19.567L18.8265 18.7987L18.0582 18.0305C17.442 17.4142 17.442 16.4115 18.0582 15.7953L18.8265 15.027L18.0582 14.2587C17.442 13.6425 17.442 12.6398 18.0582 12.0236L18.8265 11.2554ZM3.3068 13.5575V11.5756C3.3068 10.1939 4.21406 9.69141 5.40035 9.69141C6.57275 9.69141 7.49397 10.1939 7.49397 11.5756V13.5575C7.49397 14.9392 6.57275 15.4417 5.40035 15.4417C4.214 15.4416 3.3068 14.9392 3.3068 13.5575ZM6.22377 20.5359C5.74922 20.5359 5.44219 20.1451 5.44219 19.7962C5.44219 19.7125 5.47008 19.6148 5.51197 19.531L10.4108 9.46816C10.5224 9.23092 10.7457 9.11924 10.9969 9.11924C11.3877 9.11924 11.8204 9.41232 11.8204 9.85893C11.8204 9.94266 11.8064 10.0403 11.7646 10.1241L6.85172 20.187C6.7541 20.3963 6.48891 20.5359 6.22377 20.5359ZM13.9 18.0516C13.9 19.4333 12.9788 19.9358 11.8064 19.9358C10.6201 19.9358 9.71285 19.4333 9.71285 18.0516V16.0697C9.71285 14.6879 10.62 14.1855 11.8064 14.1855C12.9788 14.1855 13.9 14.6879 13.9 16.0697V18.0516Z" fill="#F9003B"/>
</svg>
