<svg width="23" height="21" viewBox="0 0 23 21" fill="none" xmlns="http://www.w3.org/2000/svg">
<path d="M10 2.98242H3C2.46957 2.98242 1.96086 3.17942 1.58579 3.53009C1.21071 3.88076 1 4.35637 1 4.85228V17.9413C1 18.4372 1.21071 18.9129 1.58579 19.2635C1.96086 19.6142 2.46957 19.8112 3 19.8112H17C17.5304 19.8112 18.0391 19.6142 18.4142 19.2635C18.7893 18.9129 19 18.4372 19 17.9413V11.3968" stroke="#343846" stroke-width="2" stroke-linecap="round" stroke-linejoin="round"/>
<path d="M17.5 1.58089C17.8978 1.20895 18.4374 1 19 1C19.5626 1 20.1022 1.20895 20.5 1.58089C20.8978 1.95283 21.1213 2.45729 21.1213 2.98329C21.1213 3.50929 20.8978 4.01375 20.5 4.38569L11 13.2676L7 14.2025L8 10.4628L17.5 1.58089Z" stroke="#343846" stroke-width="2" stroke-linecap="round" stroke-linejoin="round"/>
</svg>
