<svg width="30" height="30" viewBox="0 0 30 30" fill="none" xmlns="http://www.w3.org/2000/svg">
<g clip-path="url(#clip0_1348_13997)">
<path d="M22.6576 27.9075C29.7829 23.6784 32.1308 14.4739 27.9018 7.3486C23.6728 0.223278 14.4683 -2.12464 7.34294 2.10439C0.217622 6.33342 -2.13029 15.5379 2.09873 22.6633C6.32776 29.7886 15.5323 32.1365 22.6576 27.9075Z" fill="url(#paint0_linear_1348_13997)"/>
<path d="M12.9061 22.6139C12.6275 22.6168 12.3517 22.5578 12.0987 22.4411C11.8458 22.3243 11.622 22.1528 11.4435 21.9388L6.52128 15.751C6.35693 15.5603 6.23282 15.3383 6.15643 15.0984C6.08003 14.8585 6.05292 14.6057 6.07673 14.3551C6.10054 14.1044 6.17477 13.8612 6.29497 13.64C6.41516 13.4188 6.57884 13.2242 6.77616 13.0678C6.97349 12.9115 7.20038 12.7967 7.44321 12.7302C7.68605 12.6638 7.9398 12.6472 8.18923 12.6813C8.43865 12.7155 8.6786 12.7997 8.89466 12.9289C9.11071 13.0581 9.29841 13.2297 9.44647 13.4333L14.3686 19.6212C14.6679 20.006 14.8038 20.4931 14.747 20.9773C14.6901 21.4614 14.4451 21.9038 14.0649 22.2089C13.7368 22.4734 13.3275 22.6165 12.9061 22.6139Z" fill="white"/>
<path d="M12.9037 22.6127C12.4824 22.6144 12.0734 22.4714 11.7449 22.2077C11.359 21.9002 11.1104 21.4525 11.0535 20.9624C10.9966 20.4723 11.1359 19.9796 11.4411 19.5919L20.5542 8.09366C20.8688 7.72857 21.3124 7.49927 21.7922 7.45369C22.272 7.40811 22.7509 7.54979 23.1287 7.84909C23.5064 8.1484 23.7539 8.58217 23.8192 9.05968C23.8846 9.5372 23.7628 10.0215 23.4793 10.4113L14.3663 21.9376C14.1886 22.1525 13.9649 22.3247 13.7117 22.4415C13.4586 22.5584 13.1825 22.6168 12.9037 22.6127Z" fill="white"/>
</g>
<defs>
<linearGradient id="paint0_linear_1348_13997" x1="-0.00226462" y1="15.0037" x2="29.9977" y2="15.0037" gradientUnits="userSpaceOnUse">
<stop stop-color="#E32068"/>
<stop offset="1" stop-color="#F5003B"/>
</linearGradient>
<clipPath id="clip0_1348_13997">
<rect width="30" height="30" fill="white"/>
</clipPath>
</defs>
</svg>
