<svg width="80" height="80" viewBox="0 0 80 80" fill="none" xmlns="http://www.w3.org/2000/svg">
<path d="M70.6191 48.6414C75.583 31.6752 65.8105 13.9099 48.7915 8.96143C31.7725 4.01296 13.9518 13.7552 8.98789 30.7214C4.02401 47.6876 13.7967 65.453 30.8157 70.4014C47.8347 75.3499 65.6553 65.6076 70.6191 48.6414Z" fill="url(#paint0_linear_1950_16337)"/>
<path d="M41.5 28V32.005L40 33.505L38.5 32.005V28H41.5ZM52 38.5V41.5H47.995L46.495 40L47.995 38.5H52ZM32.005 38.5L33.505 40L32.005 41.5H28V38.5H32.005ZM40 46.495L41.5 47.995V52H38.5V47.995L40 46.495ZM44.5 25H35.5V33.25L40 37.75L44.5 33.25V25ZM55 35.5H46.75L42.25 40L46.75 44.5H55V35.5ZM33.25 35.5H25V44.5H33.25L37.75 40L33.25 35.5ZM40 42.25L35.5 46.75V55H44.5V46.75L40 42.25Z" fill="white"/>
<defs>
<linearGradient id="paint0_linear_1950_16337" x1="0" y1="61.4414" x2="79.4924" y2="17.7131" gradientUnits="userSpaceOnUse">
<stop stop-color="#E32068"/>
<stop offset="1" stop-color="#F5003B"/>
</linearGradient>
</defs>
</svg>
