<svg width="80" height="80" viewBox="0 0 80 80" fill="none" xmlns="http://www.w3.org/2000/svg">
<path d="M70.6191 48.6414C75.583 31.6752 65.8105 13.9099 48.7915 8.96143C31.7725 4.01296 13.9518 13.7552 8.98789 30.7214C4.02402 47.6876 13.7967 65.453 30.8157 70.4014C47.8347 75.3499 65.6553 65.6076 70.6191 48.6414Z" fill="url(#paint0_linear_1950_16341)"/>
<path d="M30.25 33.25H50.5V31H30.25C29.0125 31 28 32.0125 28 33.25V46.75C28 47.9875 29.0125 49 30.25 49H34.75V46.75H30.25V33.25ZM41.5 40H37V42.0025C36.3138 42.6213 35.875 43.4987 35.875 44.5C35.875 45.5013 36.3138 46.3787 37 46.9975V49H41.5V46.9975C42.1862 46.3787 42.625 45.49 42.625 44.5C42.625 43.51 42.1862 42.6213 41.5 42.0025V40ZM39.25 46.1875C38.3162 46.1875 37.5625 45.4338 37.5625 44.5C37.5625 43.5662 38.3162 42.8125 39.25 42.8125C40.1838 42.8125 40.9375 43.5662 40.9375 44.5C40.9375 45.4338 40.1838 46.1875 39.25 46.1875ZM51.625 35.5H44.875C44.3125 35.5 43.75 36.0625 43.75 36.625V47.875C43.75 48.4375 44.3125 49 44.875 49H51.625C52.1875 49 52.75 48.4375 52.75 47.875V36.625C52.75 36.0625 52.1875 35.5 51.625 35.5ZM50.5 46.75H46V37.75H50.5V46.75Z" fill="white"/>
<defs>
<linearGradient id="paint0_linear_1950_16341" x1="0" y1="61.4414" x2="79.4924" y2="17.7131" gradientUnits="userSpaceOnUse">
<stop stop-color="#E32068"/>
<stop offset="1" stop-color="#F5003B"/>
</linearGradient>
</defs>
</svg>
