<svg width="38" height="36" viewBox="0 0 38 36" fill="none" xmlns="http://www.w3.org/2000/svg">
<path opacity="0.47" d="M26.1679 11.1408L37.0583 12.7568C37.2619 12.7855 37.4535 12.8711 37.6108 13.0042C37.7681 13.1373 37.8849 13.3123 37.9478 13.5091C38.0107 13.7059 38.017 13.9166 37.9663 14.117C37.9156 14.3173 37.8097 14.4993 37.6609 14.6419L29.7611 22.3616C29.6358 22.4854 29.5417 22.6377 29.4873 22.8057C29.4329 22.9737 29.4198 23.1525 29.4486 23.3268L31.3008 34.2334C31.3399 34.4389 31.3199 34.6514 31.243 34.8459C31.1662 35.0404 31.0358 35.2091 30.8671 35.3316C30.6984 35.4542 30.4982 35.5257 30.2904 35.5379C30.0826 35.5501 29.8758 35.5023 29.6941 35.4004L19.9641 30.2387C19.804 30.1611 19.6286 30.1209 19.4509 30.1209C19.2732 30.1209 19.0975 30.1611 18.9374 30.2387L9.20747 35.3779C9.02485 35.4707 8.82055 35.5111 8.61659 35.4949C8.41263 35.4787 8.21692 35.4066 8.05106 35.2861C7.88519 35.1657 7.75536 35.0015 7.67594 34.8119C7.59652 34.6223 7.57058 34.4144 7.60075 34.2109L9.47525 23.3043C9.51022 23.13 9.50002 22.9496 9.44529 22.7805C9.39055 22.6114 9.2931 22.4594 9.16279 22.3392L1.2853 14.5969C1.13597 14.4529 1.03036 14.2691 0.980735 14.0671C0.931107 13.8651 0.93927 13.6531 1.00471 13.4557C1.07015 13.2583 1.19017 13.0836 1.35041 12.9519C1.51064 12.8202 1.70454 12.7371 1.90995 12.7119L12.8004 11.1408C12.9749 11.1099 13.1402 11.0393 13.2834 10.9343C13.4265 10.8292 13.5436 10.6928 13.6261 10.5351L18.5135 0.61583C18.6035 0.431116 18.7431 0.2754 18.9167 0.166559C19.0903 0.0577184 19.2908 0 19.4953 0C19.6999 0 19.9003 0.0577184 20.0739 0.166559C20.2475 0.2754 20.3874 0.431116 20.4774 0.61583L25.3422 10.5351C25.417 10.6986 25.5322 10.84 25.6767 10.946C25.8213 11.0521 25.9903 11.119 26.1679 11.1408Z" fill="url(#paint0_linear_1479_18491)"/>
<defs>
<linearGradient id="paint0_linear_1479_18491" x1="54458" y1="51089.5" x2="55073.1" y2="51089.5" gradientUnits="userSpaceOnUse">
<stop stop-color="#E32068"/>
<stop offset="1" stop-color="#F5003B"/>
</linearGradient>
</defs>
</svg>
