<svg width="36" height="32" viewBox="0 0 36 32" fill="none" xmlns="http://www.w3.org/2000/svg">
<g filter="url(#filter0_d_1259_5037)">
<rect x="-1101" y="-32" width="1285" height="100" rx="10" fill="white"/>
</g>
<path d="M33.4375 11.875L34.7828 10.3951L34.764 10.378L34.7447 10.3614L33.4375 11.875ZM22.4375 2.375L21.1276 3.88638L21.1303 3.88865L22.4375 2.375ZM20 8.5625L20.0124 10.5625L22 10.5501V8.5625H20ZM7.1875 29.8125L8.40692 28.2273L8.3856 28.2109L8.36384 28.195L7.1875 29.8125ZM8.9375 28.625L7.02737 29.2178L7.02854 29.2215L8.9375 28.625ZM20 17.0625H22V15.0367L19.9744 15.0627L20 17.0625ZM22.4375 23.6875L21.1303 22.1739L21.1276 22.1761L22.4375 23.6875ZM33.4375 14.1875L34.7447 15.7011L34.764 15.6845L34.7828 15.6674L33.4375 14.1875ZM34.7447 10.3614L23.7447 0.861354L21.1303 3.88865L32.1303 13.3886L34.7447 10.3614ZM23.7474 0.863622C21.4371 -1.13863 18 0.639669 18 3.5625H22C22 3.6269 21.9783 3.71923 21.9205 3.8072C21.8677 3.88765 21.7988 3.94343 21.7271 3.9776C21.656 4.01143 21.561 4.03397 21.4473 4.02174C21.3237 4.00845 21.2085 3.95642 21.1276 3.88638L23.7474 0.863622ZM18 3.5625V8.5625H22V3.5625H18ZM19.9876 6.56254C14.9086 6.59409 9.98945 7.11654 6.29314 9.06712C4.40085 10.0657 2.79401 11.4559 1.67419 13.357C0.557177 15.2534 0 17.5302 0 20.1875H4C4 18.0948 4.43501 16.5513 5.12074 15.3871C5.80364 14.2277 6.81009 13.3171 8.15999 12.6048C10.948 11.1335 15.0289 10.5934 20.0124 10.5625L19.9876 6.56254ZM0 20.1875C0 24.7689 2.85771 29.1366 6.01116 31.43L8.36384 28.195C6.01729 26.4884 4 23.2311 4 20.1875H0ZM5.96808 31.3977C7.1816 32.3312 8.65013 32.1213 9.59378 31.4922C10.554 30.8521 11.3188 29.5399 10.8465 28.0285L7.02854 29.2215C6.96268 29.0108 6.97447 28.7668 7.06297 28.5536C7.14325 28.3602 7.2661 28.2366 7.37497 28.164C7.56862 28.0349 8.0059 27.9188 8.40692 28.2273L5.96808 31.3977ZM10.8476 28.0322C9.49315 23.6678 10.1191 21.8752 11.1101 20.9657C11.7033 20.4214 12.6685 19.9403 14.1976 19.5996C15.7189 19.2607 17.6496 19.0928 20.0256 19.0623L19.9744 15.0627C17.4754 15.0947 15.2342 15.2706 13.3278 15.6953C11.4292 16.1183 9.71079 16.8208 8.40554 18.0186C5.59969 20.5935 5.56935 24.5197 7.02737 29.2178L10.8476 28.0322ZM18 17.0625V22.5H22V17.0625H18ZM18 22.5C18 25.4228 21.4371 27.2011 23.7474 25.1989L21.1276 22.1761C21.2085 22.1061 21.3237 22.0541 21.4473 22.0408C21.561 22.0285 21.656 22.0511 21.7271 22.0849C21.7988 22.1191 21.8677 22.1748 21.9205 22.2553C21.9783 22.3433 22 22.4356 22 22.5H18ZM23.7447 25.2011L34.7447 15.7011L32.1303 12.6739L21.1303 22.1739L23.7447 25.2011ZM34.7828 15.6674C36.3432 14.2489 36.3432 11.8136 34.7828 10.3951L32.0922 13.3549C31.9068 13.1864 31.9068 12.8761 32.0922 12.7076L34.7828 15.6674Z" fill="black"/>
<defs>
<filter id="filter0_d_1259_5037" x="-1116" y="-43" width="1315" height="130" filterUnits="userSpaceOnUse" color-interpolation-filters="sRGB">
<feFlood flood-opacity="0" result="BackgroundImageFix"/>
<feColorMatrix in="SourceAlpha" type="matrix" values="0 0 0 0 0 0 0 0 0 0 0 0 0 0 0 0 0 0 127 0" result="hardAlpha"/>
<feOffset dy="4"/>
<feGaussianBlur stdDeviation="7.5"/>
<feComposite in2="hardAlpha" operator="out"/>
<feColorMatrix type="matrix" values="0 0 0 0 0.203922 0 0 0 0 0.219608 0 0 0 0 0.27451 0 0 0 0.2 0"/>
<feBlend mode="normal" in2="BackgroundImageFix" result="effect1_dropShadow_1259_5037"/>
<feBlend mode="normal" in="SourceGraphic" in2="effect1_dropShadow_1259_5037" result="shape"/>
</filter>
</defs>
</svg>
