<svg width="32" height="37" viewBox="0 0 32 37" fill="none" xmlns="http://www.w3.org/2000/svg">
<path d="M18.7734 34.8828C19.3359 32.8438 20.25 27.8516 20.25 25.5312C20.25 23.0703 18 22.4375 15.75 22.4375C13.4297 22.4375 11.25 23.0703 11.25 25.5312C11.25 27.8516 12.0938 32.9141 12.6562 34.8828C13.0078 36.2188 14.4141 36.5 15.75 36.5C17.0156 36.5 18.4219 36.2188 18.7734 34.8828ZM10.9688 20.8203C9.70312 19.5547 8.85938 17.7266 9 15.6875C9.14062 12.2422 11.9531 9.35938 15.4688 9.28906C19.2656 9.07812 22.5 12.1719 22.5 15.9688C22.5 17.8672 21.6562 19.625 20.4609 20.8203C20.25 21.0312 20.25 21.3125 20.4609 21.4531C21.1641 21.9453 21.6562 22.5781 21.9375 23.2812C22.0781 23.4922 22.4297 23.5625 22.6406 23.3516C24.6797 21.4531 25.875 18.7812 25.8047 15.7578C25.7344 10.4141 21.375 6.05469 16.0312 5.91406C10.2656 5.70312 5.625 10.3438 5.625 15.9688C5.625 18.9219 6.82031 21.5234 8.78906 23.3516C9 23.5625 9.35156 23.4922 9.49219 23.2812C9.77344 22.5781 10.2656 21.9453 10.9688 21.4531C11.1797 21.3125 11.1797 21.0312 10.9688 20.8203ZM15.75 0.5C7.03125 0.5 0 7.60156 0 16.25C0 22.5781 3.65625 27.9219 8.78906 30.4531C9.14062 30.5938 9.49219 30.3125 9.42188 30.0312C9.21094 28.9062 9.07031 27.8516 9 26.8672C9 26.7266 8.92969 26.6562 8.85938 26.5859C5.48438 24.3359 3.30469 20.5391 3.375 16.1797C3.375 9.42969 8.92969 3.94531 15.6797 3.94531C22.5 3.875 28.125 9.42969 28.125 16.25C28.125 20.6094 25.8047 24.4766 22.4297 26.6562C22.3594 27.6406 22.2188 28.8359 22.0078 30.0312C21.9375 30.3125 22.2891 30.5938 22.6406 30.4531C27.7734 27.9219 31.5 22.6484 31.5 16.25C31.5 7.60156 24.3984 0.5 15.75 0.5ZM15.75 11.75C13.2188 11.75 11.25 13.7891 11.25 16.25C11.25 18.7812 13.2188 20.75 15.75 20.75C18.2109 20.75 20.25 18.7812 20.25 16.25C20.25 13.7891 18.2109 11.75 15.75 11.75Z" fill="url(#paint0_linear_1259_5279)"/>
<defs>
<linearGradient id="paint0_linear_1259_5279" x1="0" y1="2" x2="32" y2="34" gradientUnits="userSpaceOnUse">
<stop stop-color="#E32068"/>
<stop offset="1" stop-color="#F5003B"/>
</linearGradient>
</defs>
</svg>
