<svg width="24" height="22" viewBox="0 0 24 22" fill="none" xmlns="http://www.w3.org/2000/svg">
<path d="M20.8421 4.63158H18.3179C18.4453 4.27263 18.5263 3.87895 18.5263 3.47368C18.5263 1.55158 16.9747 0 15.0526 0C13.8368 0 12.7832 0.625263 12.1579 1.56316L11.5789 2.33895L11 1.55158C10.3747 0.625263 9.32105 0 8.10526 0C6.18316 0 4.63158 1.55158 4.63158 3.47368C4.63158 3.87895 4.71263 4.27263 4.84 4.63158H2.31579C1.03053 4.63158 0.0115789 5.66211 0.0115789 6.94737L0 19.6842C0 20.9695 1.03053 22 2.31579 22H20.8421C22.1274 22 23.1579 20.9695 23.1579 19.6842V6.94737C23.1579 5.66211 22.1274 4.63158 20.8421 4.63158ZM15.0526 2.31579C15.6895 2.31579 16.2105 2.83684 16.2105 3.47368C16.2105 4.11053 15.6895 4.63158 15.0526 4.63158C14.4158 4.63158 13.8947 4.11053 13.8947 3.47368C13.8947 2.83684 14.4158 2.31579 15.0526 2.31579ZM8.10526 2.31579C8.7421 2.31579 9.26316 2.83684 9.26316 3.47368C9.26316 4.11053 8.7421 4.63158 8.10526 4.63158C7.46842 4.63158 6.94737 4.11053 6.94737 3.47368C6.94737 2.83684 7.46842 2.31579 8.10526 2.31579ZM20.8421 19.6842H2.31579V17.3684H20.8421V19.6842ZM20.8421 13.8947H2.31579V6.94737H8.1979L5.78947 10.2242L7.66526 11.5789L11.5789 6.25263L15.4926 11.5789L17.3684 10.2242L14.96 6.94737H20.8421V13.8947Z" fill="url(#paint0_linear_1882_17932)"/>
<defs>
<linearGradient id="paint0_linear_1882_17932" x1="0" y1="0" x2="21.9711" y2="23.1275" gradientUnits="userSpaceOnUse">
<stop stop-color="#E32068"/>
<stop offset="1" stop-color="#F5003B"/>
</linearGradient>
</defs>
</svg>
