<svg width="19" height="22" viewBox="0 0 19 22" fill="none" xmlns="http://www.w3.org/2000/svg">
<path d="M3.47368 5.78947C3.47368 2.59204 6.06572 0 9.26316 0C12.4606 0 15.0526 2.59204 15.0526 5.78947C15.0526 8.98691 12.4606 11.5789 9.26316 11.5789C6.06572 11.5789 3.47368 8.98691 3.47368 5.78947ZM9.26316 9.26316C11.1816 9.26316 12.7368 7.70794 12.7368 5.78947C12.7368 3.87101 11.1816 2.31579 9.26316 2.31579C7.3447 2.31579 5.78947 3.87101 5.78947 5.78947C5.78947 7.70794 7.3447 9.26316 9.26316 9.26316Z" fill="url(#paint0_linear_1882_17929)"/>
<path d="M2.71312 15.45C1.09411 17.069 0.1363 19.2256 0.0134809 21.5002C-0.00140786 21.7759 0.223858 22 0.5 22H1.81579C2.09193 22 2.31391 21.7758 2.33376 21.5004C2.45337 19.8405 3.16601 18.2721 4.35063 17.0875C5.65351 15.7846 7.4206 15.0526 9.26316 15.0526C11.1057 15.0526 12.8728 15.7846 14.1757 17.0875C15.3603 18.2721 16.0729 19.8405 16.1926 21.5004C16.2124 21.7758 16.4344 22 16.7105 22H18.0263C18.3025 22 18.5277 21.7759 18.5128 21.5002C18.39 19.2256 17.4322 17.069 15.8132 15.45C14.076 13.7128 11.7199 12.7368 9.26316 12.7368C6.80642 12.7368 4.45029 13.7128 2.71312 15.45Z" fill="url(#paint1_linear_1882_17929)"/>
<defs>
<linearGradient id="paint0_linear_1882_17929" x1="0" y1="0" x2="21.6791" y2="18.2561" gradientUnits="userSpaceOnUse">
<stop stop-color="#E32068"/>
<stop offset="1" stop-color="#F5003B"/>
</linearGradient>
<linearGradient id="paint1_linear_1882_17929" x1="0" y1="0" x2="21.6791" y2="18.2561" gradientUnits="userSpaceOnUse">
<stop stop-color="#E32068"/>
<stop offset="1" stop-color="#F5003B"/>
</linearGradient>
</defs>
</svg>
