<svg width="38" height="36" viewBox="0 0 38 36" fill="none" xmlns="http://www.w3.org/2000/svg">
<path d="M25.2193 11.1408L36.1098 12.7568C36.3133 12.7855 36.5047 12.8711 36.6619 13.0042C36.8192 13.1373 36.936 13.3123 36.9989 13.5091C37.0618 13.7059 37.0682 13.9166 37.0175 14.117C36.9667 14.3173 36.8609 14.4993 36.7121 14.6419L28.8122 22.3616C28.6869 22.4854 28.5931 22.6377 28.5387 22.8057C28.4844 22.9737 28.4709 23.1525 28.4998 23.3268L30.3519 34.2334C30.3911 34.4389 30.371 34.6514 30.2942 34.8459C30.2174 35.0404 30.087 35.2091 29.9183 35.3316C29.7495 35.4542 29.5496 35.5257 29.3418 35.5379C29.134 35.5501 28.927 35.5023 28.7452 35.4004L19.0153 30.2387C18.8552 30.1611 18.6798 30.1209 18.5021 30.1209C18.3243 30.1209 18.1489 30.1611 17.9888 30.2387L8.25863 35.3779C8.07601 35.4707 7.87171 35.5111 7.66775 35.4949C7.4638 35.4787 7.26808 35.4066 7.10222 35.2861C6.93636 35.1657 6.80679 35.0015 6.72737 34.8119C6.64795 34.6223 6.62174 34.4144 6.65191 34.2109L8.52641 23.3043C8.56138 23.13 8.55119 22.9496 8.49645 22.7805C8.44171 22.6114 8.34453 22.4594 8.21422 22.3392L0.33646 14.5969C0.187135 14.4529 0.0815255 14.2691 0.0318969 14.0671C-0.0177316 13.8651 -0.00929521 13.6531 0.0561421 13.4557C0.121579 13.2583 0.24133 13.0836 0.401567 12.9519C0.561805 12.8202 0.755971 12.7371 0.961385 12.7119L11.8518 11.1408C12.0263 11.1099 12.1914 11.0393 12.3345 10.9343C12.4777 10.8292 12.595 10.6928 12.6775 10.5351L17.5647 0.61583C17.6547 0.431116 17.7945 0.2754 17.9681 0.166559C18.1417 0.0577184 18.3422 0 18.5467 0C18.7513 0 18.9515 0.0577184 19.1251 0.166559C19.2987 0.2754 19.4385 0.431116 19.5285 0.61583L24.3936 10.5351C24.4684 10.6986 24.5834 10.84 24.7279 10.946C24.8724 11.0521 25.0417 11.119 25.2193 11.1408Z" fill="url(#paint0_linear_1479_18487)"/>
<defs>
<linearGradient id="paint0_linear_1479_18487" x1="51556.9" y1="51089.5" x2="52171.9" y2="51089.5" gradientUnits="userSpaceOnUse">
<stop stop-color="#E32068"/>
<stop offset="1" stop-color="#F5003B"/>
</linearGradient>
</defs>
</svg>
