<svg width="13" height="11" viewBox="0 0 13 11" fill="none" xmlns="http://www.w3.org/2000/svg">
<path opacity="0.47" d="M8.84849 3.44823L12.6695 3.9484C12.741 3.95728 12.8082 3.98377 12.8634 4.02496C12.9186 4.06616 12.9596 4.12032 12.9816 4.18123C13.0037 4.24214 13.0059 4.30738 12.9881 4.36938C12.9703 4.43138 12.9332 4.4877 12.881 4.53184L10.1092 6.92121C10.0652 6.95952 10.0322 7.00666 10.0132 7.05865C9.99407 7.11064 9.98946 7.16599 9.99958 7.21992L10.6494 10.5957C10.6632 10.6593 10.6561 10.725 10.6292 10.7852C10.6022 10.8455 10.5565 10.8976 10.4973 10.9356C10.4381 10.9735 10.3678 10.9956 10.2949 10.9994C10.222 11.0032 10.1495 10.9884 10.0857 10.9569L6.67182 9.35925C6.61564 9.33525 6.5541 9.32279 6.49174 9.32279C6.42939 9.32279 6.36775 9.33525 6.31157 9.35925L2.89769 10.9499C2.83362 10.9786 2.76194 10.9911 2.69038 10.9861C2.61881 10.9811 2.55014 10.9588 2.49195 10.9215C2.43375 10.8842 2.3882 10.8334 2.36033 10.7747C2.33247 10.716 2.32337 10.6517 2.33395 10.5887L2.99165 7.21297C3.00392 7.15903 3.00034 7.10318 2.98113 7.05085C2.96193 6.99853 2.92774 6.95145 2.88202 6.91426L0.118089 4.51793C0.0656966 4.47334 0.0286421 4.41648 0.0112293 4.35395C-0.0061836 4.29142 -0.00331917 4.2258 0.0196404 4.1647C0.0426 4.1036 0.0847116 4.04952 0.140933 4.00877C0.197155 3.96802 0.265185 3.94228 0.337257 3.93449L4.15831 3.44823C4.21954 3.43866 4.27756 3.4168 4.32778 3.38429C4.378 3.35179 4.41908 3.30956 4.44802 3.26076L6.16285 0.190607C6.19443 0.133436 6.24341 0.0852396 6.30431 0.0515521C6.36521 0.0178646 6.43555 0 6.50732 0C6.57909 0 6.64944 0.0178646 6.71034 0.0515521C6.77124 0.0852396 6.82031 0.133436 6.85189 0.190607L8.55879 3.26076C8.58504 3.31134 8.62545 3.35511 8.67616 3.38794C8.72687 3.42077 8.78618 3.44148 8.84849 3.44823Z" fill="url(#paint0_linear_1348_18323)"/>
<defs>
<linearGradient id="paint0_linear_1348_18323" x1="19107" y1="15812.8" x2="19322.8" y2="15812.8" gradientUnits="userSpaceOnUse">
<stop stop-color="#E32068"/>
<stop offset="1" stop-color="#F5003B"/>
</linearGradient>
</defs>
</svg>
