<svg width="25" height="20" viewBox="0 0 25 20" fill="none" xmlns="http://www.w3.org/2000/svg">
<path d="M22.6875 0.125H2.0625C0.902344 0.125 0 1.07031 0 2.1875V17.3125C0 18.4727 0.902344 19.375 2.0625 19.375H22.6875C23.8047 19.375 24.75 18.4727 24.75 17.3125V2.1875C24.75 1.07031 23.8047 0.125 22.6875 0.125ZM22.6875 17.3125H2.0625V2.1875H22.6875V17.3125ZM8.9375 9.75C10.4414 9.75 11.6875 8.54688 11.6875 7C11.6875 5.49609 10.4414 4.25 8.9375 4.25C7.39062 4.25 6.1875 5.49609 6.1875 7C6.1875 8.54688 7.39062 9.75 8.9375 9.75ZM5.07031 15.25H12.7617C13.3203 15.25 13.75 14.9062 13.75 14.4336V13.6172C13.75 12.2422 12.418 11.125 10.8281 11.125C10.3984 11.125 10.0547 11.4688 8.9375 11.4688C7.77734 11.4688 7.47656 11.125 7.00391 11.125C5.41406 11.125 4.125 12.2422 4.125 13.6172V14.4336C4.125 14.9062 4.55469 15.25 5.07031 15.25ZM15.4688 12.5H20.2812C20.4531 12.5 20.625 12.3711 20.625 12.1562V11.4688C20.625 11.2969 20.4531 11.125 20.2812 11.125H15.4688C15.2539 11.125 15.125 11.2969 15.125 11.4688V12.1562C15.125 12.3711 15.2539 12.5 15.4688 12.5ZM15.4688 9.75H20.2812C20.4531 9.75 20.625 9.62109 20.625 9.40625V8.71875C20.625 8.54688 20.4531 8.375 20.2812 8.375H15.4688C15.2539 8.375 15.125 8.54688 15.125 8.71875V9.40625C15.125 9.62109 15.2539 9.75 15.4688 9.75ZM15.4688 7H20.2812C20.4531 7 20.625 6.87109 20.625 6.65625V5.96875C20.625 5.79688 20.4531 5.625 20.2812 5.625H15.4688C15.2539 5.625 15.125 5.79688 15.125 5.96875V6.65625C15.125 6.87109 15.2539 7 15.4688 7Z" fill="url(#paint0_linear_1557_17609)"/>
<defs>
<linearGradient id="paint0_linear_1557_17609" x1="0" y1="2" x2="14.7692" y2="24.1538" gradientUnits="userSpaceOnUse">
<stop stop-color="#E32068"/>
<stop offset="1" stop-color="#F5003B"/>
</linearGradient>
</defs>
</svg>
