<svg width="18" height="18" viewBox="0 0 18 18" fill="none" xmlns="http://www.w3.org/2000/svg">
<path d="M9 0.53125C4.18359 0.53125 0.28125 4.43359 0.28125 9.25C0.28125 14.0664 4.18359 17.9688 9 17.9688C13.8164 17.9688 17.7188 14.0664 17.7188 9.25C17.7188 4.43359 13.8164 0.53125 9 0.53125ZM7.98047 5.59375C7.62891 5.27734 7.62891 4.71484 7.94531 4.39844L8.33203 4.01172C8.68359 3.66016 9.21094 3.66016 9.52734 4.01172L14.2031 8.6875C14.5195 9.00391 14.5195 9.53125 14.2031 9.84766L9.52734 14.5234C9.21094 14.8398 8.68359 14.8398 8.33203 14.5234L7.94531 14.1367C7.62891 13.8203 7.62891 13.2578 7.98047 12.9414L10.6172 10.375H4.21875C3.72656 10.375 3.375 10.0234 3.375 9.53125V8.96875C3.375 8.51172 3.72656 8.125 4.21875 8.125H10.6172L7.98047 5.59375Z" fill="url(#paint0_linear_1298_14728)"/>
<defs>
<linearGradient id="paint0_linear_1298_14728" x1="0" y1="-3" x2="23.04" y2="14.28" gradientUnits="userSpaceOnUse">
<stop stop-color="#E32068"/>
<stop offset="1" stop-color="#F5003B"/>
</linearGradient>
</defs>
</svg>
