<svg width="13" height="11" viewBox="0 0 13 11" fill="none" xmlns="http://www.w3.org/2000/svg">
<path d="M8.84858 3.44823L12.6696 3.9484C12.7411 3.95728 12.8082 3.98377 12.8634 4.02496C12.9186 4.06616 12.9596 4.12032 12.9816 4.18123C13.0037 4.24214 13.0059 4.30738 12.9881 4.36938C12.9703 4.43138 12.9332 4.4877 12.881 4.53184L10.1092 6.92121C10.0652 6.95952 10.0323 7.00666 10.0132 7.05865C9.99416 7.11064 9.98945 7.16599 9.99957 7.21992L10.6494 10.5957C10.6632 10.6593 10.6561 10.725 10.6292 10.7852C10.6022 10.8455 10.5565 10.8976 10.4973 10.9356C10.4381 10.9735 10.3679 10.9956 10.295 10.9994C10.2221 11.0032 10.1495 10.9884 10.0857 10.9569L6.6718 9.35925C6.61562 9.33525 6.55408 9.32279 6.49172 9.32279C6.42937 9.32279 6.36783 9.33525 6.31165 9.35925L2.89766 10.9499C2.83359 10.9786 2.76191 10.9911 2.69035 10.9861C2.61878 10.9811 2.55011 10.9588 2.49192 10.9215C2.43372 10.8842 2.38826 10.8334 2.3604 10.7747C2.33253 10.716 2.32334 10.6517 2.33392 10.5887L2.99162 7.21297C3.00389 7.15903 3.00031 7.10318 2.9811 7.05085C2.9619 6.99853 2.9278 6.95145 2.88208 6.91426L0.118052 4.51793C0.065659 4.47334 0.0286044 4.41648 0.0111915 4.35395C-0.00622138 4.29142 -0.00326136 4.2258 0.0196983 4.1647C0.0426579 4.1036 0.084674 4.04952 0.140896 4.00877C0.197118 3.96802 0.265244 3.94228 0.337316 3.93449L4.15838 3.44823C4.21961 3.43866 4.27754 3.4168 4.32775 3.38429C4.37797 3.35179 4.41915 3.30956 4.44809 3.26076L6.16283 0.190607C6.19441 0.133436 6.24348 0.0852396 6.30438 0.0515521C6.36528 0.0178646 6.43563 0 6.5074 0C6.57917 0 6.64942 0.0178646 6.71032 0.0515521C6.77122 0.0852396 6.82029 0.133436 6.85187 0.190607L8.55887 3.26076C8.58512 3.31134 8.62544 3.35511 8.67615 3.38794C8.72686 3.42077 8.78626 3.44148 8.84858 3.44823Z" fill="url(#paint0_linear_1348_18319)"/>
<defs>
<linearGradient id="paint0_linear_1348_18319" x1="18089.5" y1="15812.8" x2="18305.3" y2="15812.8" gradientUnits="userSpaceOnUse">
<stop stop-color="#E32068"/>
<stop offset="1" stop-color="#F5003B"/>
</linearGradient>
</defs>
</svg>
