<svg width="17" height="16" viewBox="0 0 17 16" fill="none" xmlns="http://www.w3.org/2000/svg">
<path d="M11.3008 4.99221L16.1808 5.71634C16.272 5.7292 16.3578 5.76755 16.4282 5.82719C16.4987 5.88683 16.551 5.96524 16.5792 6.05343C16.6074 6.14161 16.6103 6.23605 16.5875 6.32582C16.5648 6.41559 16.5174 6.49712 16.4507 6.56102L12.9108 10.0203C12.8546 10.0757 12.8126 10.144 12.7882 10.2192C12.7638 10.2945 12.7578 10.3746 12.7708 10.4527L13.6007 15.34C13.6182 15.4321 13.6093 15.5273 13.5748 15.6145C13.5404 15.7016 13.482 15.7772 13.4064 15.8321C13.3308 15.887 13.2412 15.9191 13.1481 15.9245C13.055 15.93 12.9622 15.9086 12.8807 15.8629L8.52076 13.55C8.44901 13.5152 8.37042 13.4972 8.29078 13.4972C8.21114 13.4972 8.13255 13.5152 8.0608 13.55L3.70069 15.8529C3.61887 15.8944 3.52732 15.9125 3.43592 15.9053C3.34453 15.898 3.25683 15.8657 3.18251 15.8117C3.10818 15.7578 3.05013 15.6842 3.01454 15.5992C2.97895 15.5143 2.96721 15.4211 2.98072 15.3299L3.82069 10.4427C3.83636 10.3646 3.83179 10.2837 3.80726 10.208C3.78273 10.1322 3.73919 10.064 3.6808 10.0102L0.150768 6.54089C0.0838551 6.47633 0.0365316 6.394 0.014293 6.30348C-0.00794552 6.21295 -0.00416519 6.11795 0.0251573 6.02949C0.0544798 5.94103 0.10814 5.86274 0.179942 5.80374C0.251745 5.74474 0.338751 5.70748 0.430797 5.69621L5.3108 4.99221C5.38899 4.97836 5.46298 4.94672 5.52711 4.89965C5.59125 4.85259 5.64383 4.79146 5.6808 4.7208L7.87074 0.275954C7.91108 0.193183 7.97374 0.123407 8.05152 0.0746352C8.1293 0.0258636 8.21914 0 8.3108 0C8.40246 0 8.49218 0.0258636 8.56996 0.0746352C8.64774 0.123407 8.7104 0.193183 8.75074 0.275954L10.9308 4.7208C10.9643 4.79403 11.0158 4.85741 11.0806 4.90493C11.1453 4.95245 11.2212 4.98244 11.3008 4.99221Z" fill="url(#paint0_linear_1557_17822)"/>
<defs>
<linearGradient id="paint0_linear_1557_17822" x1="23102.7" y1="22893.2" x2="23378.3" y2="22893.2" gradientUnits="userSpaceOnUse">
<stop stop-color="#E32068"/>
<stop offset="1" stop-color="#F5003B"/>
</linearGradient>
</defs>
</svg>
