<svg width="10" height="10" viewBox="0 0 10 10" fill="none" xmlns="http://www.w3.org/2000/svg">
<g clip-path="url(#clip0_1298_14668)">
<rect width="414" height="4951" transform="translate(-349 -435)" fill="white"/>
<rect x="-349" y="-435" width="424" height="896" fill="#F5F5F5"/>
<rect x="-8.5" y="-7.5" width="57" height="25" rx="4.5" stroke="url(#paint0_linear_1298_14668)"/>
<path d="M9.02344 1.48047C7.94922 0.5625 6.36719 0.738281 5.37109 1.75391L5 2.14453L4.60938 1.75391C3.63281 0.738281 2.03125 0.5625 0.957031 1.48047C-0.273438 2.53516 -0.332031 4.41016 0.761719 5.54297L4.55078 9.44922C4.78516 9.70312 5.19531 9.70312 5.42969 9.44922L9.21875 5.54297C10.3125 4.41016 10.2539 2.53516 9.02344 1.48047Z" fill="url(#paint1_linear_1298_14668)"/>
</g>
<defs>
<linearGradient id="paint0_linear_1298_14668" x1="-9" y1="-8" x2="10.4099" y2="35.299" gradientUnits="userSpaceOnUse">
<stop stop-color="#E32068"/>
<stop offset="1" stop-color="#F5003B"/>
</linearGradient>
<linearGradient id="paint1_linear_1298_14668" x1="0" y1="-3" x2="15.36" y2="8.52" gradientUnits="userSpaceOnUse">
<stop stop-color="#E32068"/>
<stop offset="1" stop-color="#F5003B"/>
</linearGradient>
<clipPath id="clip0_1298_14668">
<rect width="414" height="4951" fill="white" transform="translate(-349 -435)"/>
</clipPath>
</defs>
</svg>
