<svg width="24" height="24" viewBox="0 0 24 24" fill="none" xmlns="http://www.w3.org/2000/svg">
<path fill-rule="evenodd" clip-rule="evenodd" d="M18.6965 15.5206C19.0116 15.4839 19.3309 15.5147 19.6334 15.6109C19.9359 15.7071 20.2145 15.8667 20.4514 16.0789C20.6882 16.2911 20.8779 16.5513 21.0077 16.8424C21.1375 17.1335 21.2044 17.4487 21.2044 17.7677C21.2044 18.0868 21.1375 18.4022 21.0077 18.6933C20.8779 18.9844 20.6882 19.2446 20.4514 19.4568C20.2145 19.669 19.9359 19.8286 19.6334 19.9248C19.3309 20.021 19.0116 20.0516 18.6965 20.0149C18.3813 20.0516 18.062 20.021 17.7595 19.9248C17.4571 19.8286 17.1784 19.669 16.9416 19.4568C16.7047 19.2446 16.5152 18.9844 16.3854 18.6933C16.2557 18.4022 16.1885 18.0868 16.1885 17.7677C16.1885 17.4487 16.2557 17.1335 16.3854 16.8424C16.5152 16.5513 16.7047 16.2911 16.9416 16.0789C17.1784 15.8667 17.4571 15.7071 17.7595 15.6109C18.062 15.5147 18.3813 15.4839 18.6965 15.5206ZM12.2608 15.5206C12.7057 15.5206 13.1405 15.6533 13.5105 15.9019C13.8804 16.1504 14.1687 16.5038 14.339 16.9172C14.5093 17.3305 14.5538 17.7854 14.467 18.2242C14.3802 18.663 14.1661 19.066 13.8515 19.3824C13.5368 19.6987 13.1359 19.9143 12.6996 20.0016C12.2632 20.0889 11.8109 20.0441 11.3998 19.8728C10.9888 19.7016 10.6374 19.4117 10.3902 19.0397C10.143 18.6676 10.0112 18.2302 10.0112 17.7827C10.0072 17.4846 10.0625 17.1887 10.1741 16.9124C10.2858 16.6362 10.4515 16.385 10.6611 16.1742C10.8708 15.9633 11.1204 15.7969 11.3951 15.6846C11.6699 15.5723 11.9642 15.5165 12.2608 15.5206ZM5.78012 15.5206C6.09525 15.4839 6.41459 15.5147 6.71705 15.6109C7.0195 15.7071 7.29837 15.8667 7.53522 16.0789C7.77207 16.2911 7.96155 16.5513 8.09133 16.8424C8.22112 17.1335 8.28828 17.4487 8.28828 17.7677C8.28828 18.0868 8.22112 18.4022 8.09133 18.6933C7.96155 18.9844 7.77207 19.2446 7.53522 19.4568C7.29837 19.669 7.0195 19.8286 6.71705 19.9248C6.41459 20.021 6.09525 20.0516 5.78012 20.0149C5.23191 19.9512 4.72622 19.6872 4.3591 19.2728C3.99197 18.8585 3.78916 18.3227 3.78916 17.7677C3.78916 17.2128 3.99197 16.6772 4.3591 16.2629C4.72622 15.8485 5.23191 15.5843 5.78012 15.5206ZM18.6965 9.66302C19.2905 9.66301 19.8604 9.89927 20.2819 10.3203C20.7033 10.7413 20.9421 11.3128 20.946 11.9102C20.95 12.2084 20.8945 12.5042 20.7829 12.7805C20.6713 13.0568 20.5058 13.3079 20.2961 13.5188C20.0864 13.7297 19.8368 13.8961 19.5621 14.0084C19.2874 14.1206 18.993 14.1764 18.6965 14.1724C18.0985 14.1724 17.5247 13.9346 17.1005 13.5107C16.6763 13.0869 16.4359 12.5115 16.432 11.9102C16.4474 11.3139 16.6918 10.7468 17.114 10.3278C17.5362 9.9088 18.1034 9.67057 18.6965 9.66302ZM12.2608 9.66302C12.8524 9.67068 13.4178 9.90933 13.8376 10.3287C14.2574 10.7481 14.4988 11.3153 14.5103 11.9102C14.5103 12.5102 14.2733 13.0856 13.8515 13.5098C13.4296 13.9341 12.8574 14.1724 12.2608 14.1724C11.9642 14.1764 11.6699 14.1206 11.3951 14.0084C11.1204 13.8961 10.8708 13.7297 10.6611 13.5188C10.4515 13.3079 10.2858 13.0568 10.1741 12.7805C10.0625 12.5042 10.0072 12.2084 10.0112 11.9102C10.0151 11.3128 10.2539 10.7413 10.6753 10.3203C11.0968 9.89927 11.6667 9.66301 12.2608 9.66302ZM5.78012 9.66302C6.37417 9.66301 6.9441 9.89927 7.36555 10.3203C7.78699 10.7413 8.02575 11.3128 8.02968 11.9102C8.06613 12.2271 8.03551 12.5481 7.93985 12.8522C7.84418 13.1564 7.68569 13.4368 7.47466 13.675C7.26363 13.9131 7.00487 14.1037 6.71541 14.2342C6.42595 14.3647 6.11226 14.4323 5.79503 14.4323C5.47781 14.4323 5.1643 14.3647 4.87484 14.2342C4.58538 14.1037 4.32662 13.9131 4.11559 13.675C3.90456 13.4368 3.74589 13.1564 3.65022 12.8522C3.55456 12.5481 3.52394 12.2271 3.56038 11.9102C3.5681 11.3166 3.80601 10.7495 4.22343 10.3298C4.64085 9.91003 5.20477 9.67078 5.79503 9.66302H5.78012ZM5.16945 4.52437H6.65921C6.75704 4.52242 6.85346 4.5011 6.94309 4.46164C7.03273 4.42219 7.11372 4.36544 7.18151 4.29449C7.2493 4.22354 7.30265 4.1398 7.33827 4.04816C7.37389 3.95652 7.39116 3.85868 7.38919 3.76031V0.764059C7.39116 0.665685 7.37389 0.567853 7.33827 0.476211C7.30265 0.384569 7.2493 0.301011 7.18151 0.230059C7.11372 0.159107 7.03273 0.102181 6.94309 0.0627267C6.85346 0.023272 6.75704 0.00194782 6.65921 1.33266e-08H5.16945C4.9745 0.00780556 4.79033 0.0923073 4.65661 0.235179C4.5229 0.378051 4.45033 0.567902 4.45439 0.764059V3.76031C4.45405 3.95539 4.52784 4.14329 4.6608 4.28535C4.79375 4.42741 4.97579 4.51289 5.16945 4.52437ZM23.8363 6.02249V21.0037C23.8363 21.7984 23.5223 22.5605 22.9635 23.1224C22.4048 23.6843 21.647 24 20.8567 24H2.97953C2.18931 24 1.43132 23.6843 0.872547 23.1224C0.313776 22.5605 0 21.7984 0 21.0037V6.02249C0 5.22784 0.313776 4.46577 0.872547 3.90387C1.43132 3.34196 2.18931 3.02624 2.97953 3.02624H3.69459V3.76031C3.69459 4.15764 3.85148 4.53876 4.13087 4.81971C4.41025 5.10067 4.78925 5.25844 5.18436 5.25844H6.67413C7.06924 5.25844 7.44805 5.10067 7.72744 4.81971C8.00682 4.53876 8.16389 4.15764 8.16389 3.76031V3.02624H15.6127V3.76031C15.6127 4.15764 15.7696 4.53876 16.049 4.81971C16.3284 5.10067 16.7074 5.25844 17.1025 5.25844H18.5923C18.9874 5.25844 19.3662 5.10067 19.6456 4.81971C19.925 4.53876 20.082 4.15764 20.082 3.76031V3.02624H20.8567C21.647 3.02624 22.4048 3.34196 22.9635 3.90387C23.5223 4.46577 23.8363 5.22784 23.8363 6.02249ZM22.3465 9.01875C22.3465 6.12736 5.52704 7.52062 2.97953 7.52062C2.58442 7.52062 2.20543 7.67857 1.92604 7.95952C1.64665 8.24048 1.48977 8.62142 1.48977 9.01875V21.0037C1.48977 21.4011 1.64665 21.7822 1.92604 22.0632C2.20543 22.3441 2.58442 22.5019 2.97953 22.5019H20.8567C21.2519 22.5019 21.6307 22.3441 21.9101 22.0632C22.1894 21.7822 22.3465 21.4011 22.3465 21.0037V9.01875ZM17.1174 4.52437H18.6072C18.8075 4.52053 18.9985 4.43878 19.1402 4.29632C19.2819 4.15386 19.3632 3.96175 19.367 3.76031V0.764059C19.367 0.561422 19.2869 0.367127 19.1444 0.223841C19.0019 0.080555 18.8087 1.33266e-08 18.6072 1.33266e-08H17.1174C16.9145 -3.77195e-05 16.7196 0.0800556 16.5747 0.222927C16.4299 0.365798 16.3466 0.560056 16.3427 0.764059V3.76031C16.3503 3.96309 16.4347 4.15533 16.5788 4.29742C16.7228 4.43951 16.9156 4.52068 17.1174 4.52437Z" fill="white"/>
</svg>
