<svg width="17" height="16" viewBox="0 0 17 16" fill="none" xmlns="http://www.w3.org/2000/svg">
<path opacity="0.47" d="M11.6952 4.99221L16.5753 5.71634C16.6665 5.7292 16.7523 5.76755 16.8228 5.82719C16.8933 5.88683 16.9456 5.96524 16.9738 6.05343C17.002 6.14161 17.0048 6.23605 16.9821 6.32582C16.9594 6.41559 16.912 6.49712 16.8453 6.56102L13.3054 10.0203C13.2492 10.0757 13.207 10.144 13.1827 10.2192C13.1583 10.2945 13.1524 10.3746 13.1653 10.4527L13.9953 15.34C14.0128 15.4321 14.0039 15.5273 13.9694 15.6145C13.935 15.7016 13.8766 15.7772 13.801 15.8321C13.7254 15.887 13.6356 15.9191 13.5425 15.9245C13.4494 15.93 13.3568 15.9086 13.2753 15.8629L8.91534 13.55C8.84359 13.5152 8.765 13.4972 8.68536 13.4972C8.60572 13.4972 8.52701 13.5152 8.45526 13.55L4.09527 15.8529C4.01344 15.8944 3.9219 15.9125 3.8305 15.9053C3.73911 15.898 3.65141 15.8657 3.57709 15.8117C3.50276 15.7578 3.44458 15.6842 3.40899 15.5992C3.37341 15.5143 3.36179 15.4211 3.3753 15.3299L4.21527 10.4427C4.23094 10.3646 4.22637 10.2837 4.20184 10.208C4.17731 10.1322 4.13364 10.064 4.07525 10.0102L0.545347 6.54089C0.478435 6.47633 0.431111 6.394 0.408873 6.30348C0.386634 6.21296 0.390292 6.11795 0.419615 6.02949C0.448937 5.94103 0.502719 5.86274 0.574522 5.80374C0.646325 5.74474 0.733208 5.70748 0.825254 5.69621L5.70526 4.99221C5.78345 4.97836 5.85755 4.94672 5.92169 4.89965C5.98583 4.85259 6.03829 4.79146 6.07525 4.7208L8.26532 0.275954C8.30566 0.193183 8.3682 0.123407 8.44598 0.0746352C8.52376 0.0258636 8.6136 0 8.70526 0C8.79692 0 8.88676 0.0258636 8.96454 0.0746352C9.04232 0.123407 9.10498 0.193183 9.14532 0.275954L11.3253 4.7208C11.3588 4.79403 11.4104 4.85741 11.4752 4.90493C11.5399 4.95245 11.6157 4.98244 11.6952 4.99221Z" fill="url(#paint0_linear_1557_17826)"/>
<defs>
<linearGradient id="paint0_linear_1557_17826" x1="24402.6" y1="22893.2" x2="24678.2" y2="22893.2" gradientUnits="userSpaceOnUse">
<stop stop-color="#E32068"/>
<stop offset="1" stop-color="#F5003B"/>
</linearGradient>
</defs>
</svg>
