<svg width="20" height="24" viewBox="0 0 20 24" fill="none" xmlns="http://www.w3.org/2000/svg">
<path d="M13.0361 11.783C14.1945 11.0376 15.0814 9.93465 15.5638 8.6396C16.0463 7.34455 16.0983 5.92719 15.7121 4.59989C15.326 3.27258 14.5224 2.10691 13.4219 1.2776C12.3214 0.448297 10.9831 0 9.60792 0C8.23269 0 6.89445 0.448297 5.79392 1.2776C4.69339 2.10691 3.88986 3.27258 3.50369 4.59989C3.11752 5.92719 3.16952 7.34455 3.65199 8.6396C4.13446 9.93465 5.02137 11.0376 6.17973 11.783C4.35582 12.4858 2.78788 13.7302 1.68406 15.3506C0.580241 16.9711 -0.00716854 18.8909 6.60306e-05 20.8551C0.00401945 21.688 0.334875 22.4856 0.920527 23.0746C1.50618 23.6635 2.2992 23.996 3.12743 24H16.0882C16.9164 23.996 17.7097 23.6635 18.2953 23.0746C18.881 22.4856 19.2118 21.688 19.2158 20.8551C19.223 18.8909 18.6356 16.9711 17.5318 15.3506C16.428 13.7302 14.86 12.4858 13.0361 11.783ZM4.88668 6.4002C4.88668 5.46119 5.16356 4.54343 5.68233 3.76267C6.2011 2.98192 6.93844 2.37339 7.80113 2.01404C8.66382 1.6547 9.6131 1.56064 10.5289 1.74383C11.4448 1.92702 12.2861 2.37923 12.9464 3.04321C13.6066 3.70719 14.0563 4.55305 14.2385 5.47402C14.4207 6.39498 14.3271 7.34959 13.9698 8.21712C13.6124 9.08465 13.0073 9.82612 12.2309 10.3478C11.4545 10.8695 10.5417 11.1479 9.60792 11.1479C8.98212 11.146 8.36293 11.0195 7.78608 10.7755C7.20924 10.5314 6.68609 10.1749 6.24709 9.72636C5.80809 9.27786 5.46195 8.74635 5.22843 8.16248C4.99492 7.57862 4.87873 6.95397 4.88668 6.32471V6.4002ZM16.0882 22.2914H3.12743C2.72866 22.2914 2.34633 22.1322 2.06436 21.8486C1.78238 21.5651 1.62386 21.1804 1.62386 20.7794C1.62386 18.6581 2.46191 16.6236 3.95355 15.1236C5.4452 13.6236 7.46831 12.781 9.57782 12.781C11.6873 12.781 13.7104 13.6236 15.2021 15.1236C16.6937 16.6236 17.5318 18.6581 17.5318 20.7794C17.5133 21.1569 17.3548 21.5139 17.0876 21.7798C16.8204 22.0457 16.4638 22.2013 16.0882 22.2159V22.2914Z" fill="white"/>
</svg>
