<svg width="21" height="24" viewBox="0 0 21 24" fill="none" xmlns="http://www.w3.org/2000/svg">
<path d="M3.78947 6.31579C3.78947 2.82768 6.61715 0 10.1053 0C13.5934 0 16.4211 2.82768 16.4211 6.31579C16.4211 9.8039 13.5934 12.6316 10.1053 12.6316C6.61715 12.6316 3.78947 9.8039 3.78947 6.31579ZM10.1053 10.1053C12.1981 10.1053 13.8947 8.40866 13.8947 6.31579C13.8947 4.22292 12.1981 2.52632 10.1053 2.52632C8.01239 2.52632 6.31579 4.22292 6.31579 6.31579C6.31579 8.40866 8.01239 10.1053 10.1053 10.1053Z" fill="url(#paint0_linear_1877_25873)"/>
<path d="M2.95976 16.8545C1.1828 18.6315 0.135968 21.0021 0.0123558 23.5002C-0.00129165 23.776 0.223858 24 0.5 24H2.02632C2.30246 24 2.5246 23.7758 2.54279 23.5003C2.66348 21.6727 3.44305 19.944 4.74614 18.6409C6.16747 17.2195 8.0952 16.4211 10.1053 16.4211C12.1153 16.4211 14.0431 17.2195 15.4644 18.6409C16.7675 19.944 17.547 21.6727 17.6677 23.5003C17.6859 23.7758 17.9081 24 18.1842 24H19.7105C19.9867 24 20.2118 23.776 20.1982 23.5002C20.0746 21.0021 19.0277 18.6315 17.2508 16.8545C15.3557 14.9594 12.7853 13.8947 10.1053 13.8947C7.42518 13.8947 4.85487 14.9594 2.95976 16.8545Z" fill="url(#paint1_linear_1877_25873)"/>
<defs>
<linearGradient id="paint0_linear_1877_25873" x1="0" y1="0" x2="23.6499" y2="19.9157" gradientUnits="userSpaceOnUse">
<stop stop-color="#E32068"/>
<stop offset="1" stop-color="#F5003B"/>
</linearGradient>
<linearGradient id="paint1_linear_1877_25873" x1="0" y1="0" x2="23.6499" y2="19.9157" gradientUnits="userSpaceOnUse">
<stop stop-color="#E32068"/>
<stop offset="1" stop-color="#F5003B"/>
</linearGradient>
</defs>
</svg>
