<svg width="24" height="23" viewBox="0 0 24 23" fill="none" xmlns="http://www.w3.org/2000/svg">
<path d="M16.2976 7.1879L23.3353 8.23053C23.4669 8.24904 23.5905 8.30426 23.6922 8.39013C23.7938 8.476 23.8693 8.5889 23.9099 8.71587C23.9506 8.84284 23.9547 8.97882 23.9219 9.10807C23.8891 9.23732 23.8207 9.35471 23.7246 9.44672L18.6194 14.4274C18.5384 14.5073 18.4778 14.6055 18.4427 14.7139C18.4075 14.8223 18.3989 14.9377 18.4175 15.0501L19.6144 22.0869C19.6397 22.2195 19.6268 22.3566 19.5771 22.4821C19.5275 22.6076 19.4432 22.7164 19.3342 22.7955C19.2251 22.8745 19.0959 22.9207 18.9617 22.9285C18.8274 22.9364 18.6936 22.9056 18.5761 22.8398L12.2883 19.5096C12.1848 19.4595 12.0715 19.4336 11.9566 19.4336C11.8418 19.4336 11.7285 19.4595 11.625 19.5096L5.337 22.8253C5.21899 22.8852 5.08696 22.9112 4.95516 22.9008C4.82335 22.8903 4.69687 22.8438 4.58969 22.7661C4.4825 22.6884 4.39878 22.5825 4.34745 22.4602C4.29613 22.3378 4.27919 22.2037 4.29869 22.0724L5.51005 15.0356C5.53265 14.9232 5.52606 14.8067 5.49069 14.6977C5.45531 14.5886 5.39251 14.4905 5.3083 14.4129L0.217431 9.41773C0.120933 9.32478 0.0526845 9.20624 0.0206129 9.0759C-0.0114587 8.94556 -0.00600687 8.80877 0.0362809 8.68141C0.0785686 8.55404 0.155955 8.44132 0.259506 8.35637C0.363057 8.27142 0.488534 8.21777 0.621279 8.20154L7.65904 7.1879C7.7718 7.16796 7.87849 7.1224 7.97099 7.05464C8.06348 6.98687 8.13931 6.89885 8.19263 6.79712L11.3509 0.397325C11.4091 0.27815 11.4994 0.177684 11.6116 0.107462C11.7238 0.0372391 11.8533 0 11.9855 0C12.1177 0 12.2471 0.0372391 12.3593 0.107462C12.4714 0.177684 12.5618 0.27815 12.62 0.397325L15.764 6.79712C15.8123 6.90256 15.8866 6.99381 15.98 7.06224C16.0734 7.13066 16.1828 7.17384 16.2976 7.1879Z" fill="white"/>
</svg>
