<svg width="40" height="40" viewBox="0 0 40 40" fill="none" xmlns="http://www.w3.org/2000/svg">
<path d="M19.9987 21.6654C20.9192 21.6654 21.6654 20.9192 21.6654 19.9987C21.6654 19.0782 20.9192 18.332 19.9987 18.332C19.0782 18.332 18.332 19.0782 18.332 19.9987C18.332 20.9192 19.0782 21.6654 19.9987 21.6654Z" fill="#343846" stroke="#343846" stroke-width="2" stroke-linecap="round" stroke-linejoin="round"/>
<path d="M19.9987 10.0013C20.9192 10.0013 21.6654 9.25511 21.6654 8.33464C21.6654 7.41416 20.9192 6.66797 19.9987 6.66797C19.0782 6.66797 18.332 7.41416 18.332 8.33464C18.332 9.25511 19.0782 10.0013 19.9987 10.0013Z" fill="#343846" stroke="#343846" stroke-width="2" stroke-linecap="round" stroke-linejoin="round"/>
<path d="M19.9987 33.3333C20.9192 33.3333 21.6654 32.5871 21.6654 31.6667C21.6654 30.7462 20.9192 30 19.9987 30C19.0782 30 18.332 30.7462 18.332 31.6667C18.332 32.5871 19.0782 33.3333 19.9987 33.3333Z" fill="#343846" stroke="#343846" stroke-width="2" stroke-linecap="round" stroke-linejoin="round"/>
</svg>
