<svg width="14" height="15" viewBox="0 0 14 15" fill="none" xmlns="http://www.w3.org/2000/svg">
<g opacity="0.8">
<path d="M5.25121 12.3086C5.03465 12.3086 4.82293 12.3728 4.64287 12.4931C4.46281 12.6134 4.32247 12.7844 4.2396 12.9845C4.15673 13.1846 4.13504 13.4047 4.17729 13.6171C4.21954 13.8295 4.32381 14.0246 4.47694 14.1778C4.63007 14.3309 4.82515 14.4352 5.03755 14.4774C5.24995 14.5197 5.47013 14.498 5.6702 14.4151C5.87028 14.3323 6.04131 14.1919 6.16163 14.0118C6.28194 13.8318 6.34614 13.6201 6.34614 13.4035C6.34614 13.1131 6.23076 12.8346 6.02542 12.6293C5.82008 12.424 5.54161 12.3086 5.25121 12.3086ZM10.7833 12.3086C10.5667 12.3086 10.355 12.3728 10.1749 12.4931C9.99486 12.6134 9.85452 12.7844 9.77165 12.9845C9.68877 13.1846 9.66709 13.4047 9.70934 13.6171C9.75159 13.8295 9.85586 14.0246 10.009 14.1778C10.1621 14.3309 10.3573 14.4352 10.5697 14.4774C10.7821 14.5197 11.0022 14.498 11.2023 14.4151C11.4023 14.3323 11.5734 14.1919 11.6937 14.0118C11.814 13.8318 11.8782 13.6201 11.8782 13.4035C11.8782 13.1131 11.7628 12.8346 11.5575 12.6293C11.3521 12.424 11.0737 12.3086 10.7833 12.3086Z" fill="#F9003B"/>
<path d="M13.2436 2.58574H3.59767L3.27441 1.35523C3.22999 1.11231 3.1008 0.893026 2.90984 0.736436C2.71887 0.579846 2.47853 0.496111 2.23161 0.500139H0.667407C0.490404 0.500139 0.320622 0.570454 0.195461 0.695614C0.0703011 0.820774 0 0.990527 0 1.16753C0 1.34453 0.0703011 1.51429 0.195461 1.63945C0.320622 1.76461 0.490404 1.83492 0.667407 1.83492H2.01782L3.85837 8.77997L3.13884 10.4328C3.096 10.5347 3.07893 10.6455 3.08913 10.7556C3.09933 10.8656 3.13644 10.9715 3.19727 11.0637C3.25809 11.156 3.34074 11.2318 3.43785 11.2846C3.53497 11.3373 3.64361 11.3653 3.75412 11.3661H12.1382C12.3152 11.3661 12.485 11.2958 12.6102 11.1706C12.7353 11.0455 12.8056 10.8757 12.8056 10.6987C12.8056 10.5217 12.7353 10.352 12.6102 10.2268C12.485 10.1016 12.3152 10.0313 12.1382 10.0313H4.74473L5.14622 9.10324C5.14622 9.10324 5.14622 9.07717 5.14622 9.06674H12.0704C12.2431 9.06766 12.411 9.00985 12.5464 8.90278C12.6819 8.79572 12.777 8.64577 12.8161 8.47756L13.9788 3.52426C14.0055 3.4128 14.0066 3.29675 13.9822 3.18477C13.9578 3.07278 13.9084 2.96776 13.8377 2.87753C13.767 2.78731 13.6769 2.71421 13.574 2.66368C13.4712 2.61316 13.3582 2.58651 13.2436 2.58574ZM6.76776 6.80908C6.75542 6.92701 6.69986 7.03619 6.61176 7.11555C6.52366 7.19491 6.4093 7.23882 6.29073 7.23882C6.17215 7.23882 6.05779 7.19491 5.96969 7.11555C5.88159 7.03619 5.82597 6.92701 5.81362 6.80908V4.84862C5.80663 4.78177 5.81378 4.71421 5.83456 4.6503C5.85535 4.58639 5.88932 4.52756 5.9343 4.47762C5.97928 4.42769 6.03425 4.38776 6.09565 4.36044C6.15704 4.33311 6.22352 4.31898 6.29073 4.31898C6.35793 4.31898 6.42434 4.33311 6.48574 4.36044C6.54714 4.38776 6.60211 4.42769 6.64709 4.47762C6.69207 4.52756 6.7261 4.58639 6.74689 4.6503C6.76767 4.71421 6.77476 4.78177 6.76776 4.84862V6.80908ZM9.05672 6.80908C9.04437 6.92701 8.98882 7.03619 8.90072 7.11555C8.81262 7.19491 8.69825 7.23882 8.57968 7.23882C8.46111 7.23882 8.34668 7.19491 8.25858 7.11555C8.17048 7.03619 8.11492 6.92701 8.10258 6.80908V4.84862C8.09558 4.78177 8.10273 4.71421 8.12352 4.6503C8.14431 4.58639 8.17827 4.52756 8.22325 4.47762C8.26823 4.42769 8.3232 4.38776 8.3846 4.36044C8.446 4.33311 8.51247 4.31898 8.57968 4.31898C8.64689 4.31898 8.7133 4.33311 8.7747 4.36044C8.83609 4.38776 8.89106 4.42769 8.93604 4.47762C8.98102 4.52756 9.01505 4.58639 9.03584 4.6503C9.05663 4.71421 9.06371 4.78177 9.05672 4.84862V6.80908ZM11.3405 6.80908C11.3281 6.92701 11.2726 7.03619 11.1845 7.11555C11.0964 7.19491 10.982 7.23882 10.8634 7.23882C10.7448 7.23882 10.6304 7.19491 10.5423 7.11555C10.4542 7.03619 10.3987 6.92701 10.3863 6.80908V4.84862C10.3793 4.78177 10.3864 4.71421 10.4072 4.6503C10.428 4.58639 10.462 4.52756 10.507 4.47762C10.552 4.42769 10.6069 4.38776 10.6683 4.36044C10.7297 4.33311 10.7962 4.31898 10.8634 4.31898C10.9306 4.31898 10.997 4.33311 11.0584 4.36044C11.1198 4.38776 11.1748 4.42769 11.2198 4.47762C11.2648 4.52756 11.2988 4.58639 11.3196 4.6503C11.3404 4.71421 11.3474 4.78177 11.3405 4.84862V6.80908Z" fill="#F9003B"/>
</g>
</svg>
