<svg width="25" height="23" viewBox="0 0 25 23" fill="none" xmlns="http://www.w3.org/2000/svg">
<path opacity="0.47" d="M16.3561 7.23082L23.3938 8.27514C23.5254 8.29368 23.6492 8.34899 23.7508 8.435C23.8525 8.52101 23.9279 8.63409 23.9686 8.76127C24.0093 8.88845 24.0133 9.02465 23.9806 9.15411C23.9478 9.28356 23.8794 9.40115 23.7832 9.4933L18.6781 14.4821C18.5971 14.5621 18.5363 14.6605 18.5012 14.7691C18.466 14.8776 18.4575 14.9932 18.4762 15.1058L19.6731 22.154C19.6984 22.2868 19.6854 22.4241 19.6358 22.5498C19.5861 22.6755 19.5019 22.7845 19.3928 22.8637C19.2838 22.9429 19.1544 22.9891 19.0201 22.997C18.8859 23.0049 18.7522 22.974 18.6348 22.9081L12.347 19.5725C12.2435 19.5224 12.1302 19.4964 12.0153 19.4964C11.9005 19.4964 11.7869 19.5224 11.6835 19.5725L5.39566 22.8936C5.27765 22.9536 5.14563 22.9797 5.01382 22.9692C4.88202 22.9587 4.75554 22.9122 4.64835 22.8343C4.54117 22.7565 4.45726 22.6504 4.40594 22.5279C4.35461 22.4053 4.33785 22.271 4.35735 22.1395L5.56872 15.0913C5.59131 14.9786 5.58472 14.862 5.54935 14.7528C5.51398 14.6435 5.451 14.5452 5.36679 14.4676L0.276095 9.46427C0.179596 9.37117 0.111348 9.25244 0.0792762 9.12189C0.0472046 8.99133 0.0524804 8.85432 0.0947681 8.72675C0.137056 8.59917 0.214618 8.48627 0.318169 8.40119C0.42172 8.31609 0.547021 8.26236 0.679766 8.2461L7.71752 7.23082C7.83029 7.21085 7.93716 7.16521 8.02965 7.09734C8.12214 7.02946 8.1978 6.9413 8.25111 6.8394L11.4095 0.42922C11.4677 0.309852 11.5579 0.209222 11.6701 0.138886C11.7823 0.0685495 11.9118 0.03125 12.044 0.03125C12.1762 0.03125 12.3058 0.0685495 12.4179 0.138886C12.5301 0.209222 12.6205 0.309852 12.6786 0.42922L15.8225 6.8394C15.8708 6.94502 15.9453 7.03641 16.0386 7.10495C16.132 7.17349 16.2413 7.21674 16.3561 7.23082Z" fill="white"/>
</svg>
