<svg width="22" height="22" viewBox="0 0 22 22" fill="none" xmlns="http://www.w3.org/2000/svg">
<path d="M19.7984 4.39844V19.7984H4.39844V21.9984H19.7984C21.0084 21.9984 21.9984 21.0084 21.9984 19.7984V4.39844H19.7984Z" fill="url(#paint0_linear_1877_25877)"/>
<path d="M15.4 0H2.2C0.99 0 0 0.99 0 2.2V15.4C0 16.61 0.99 17.6 2.2 17.6H15.4C16.61 17.6 17.6 16.61 17.6 15.4V2.2C17.6 0.99 16.61 0 15.4 0ZM7.7 15.4H2.2V9.9H7.7V15.4ZM15.4 15.4H9.9V9.9H15.4V15.4ZM15.4 7.7H2.2V2.2H15.4V7.7Z" fill="url(#paint1_linear_1877_25877)"/>
<defs>
<linearGradient id="paint0_linear_1877_25877" x1="4.39844" y1="4.39844" x2="21.9984" y2="21.9984" gradientUnits="userSpaceOnUse">
<stop stop-color="#E32068"/>
<stop offset="1" stop-color="#F5003B"/>
</linearGradient>
<linearGradient id="paint1_linear_1877_25877" x1="0" y1="0" x2="17.6" y2="17.6" gradientUnits="userSpaceOnUse">
<stop stop-color="#E32068"/>
<stop offset="1" stop-color="#F5003B"/>
</linearGradient>
</defs>
</svg>
