<svg width="24" height="24" viewBox="0 0 24 24" fill="none" xmlns="http://www.w3.org/2000/svg">
<g clip-path="url(#clip0_1557_17217)">
<path d="M18.1276 22.3252C23.8279 18.942 25.7062 11.5784 22.323 5.8781C18.9398 0.177842 11.5762 -1.70049 5.87592 1.68273C0.17566 5.06595 -1.70267 12.4296 1.68055 18.1298C5.06377 23.8301 12.4274 25.7084 18.1276 22.3252Z" fill="url(#paint0_linear_1557_17217)"/>
<path d="M10.3256 18.0927C10.1028 18.095 9.88215 18.0478 9.67978 17.9544C9.47741 17.861 9.29835 17.7238 9.15555 17.5526L5.21781 12.6023C5.08632 12.4498 4.98704 12.2722 4.92592 12.0803C4.86481 11.8884 4.84312 11.6861 4.86216 11.4856C4.88121 11.2851 4.9406 11.0905 5.03675 10.9136C5.13291 10.7366 5.26385 10.5809 5.42171 10.4558C5.57957 10.3308 5.76109 10.2389 5.95535 10.1858C6.14962 10.1326 6.35262 10.1193 6.55216 10.1466C6.7517 10.1739 6.94366 10.2413 7.11651 10.3447C7.28935 10.4481 7.43951 10.5853 7.55795 10.7482L11.4957 15.6985C11.7351 16.0064 11.8438 16.396 11.7984 16.7834C11.7529 17.1707 11.5569 17.5246 11.2527 17.7686C10.9902 17.9803 10.6628 18.0947 10.3256 18.0927Z" fill="white"/>
<path d="M10.3222 18.0909C9.98515 18.0923 9.6579 17.9779 9.3951 17.7669C9.08638 17.5209 8.88754 17.1628 8.84201 16.7707C8.79648 16.3786 8.90795 15.9845 9.15209 15.6743L16.4425 6.47571C16.6943 6.18364 17.0492 6.00019 17.433 5.96373C17.8168 5.92727 18.1999 6.04061 18.5021 6.28006C18.8044 6.5195 19.0023 6.86651 19.0546 7.24853C19.1069 7.63054 19.0094 8.01798 18.7827 8.32982L11.4922 17.5509C11.3501 17.7228 11.1711 17.8605 10.9686 17.954C10.7661 18.0475 10.5452 18.0943 10.3222 18.0909Z" fill="white"/>
</g>
<defs>
<linearGradient id="paint0_linear_1557_17217" x1="-0.00024962" y1="12.0022" x2="23.9997" y2="12.0022" gradientUnits="userSpaceOnUse">
<stop stop-color="#E32068"/>
<stop offset="1" stop-color="#F5003B"/>
</linearGradient>
<clipPath id="clip0_1557_17217">
<rect width="24" height="24" fill="white"/>
</clipPath>
</defs>
</svg>
