<svg width="22" height="22" viewBox="0 0 22 22" fill="none" xmlns="http://www.w3.org/2000/svg">
<path d="M20.1173 0.441406H1.88111C1.08491 0.441406 0.439453 1.08686 0.439453 1.88307V20.1193C0.439453 20.9155 1.08491 21.5609 1.88111 21.5609H20.1173C20.9135 21.5609 21.559 20.9155 21.559 20.1193V1.88307C21.559 1.08686 20.9135 0.441406 20.1173 0.441406Z" fill="url(#paint0_linear_1543_13953)"/>
<path d="M5.11523 16.5903H7.61363V8.71094H5.11523V16.5903Z" fill="white"/>
<path d="M9.378 8.48047H12.0428L11.8753 9.54033H11.9035C12.4681 8.9259 13.0249 8.48047 13.9784 8.48047C15.3053 8.48047 17.1543 9.2026 17.1543 11.3987V16.5903H14.6559V12.136C14.6559 11.3536 14.162 10.6002 13.3574 10.6002C12.6092 10.6002 11.8753 11.3528 11.8753 12.136V16.5903H9.37695L9.378 8.48047Z" fill="white"/>
<path d="M7.70452 6.75532C7.70457 7.02067 7.62593 7.28007 7.47854 7.50072C7.33115 7.72138 7.12164 7.89336 6.8765 7.99493C6.63136 8.0965 6.3616 8.12309 6.10135 8.07133C5.8411 8.01958 5.60204 7.89181 5.41441 7.70418C5.22678 7.51655 5.099 7.27749 5.04725 7.01723C4.99549 6.75698 5.02208 6.48722 5.12365 6.24208C5.22522 5.99694 5.39721 5.78743 5.61786 5.64004C5.83851 5.49265 6.09791 5.41401 6.36326 5.41406C6.71897 5.41413 7.06008 5.55546 7.3116 5.80698C7.56312 6.0585 7.70445 6.39962 7.70452 6.75532Z" fill="white"/>
<defs>
<linearGradient id="paint0_linear_1543_13953" x1="0.439453" y1="0.441406" x2="21.559" y2="21.5609" gradientUnits="userSpaceOnUse">
<stop stop-color="#E32068"/>
<stop offset="1" stop-color="#F5003B"/>
</linearGradient>
</defs>
</svg>
