<svg width="21" height="24" viewBox="0 0 21 24" fill="none" xmlns="http://www.w3.org/2000/svg">
<path d="M17.2358 23.0335C15.934 24.2969 14.4977 24.0999 13.1287 23.5043C11.6732 22.8966 10.3426 22.8582 8.80538 23.5043C6.89112 24.3305 5.87515 24.0903 4.72227 23.0335C-1.78668 16.3324 -0.825947 6.12466 6.57168 5.74037C8.36585 5.83644 9.622 6.73232 10.6788 6.80678C12.2496 6.48734 13.7531 5.57224 15.4344 5.69233C17.4544 5.85566 18.9651 6.65306 19.9739 8.08695C15.8187 10.5849 16.8035 16.061 20.62 17.5982C19.8562 19.6037 18.8762 21.5852 17.2334 23.0503L17.2358 23.0335ZM10.5347 5.66831C10.3401 2.69005 12.754 0.240183 15.5305 0C15.9124 3.43461 12.4081 6.00457 10.5347 5.66831Z" fill="#F9003B"/>
</svg>
