<svg width="20" height="16" viewBox="0 0 20 16" fill="none" xmlns="http://www.w3.org/2000/svg">
<path d="M18 2H10.2071C10.0745 2 9.94732 1.94732 9.85355 1.85355L8.14645 0.146446C8.05268 0.0526783 7.9255 0 7.79289 0H2C0.9 0 0 0.9 0 2V14C0 15.1 0.9 16 2 16H18C19.1 16 20 15.1 20 14V4C20 2.9 19.1 2 18 2ZM18 13.5C18 13.7761 17.7761 14 17.5 14H2.5C2.22386 14 2 13.7761 2 13.5V2.5C2 2.22386 2.22386 2 2.5 2H6.96289C7.0955 2 7.22268 2.05268 7.31645 2.14645L9.02355 3.85355C9.11732 3.94732 9.2445 4 9.37711 4H17.5C17.7761 4 18 4.22386 18 4.5V13.5ZM10.8517 9.84244C10.9921 9.96393 11.0536 10.1532 11.0115 10.3341L10.6542 11.8666C10.5545 12.2943 11.0151 12.6335 11.394 12.4114L12.7471 11.6182C12.9033 11.5267 13.0967 11.5267 13.2529 11.6182L14.606 12.4114C14.9849 12.6335 15.4455 12.2943 15.3458 11.8666L14.9885 10.3341C14.9464 10.1532 15.0079 9.96393 15.1483 9.84244L16.3243 8.82502C16.6587 8.53568 16.4804 7.98654 16.0398 7.94873L14.4893 7.81568C14.3051 7.79988 14.1447 7.68373 14.0721 7.51368L13.4599 6.07828C13.2871 5.67317 12.7129 5.67317 12.5401 6.07828L11.9279 7.51368C11.8553 7.68373 11.6949 7.79988 11.5107 7.81568L9.96015 7.94873C9.51956 7.98654 9.34133 8.53568 9.67575 8.82502L10.8517 9.84244Z" fill="url(#paint0_linear_1935_27552)"/>
<defs>
<linearGradient id="paint0_linear_1935_27552" x1="0" y1="0" x2="15.6098" y2="19.5122" gradientUnits="userSpaceOnUse">
<stop stop-color="#E32068"/>
<stop offset="1" stop-color="#F5003B"/>
</linearGradient>
</defs>
</svg>
