<svg width="27" height="18" viewBox="0 0 27 18" fill="none" xmlns="http://www.w3.org/2000/svg">
<path d="M22.5 15.75C23.7375 15.75 24.7388 14.7375 24.7388 13.5L24.75 2.25C24.75 1.00125 23.7375 0 22.5 0H4.5C3.25125 0 2.25 1.00125 2.25 2.25V13.5C2.25 14.7375 3.25125 15.75 4.5 15.75H0.25C0.111929 15.75 0 15.8619 0 16V17.75C0 17.8881 0.111929 18 0.25 18H26.75C26.8881 18 27 17.8881 27 17.75V16C27 15.8619 26.8881 15.75 26.75 15.75H22.5ZM4.74984 13.5002C4.61183 13.5001 4.5 13.3882 4.5 13.2502V2.5C4.5 2.36193 4.61193 2.25 4.75 2.25H22.25C22.3881 2.25 22.5 2.36193 22.5 2.5V13.2611C22.5 13.3992 22.388 13.5112 22.2498 13.5111L4.74984 13.5002ZM14.625 5.55356C14.625 5.67835 14.5313 5.78392 14.4081 5.80365C10.7174 6.39437 8.95734 8.72195 8.16018 11.2737C8.08025 11.5295 8.42392 11.6997 8.61125 11.508C10.0316 10.0543 11.8459 9.35962 14.3746 9.31708C14.5127 9.31476 14.625 9.42693 14.625 9.565V11.2027C14.625 11.4214 14.886 11.5347 15.0457 11.3854L18.9294 7.75411C19.0352 7.65521 19.0351 7.48741 18.9292 7.38865L15.0455 3.76711C14.8857 3.61807 14.625 3.73141 14.625 3.94995V5.55356Z" fill="white"/>
</svg>
