<svg width="35" height="35" viewBox="0 0 35 35" fill="none" xmlns="http://www.w3.org/2000/svg">
<g opacity="0.5">
<path d="M13.1261 29.5234C12.5847 29.5234 12.0554 29.684 11.6052 29.9848C11.1551 30.2855 10.8042 30.7131 10.597 31.2132C10.3899 31.7134 10.3356 32.2638 10.4413 32.7948C10.5469 33.3258 10.8076 33.8135 11.1904 34.1964C11.5732 34.5792 12.0609 34.8399 12.5919 34.9455C13.1229 35.0511 13.6734 34.9969 14.1735 34.7898C14.6737 34.5826 15.1013 34.2317 15.4021 33.7816C15.7029 33.3314 15.8634 32.8022 15.8634 32.2608C15.8634 31.5348 15.5749 30.8385 15.0616 30.3252C14.5482 29.8118 13.8521 29.5234 13.1261 29.5234ZM26.9561 29.5234C26.4147 29.5234 25.8854 29.684 25.4353 29.9848C24.9851 30.2855 24.6343 30.7131 24.4271 31.2132C24.2199 31.7134 24.1657 32.2638 24.2713 32.7948C24.377 33.3258 24.6376 33.8135 25.0205 34.1964C25.4033 34.5792 25.8912 34.8399 26.4221 34.9455C26.9531 35.0511 27.5034 34.9969 28.0036 34.7898C28.5038 34.5826 28.9314 34.2317 29.2322 33.7816C29.533 33.3314 29.6935 32.8022 29.6935 32.2608C29.6935 31.5348 29.405 30.8385 28.8917 30.3252C28.3783 29.8118 27.6821 29.5234 26.9561 29.5234Z" fill="#343846"/>
<path d="M33.1088 5.21433H8.99415L8.18599 2.13808C8.07495 1.53076 7.75197 0.982561 7.27456 0.591088C6.79716 0.199615 6.19631 -0.009722 5.579 0.000347018H1.66851C1.22601 0.000347018 0.801552 0.176134 0.488652 0.489034C0.175752 0.801933 0 1.22631 0 1.66882C0 2.11133 0.175752 2.53571 0.488652 2.84861C0.801552 3.16151 1.22601 3.3373 1.66851 3.3373H5.04452L9.6459 20.6999L7.84707 24.8319C7.73998 25.0866 7.69731 25.3638 7.7228 25.6389C7.74829 25.914 7.84108 26.1786 7.99314 26.4092C8.1452 26.6399 8.35183 26.8295 8.59461 26.9614C8.83739 27.0932 9.109 27.1632 9.38527 27.1652H30.3454C30.7879 27.1652 31.2124 26.9894 31.5253 26.6765C31.8382 26.3636 32.0139 25.9392 32.0139 25.4967C32.0139 25.0542 31.8382 24.6298 31.5253 24.3169C31.2124 24.004 30.7879 23.8283 30.3454 23.8283H11.8618L12.8655 21.508C12.8655 21.508 12.8655 21.4429 12.8655 21.4168H30.176C30.6077 21.4191 31.0273 21.2745 31.366 21.0069C31.7047 20.7392 31.9425 20.3644 32.04 19.9438L34.9468 7.56062C35.0135 7.28197 35.0165 6.99184 34.9554 6.71189C34.8943 6.43194 34.7709 6.16938 34.5942 5.94382C34.4175 5.71825 34.1922 5.5355 33.935 5.40919C33.6778 5.28287 33.3954 5.21626 33.1088 5.21433ZM16.9194 15.7726C16.8885 16.0675 16.7496 16.3404 16.5294 16.5388C16.3091 16.7372 16.0232 16.847 15.7268 16.847C15.4303 16.847 15.1444 16.7372 14.9242 16.5388C14.7039 16.3404 14.5649 16.0675 14.534 15.7726V10.8715C14.5165 10.7044 14.5344 10.5355 14.5864 10.3757C14.6383 10.2159 14.7233 10.0689 14.8357 9.94403C14.9482 9.81919 15.0856 9.71938 15.2391 9.65106C15.3926 9.58274 15.5587 9.54743 15.7268 9.54743C15.8948 9.54743 16.0608 9.58274 16.2143 9.65106C16.3678 9.71938 16.5052 9.81919 16.6177 9.94403C16.7301 10.0689 16.8152 10.2159 16.8672 10.3757C16.9191 10.5355 16.9368 10.7044 16.9194 10.8715V15.7726ZM22.6417 15.7726C22.6109 16.0675 22.472 16.3404 22.2517 16.5388C22.0315 16.7372 21.7456 16.847 21.4491 16.847C21.1527 16.847 20.8666 16.7372 20.6464 16.5388C20.4261 16.3404 20.2872 16.0675 20.2564 15.7726V10.8715C20.2389 10.7044 20.2568 10.5355 20.3087 10.3757C20.3607 10.2159 20.4456 10.0689 20.5581 9.94403C20.6705 9.81919 20.8079 9.71938 20.9614 9.65106C21.1149 9.58274 21.2811 9.54743 21.4491 9.54743C21.6171 9.54743 21.7832 9.58274 21.9367 9.65106C22.0902 9.71938 22.2276 9.81919 22.34 9.94403C22.4525 10.0689 22.5376 10.2159 22.5895 10.3757C22.6415 10.5355 22.6592 10.7044 22.6417 10.8715V15.7726ZM28.351 15.7726C28.3202 16.0675 28.1813 16.3404 27.961 16.5388C27.7408 16.7372 27.4549 16.847 27.1584 16.847C26.862 16.847 26.576 16.7372 26.3557 16.5388C26.1354 16.3404 25.9966 16.0675 25.9657 15.7726V10.8715C25.9482 10.7044 25.9659 10.5355 26.0179 10.3757C26.0699 10.2159 26.1549 10.0689 26.2674 9.94403C26.3798 9.81919 26.5173 9.71938 26.6708 9.65106C26.8242 9.58274 26.9904 9.54743 27.1584 9.54743C27.3265 9.54743 27.4925 9.58274 27.646 9.65106C27.7995 9.71938 27.9369 9.81919 28.0494 9.94403C28.1618 10.0689 28.2469 10.2159 28.2988 10.3757C28.3508 10.5355 28.3685 10.7044 28.351 10.8715V15.7726Z" fill="#343846"/>
</g>
</svg>
