<svg width="16" height="18" viewBox="0 0 16 18" fill="none" xmlns="http://www.w3.org/2000/svg">
<path d="M6.67061 17.4951L6.67052 17.4951L0.584002 15.8757C0.583921 15.8757 0.583841 15.8757 0.58376 15.8756C0.524931 15.8598 0.5 15.8137 0.5 15.7801V0.810929C0.5 0.653926 0.63619 0.5 0.836394 0.5H12.7856C12.9858 0.5 13.1219 0.653925 13.1219 0.810929V5.7232C13.1219 5.76403 13.0833 5.82342 13.0029 5.82342H12.9007C12.8203 5.82342 12.7816 5.76403 12.7816 5.7232V1.89976C12.7816 1.27773 12.2658 0.799537 11.6625 0.799537H5.19457C4.70154 0.799537 4.38421 1.1599 4.33106 1.54236C4.27776 1.92588 4.48708 2.36139 4.96736 2.48888C4.96742 2.48889 4.96747 2.48891 4.96752 2.48892C4.96763 2.48895 4.96774 2.48898 4.96785 2.48901L6.73914 2.96017C6.73923 2.9602 6.73931 2.96022 6.73939 2.96024C6.79822 2.97611 6.82315 3.02218 6.82315 3.05579V14.2083C6.82315 14.8304 7.33892 15.3086 7.94222 15.3086H11.6625C12.2652 15.3086 12.7816 14.831 12.7816 14.2095V10.386C12.7816 10.3452 12.8203 10.2858 12.9007 10.2858H13.0029C13.0833 10.2858 13.1219 10.3452 13.1219 10.386V15.296C13.1219 15.453 12.9858 15.607 12.7856 15.607H7.94339C7.3401 15.607 6.82432 16.0852 6.82432 16.7072V17.3997C6.82432 17.4268 6.81275 17.4532 6.78353 17.4748C6.75376 17.4968 6.71388 17.5066 6.67061 17.4951Z" fill="#ED1051" stroke="#ED1051"/>
<path d="M9.57679 8.08171L10.5759 7.01822C10.6949 7.36512 11.0308 7.60315 11.4048 7.60315H14.9963V8.50975H11.4048C11.0255 8.50975 10.685 8.75496 10.5714 9.11155L9.57679 8.08171Z" fill="#ED1051" stroke="#ED1051"/>
</svg>
