<svg width="24" height="19" viewBox="0 0 24 19" fill="none" xmlns="http://www.w3.org/2000/svg">
<mask id="path-1-inside-1_1918_16735" fill="white">
<path d="M23.2382 3.36844L16.8668 7.0799L12.4247 0.21684C12.2374 -0.07228 11.7603 -0.07228 11.573 0.21684L7.13091 7.0799L0.76184 3.36844C0.672059 3.31625 0.568415 3.29288 0.464923 3.3015C0.36143 3.31012 0.263081 3.35031 0.183174 3.41665C0.103267 3.48298 0.0456564 3.57225 0.0181319 3.67239C-0.00939258 3.77252 -0.00550309 3.8787 0.0292743 3.97655L5.00252 17.9815C5.03762 18.08 5.10235 18.1653 5.18785 18.2257C5.27334 18.286 5.37541 18.3184 5.48005 18.3184H18.5203C18.625 18.3184 18.7272 18.2861 18.8127 18.2257C18.8983 18.1654 18.9631 18.0801 18.9982 17.9815L23.9707 3.97655C24.0055 3.8787 24.0094 3.77252 23.9819 3.67239C23.9543 3.57225 23.8967 3.48298 23.8168 3.41665C23.7369 3.35031 23.6386 3.31012 23.5351 3.3015C23.4316 3.29288 23.3279 3.31625 23.2382 3.36844ZM18.1638 17.3044H5.83619L4.92594 14.7345H19.0752L18.1638 17.3044ZM19.4352 13.722H4.56482L1.44769 4.94156L7.04092 8.2C7.15356 8.2654 7.28703 8.28497 7.4137 8.25468C7.54037 8.22438 7.65054 8.14653 7.7214 8.03725L12 1.4254L16.2782 8.03725C16.3491 8.14664 16.4593 8.22455 16.5861 8.25486C16.7128 8.28516 16.8464 8.26551 16.9591 8.2L22.5523 4.94156L19.4352 13.722Z"/>
</mask>
<path d="M23.2382 3.36844L16.8668 7.0799L12.4247 0.21684C12.2374 -0.07228 11.7603 -0.07228 11.573 0.21684L7.13091 7.0799L0.76184 3.36844C0.672059 3.31625 0.568415 3.29288 0.464923 3.3015C0.36143 3.31012 0.263081 3.35031 0.183174 3.41665C0.103267 3.48298 0.0456564 3.57225 0.0181319 3.67239C-0.00939258 3.77252 -0.00550309 3.8787 0.0292743 3.97655L5.00252 17.9815C5.03762 18.08 5.10235 18.1653 5.18785 18.2257C5.27334 18.286 5.37541 18.3184 5.48005 18.3184H18.5203C18.625 18.3184 18.7272 18.2861 18.8127 18.2257C18.8983 18.1654 18.9631 18.0801 18.9982 17.9815L23.9707 3.97655C24.0055 3.8787 24.0094 3.77252 23.9819 3.67239C23.9543 3.57225 23.8967 3.48298 23.8168 3.41665C23.7369 3.35031 23.6386 3.31012 23.5351 3.3015C23.4316 3.29288 23.3279 3.31625 23.2382 3.36844ZM18.1638 17.3044H5.83619L4.92594 14.7345H19.0752L18.1638 17.3044ZM19.4352 13.722H4.56482L1.44769 4.94156L7.04092 8.2C7.15356 8.2654 7.28703 8.28497 7.4137 8.25468C7.54037 8.22438 7.65054 8.14653 7.7214 8.03725L12 1.4254L16.2782 8.03725C16.3491 8.14664 16.4593 8.22455 16.5861 8.25486C16.7128 8.28516 16.8464 8.26551 16.9591 8.2L22.5523 4.94156L19.4352 13.722Z" fill="url(#paint0_linear_1918_16735)"/>
<path d="M23.2382 3.36844L21.2278 -0.0896304L21.2248 -0.0878946L23.2382 3.36844ZM16.8668 7.0799L13.5088 9.25336L15.5825 12.4572L18.8802 10.5362L16.8668 7.0799ZM12.4247 0.21684L15.7827 -1.95662L15.782 -1.95764L12.4247 0.21684ZM11.573 0.21684L8.2157 -1.95764L8.21503 -1.95662L11.573 0.21684ZM7.13091 7.0799L5.11698 10.5359L8.41488 12.4577L10.4889 9.25336L7.13091 7.0799ZM0.76184 3.36844L2.77577 -0.0875805L2.77225 -0.0896291L0.76184 3.36844ZM0.0292743 3.97655L3.79867 2.63801L3.79832 2.63704L0.0292743 3.97655ZM5.00252 17.9815L1.23313 19.32L1.23415 19.3228L5.00252 17.9815ZM5.48005 18.3184L5.47905 22.3184H5.48005V18.3184ZM18.5203 18.3184V22.3184H18.5204L18.5203 18.3184ZM18.9982 17.9815L22.7659 19.3249L22.7677 19.3198L18.9982 17.9815ZM23.9707 3.97655L20.2017 2.63704L20.2013 2.63819L23.9707 3.97655ZM18.1638 17.3044V21.3044H20.9893L21.9338 18.6414L18.1638 17.3044ZM5.83619 17.3044L2.06571 18.6399L3.00947 21.3044H5.83619V17.3044ZM4.92594 14.7345V10.7345H-0.734336L1.15546 16.07L4.92594 14.7345ZM19.0752 14.7345L22.8452 16.0715L24.7379 10.7345H19.0752V14.7345ZM19.4352 13.722V17.722H22.2597L23.2047 15.0602L19.4352 13.722ZM4.56482 13.722L0.795315 15.0602L1.74027 17.722H4.56482V13.722ZM1.44769 4.94156L3.4612 1.4853L-5.97559 -4.01228L-2.32182 6.27977L1.44769 4.94156ZM7.04092 8.2L5.0274 11.6563L5.03257 11.6593L7.04092 8.2ZM7.7214 8.03725L11.0776 10.2135L11.0796 10.2104L7.7214 8.03725ZM12 1.4254L15.3583 -0.747589L12.0002 -5.9375L8.6418 -0.747726L12 1.4254ZM16.2782 8.03725L12.9199 10.2102L12.9212 10.2122L16.2782 8.03725ZM16.9591 8.2L18.9696 11.658L18.9726 11.6563L16.9591 8.2ZM22.5523 4.94156L26.3218 6.27977L29.9756 -4.01228L20.5388 1.4853L22.5523 4.94156ZM21.2248 -0.0878946L14.8534 3.62357L18.8802 10.5362L25.2516 6.82478L21.2248 -0.0878946ZM20.2248 4.90645L15.7827 -1.95662L9.06669 2.3903L13.5088 9.25336L20.2248 4.90645ZM15.782 -1.95764C14.8128 -3.45404 13.2455 -4 11.9989 -4C10.7522 -4 9.18489 -3.45404 8.2157 -1.95764L14.9303 2.39132C14.1484 3.5986 12.9133 4 11.9989 4C11.0844 4 9.84929 3.5986 9.06736 2.39132L15.782 -1.95764ZM8.21503 -1.95662L3.77292 4.90645L10.4889 9.25336L14.931 2.3903L8.21503 -1.95662ZM9.14484 3.62388L2.77577 -0.0875787L-1.25209 6.82446L5.11698 10.5359L9.14484 3.62388ZM2.77225 -0.0896291C1.97415 -0.553616 1.05283 -0.761331 0.132853 -0.684692L0.796992 7.28769C0.0840013 7.34709 -0.630037 7.18611 -1.24857 6.82651L2.77225 -0.0896291ZM0.132853 -0.684692C-0.787106 -0.608055 -1.66137 -0.25077 -2.3717 0.338887L2.73805 6.49441C2.18753 6.9514 1.50997 7.2283 0.796992 7.28769L0.132853 -0.684692ZM-2.3717 0.338887C-3.08203 0.928539 -3.59415 1.72209 -3.83882 2.61223L3.87508 4.73254C3.68546 5.42241 3.28857 6.03742 2.73805 6.49441L-2.3717 0.338887ZM-3.83882 2.61223C-4.08349 3.50238 -4.04892 4.4462 -3.73977 5.31606L3.79832 2.63704C4.03791 3.31119 4.06471 4.04266 3.87508 4.73254L-3.83882 2.61223ZM-3.74012 5.31509L1.23313 19.32L8.77192 16.6429L3.79867 2.63801L-3.74012 5.31509ZM1.23415 19.3228C1.54609 20.1992 2.12154 20.9575 2.88153 21.4938L7.49417 14.9575C8.08317 15.3732 8.52914 15.9609 8.7709 16.6401L1.23415 19.3228ZM2.88153 21.4938C3.64149 22.0301 4.54882 22.3182 5.47905 22.3184L5.48106 14.3184C6.202 14.3186 6.90519 14.5419 7.49417 14.9575L2.88153 21.4938ZM5.48005 22.3184H18.5203V14.3184H5.48005V22.3184ZM18.5204 22.3184C19.4505 22.3184 20.3578 22.0307 21.1178 21.4948L16.5076 14.9567C17.0965 14.5414 17.7995 14.3185 18.5202 14.3184L18.5204 22.3184ZM21.1178 21.4948C21.8779 20.9588 22.4535 20.2009 22.7659 19.3249L15.2306 16.6381C15.4726 15.9592 15.9187 15.372 16.5076 14.9567L21.1178 21.4948ZM22.7677 19.3198L27.7402 5.31491L20.2013 2.63819L15.2288 16.6431L22.7677 19.3198ZM27.7398 5.31606C28.0489 4.44619 28.0835 3.50237 27.8388 2.61223L20.1249 4.73254C19.9353 4.04267 19.9621 3.3112 20.2017 2.63704L27.7398 5.31606ZM27.8388 2.61223C27.5941 1.72209 27.082 0.928538 26.3717 0.338887L21.2619 6.49441C20.7114 6.03742 20.3145 5.42241 20.1249 4.73254L27.8388 2.61223ZM26.3717 0.338887C25.6614 -0.250772 24.7871 -0.608055 23.8671 -0.684692L23.203 7.28769C22.49 7.2283 21.8125 6.9514 21.2619 6.49441L26.3717 0.338887ZM23.8671 -0.684692C22.9472 -0.761331 22.0258 -0.553614 21.2278 -0.0896291L25.2486 6.82651C24.63 7.1861 23.916 7.34709 23.203 7.28769L23.8671 -0.684692ZM18.1638 13.3044H5.83619V21.3044H18.1638V13.3044ZM9.60666 15.9689L8.69641 13.399L1.15546 16.07L2.06571 18.6399L9.60666 15.9689ZM4.92594 18.7345H19.0752V10.7345H4.92594V18.7345ZM15.3053 13.3975L14.3939 15.9674L21.9338 18.6414L22.8452 16.0715L15.3053 13.3975ZM19.4352 9.72201H4.56482V17.722H19.4352V9.72201ZM8.33433 12.3838L5.2172 3.60335L-2.32182 6.27977L0.795315 15.0602L8.33433 12.3838ZM-0.565826 8.39783L5.02741 11.6563L9.05443 4.74374L3.4612 1.4853L-0.565826 8.39783ZM5.03257 11.6593C6.03316 12.2402 7.21884 12.4141 8.34413 12.145L6.48327 4.36439C7.35522 4.15585 8.27395 4.29061 9.04927 4.74074L5.03257 11.6593ZM8.34413 12.145C9.46943 11.8758 10.4481 11.1843 11.0776 10.2135L4.36522 5.861C4.85298 5.1088 5.61132 4.57294 6.48327 4.36439L8.34413 12.145ZM11.0796 10.2104L15.3582 3.59853L8.6418 -0.747726L4.3632 5.86413L11.0796 10.2104ZM8.64171 3.59839L12.9199 10.2102L19.6365 5.86426L15.3583 -0.747589L8.64171 3.59839ZM12.9212 10.2122C13.5507 11.1839 14.53 11.8761 15.6562 12.1453L17.516 4.36445C18.3886 4.57303 19.1474 5.10938 19.6352 5.86228L12.9212 10.2122ZM15.6562 12.1453C16.7823 12.4144 17.9687 12.2399 18.9696 11.658L14.9485 4.74201C15.7241 4.29109 16.6434 4.15588 17.516 4.36445L15.6562 12.1453ZM18.9726 11.6563L24.5658 8.39783L20.5388 1.4853L14.9456 4.74374L18.9726 11.6563ZM18.7828 3.60335L15.6657 12.3838L23.2047 15.0602L26.3218 6.27977L18.7828 3.60335Z" fill="url(#paint1_linear_1918_16735)" mask="url(#path-1-inside-1_1918_16735)"/>
<defs>
<linearGradient id="paint0_linear_1918_16735" x1="0" y1="0" x2="17.6698" y2="23.1501" gradientUnits="userSpaceOnUse">
<stop stop-color="#E32068"/>
<stop offset="1" stop-color="#F5003B"/>
</linearGradient>
<linearGradient id="paint1_linear_1918_16735" x1="0" y1="0" x2="17.6698" y2="23.1501" gradientUnits="userSpaceOnUse">
<stop stop-color="#E32068"/>
<stop offset="1" stop-color="#F5003B"/>
</linearGradient>
</defs>
</svg>
