<svg width="24" height="24" viewBox="0 0 24 24" fill="none" xmlns="http://www.w3.org/2000/svg">
<path d="M9.00114 20.2463C8.62989 20.2463 8.26693 20.3564 7.95825 20.5627C7.64956 20.7689 7.40898 21.0621 7.26691 21.4051C7.12484 21.7481 7.08766 22.1255 7.16009 22.4896C7.23252 22.8537 7.41128 23.1882 7.67379 23.4507C7.93631 23.7132 8.27074 23.892 8.63485 23.9644C8.99897 24.0369 9.37644 23.9997 9.71943 23.8576C10.0624 23.7155 10.3556 23.475 10.5619 23.1663C10.7681 22.8576 10.8782 22.4947 10.8782 22.1234C10.8782 21.6256 10.6804 21.1481 10.3284 20.7961C9.97636 20.4441 9.49898 20.2463 9.00114 20.2463ZM18.4849 20.2463C18.1136 20.2463 17.7506 20.3564 17.442 20.5627C17.1333 20.7689 16.8927 21.0621 16.7506 21.4051C16.6086 21.7481 16.5714 22.1255 16.6438 22.4896C16.7162 22.8537 16.895 23.1882 17.1575 23.4507C17.42 23.7132 17.7546 23.892 18.1187 23.9644C18.4828 24.0369 18.8602 23.9997 19.2031 23.8576C19.5461 23.7155 19.8393 23.475 20.0456 23.1663C20.2519 22.8576 20.3619 22.4947 20.3619 22.1234C20.3619 21.6256 20.1641 21.1481 19.8121 20.7961C19.4601 20.4441 18.9827 20.2463 18.4849 20.2463Z" fill="#343846"/>
<path d="M22.7038 3.57563H6.16758L5.61339 1.46615C5.53724 1.04969 5.31577 0.673773 4.9884 0.405328C4.66103 0.136882 4.249 -0.00666668 3.8257 0.000237961H1.14415C0.840711 0.000237961 0.549649 0.120781 0.335084 0.335346C0.120519 0.549911 0 0.840922 0 1.14436C0 1.4478 0.120519 1.73882 0.335084 1.95338C0.549649 2.16795 0.840711 2.28849 1.14415 2.28849H3.45919L6.6145 14.1946L5.38098 17.028C5.30755 17.2027 5.27829 17.3927 5.29577 17.5814C5.31325 17.77 5.37688 17.9515 5.48115 18.1096C5.58542 18.2678 5.72711 18.3979 5.89359 18.4883C6.06008 18.5787 6.24633 18.6267 6.43577 18.628H20.8088C21.1123 18.628 21.4033 18.5075 21.6179 18.2929C21.8324 18.0784 21.953 17.7874 21.953 17.4839C21.953 17.1805 21.8324 16.8895 21.6179 16.6749C21.4033 16.4603 21.1123 16.3398 20.8088 16.3398H8.134L8.82228 14.7487C8.82228 14.7487 8.82228 14.704 8.82228 14.6862H20.6926C20.9886 14.6877 21.2764 14.5886 21.5087 14.4051C21.7409 14.2215 21.904 13.9645 21.9709 13.6761L23.9641 5.18456C24.0099 4.99348 24.0119 4.79453 23.97 4.60256C23.9282 4.41058 23.8435 4.23054 23.7223 4.07586C23.6012 3.92119 23.4466 3.79587 23.2703 3.70925C23.0939 3.62263 22.9002 3.57696 22.7038 3.57563ZM11.6021 10.8158C11.581 11.018 11.4857 11.2051 11.3347 11.3412C11.1837 11.4772 10.9876 11.5525 10.7843 11.5525C10.5811 11.5525 10.385 11.4772 10.234 11.3412C10.0829 11.2051 9.98759 11.018 9.96643 10.8158V7.45493C9.95444 7.34035 9.96669 7.22452 10.0023 7.11495C10.038 7.00539 10.0962 6.90454 10.1733 6.81893C10.2504 6.73333 10.3447 6.66489 10.4499 6.61803C10.5552 6.57118 10.6691 6.54698 10.7843 6.54698C10.8996 6.54698 11.0134 6.57118 11.1187 6.61803C11.2239 6.66489 11.3181 6.73333 11.3953 6.81893C11.4724 6.90454 11.5307 7.00539 11.5663 7.11495C11.602 7.22452 11.6141 7.34035 11.6021 7.45493V10.8158ZM15.5261 10.8158C15.505 11.018 15.4097 11.2051 15.2587 11.3412C15.1077 11.4772 14.9116 11.5525 14.7083 11.5525C14.5051 11.5525 14.3089 11.4772 14.1579 11.3412C14.0068 11.2051 13.9116 11.018 13.8904 10.8158V7.45493C13.8784 7.34035 13.8907 7.22452 13.9263 7.11495C13.962 7.00539 14.0202 6.90454 14.0973 6.81893C14.1744 6.73333 14.2687 6.66489 14.3739 6.61803C14.4792 6.57118 14.5931 6.54698 14.7083 6.54698C14.8236 6.54698 14.9374 6.57118 15.0427 6.61803C15.1479 6.66489 15.2422 6.73333 15.3193 6.81893C15.3964 6.90454 15.4547 7.00539 15.4904 7.11495C15.526 7.22452 15.5381 7.34035 15.5261 7.45493V10.8158ZM19.4412 10.8158C19.42 11.018 19.3248 11.2051 19.1738 11.3412C19.0227 11.4772 18.8267 11.5525 18.6234 11.5525C18.4201 11.5525 18.224 11.4772 18.0729 11.3412C17.9219 11.2051 17.8267 11.018 17.8055 10.8158V7.45493C17.7935 7.34035 17.8057 7.22452 17.8413 7.11495C17.8769 7.00539 17.9353 6.90454 18.0124 6.81893C18.0895 6.73333 18.1837 6.66489 18.289 6.61803C18.3942 6.57118 18.5082 6.54698 18.6234 6.54698C18.7386 6.54698 18.8525 6.57118 18.9577 6.61803C19.063 6.66489 19.1572 6.73333 19.2343 6.81893C19.3114 6.90454 19.3698 7.00539 19.4054 7.11495C19.441 7.22452 19.4532 7.34035 19.4412 7.45493V10.8158Z" fill="#343846"/>
</svg>
