<svg width="15" height="18" viewBox="0 0 15 18" fill="none" xmlns="http://www.w3.org/2000/svg">
<path d="M9.81818 4.67391V14.7773L6.37364 13.3674L5.72727 13.1025L5.08091 13.3674L1.63636 14.7773V4.67391H9.81818ZM13.0909 0H4.90091C4.00091 0 3.27273 0.701086 3.27273 1.55797H11.4545C12.3545 1.55797 13.0909 2.25906 13.0909 3.11594V13.2427L14.7273 14.0217V1.55797C14.7273 0.701086 13.9909 0 13.0909 0ZM9.81818 3.11594H1.63636C0.736364 3.11594 0 3.81703 0 4.67391V17.1377L5.72727 14.8007L11.4545 17.1377V4.67391C11.4545 3.81703 10.7182 3.11594 9.81818 3.11594Z" fill="url(#paint0_linear_1935_25903)"/>
<defs>
<linearGradient id="paint0_linear_1935_25903" x1="0" y1="0" x2="16.9427" y2="14.5597" gradientUnits="userSpaceOnUse">
<stop stop-color="#E32068"/>
<stop offset="1" stop-color="#F5003B"/>
</linearGradient>
</defs>
</svg>
