<svg width="208" height="76" viewBox="0 0 208 76" fill="none" xmlns="http://www.w3.org/2000/svg">
<path d="M14.3968 11.1656C14.3422 10.8845 14.2088 10.6247 14.0123 10.4163C13.8158 10.208 13.5642 10.0597 13.2868 9.98867C13.0093 9.91765 12.7174 9.92683 12.445 10.0151C12.1726 10.1034 11.9308 10.2673 11.7477 10.4875C11.5647 10.7078 11.448 10.9755 11.4111 11.2595C11.3741 11.5435 11.4186 11.8322 11.5392 12.0919C11.6599 12.3517 11.8518 12.5718 12.0926 12.7268C12.3334 12.8818 12.6132 12.9653 12.8996 12.9676C13.094 12.9665 13.2864 12.9287 13.4667 12.8563C13.7052 12.7601 13.9155 12.6052 14.0781 12.406C14.2407 12.2068 14.3503 11.9697 14.3968 11.7168C14.4175 11.63 14.4282 11.5411 14.4286 11.4518C14.4295 11.3555 14.4188 11.2594 14.3968 11.1656Z" fill="white"/>
<path d="M5.92466 31.1285C6.05839 31.1328 6.18857 31.0849 6.28753 30.9949C6.38649 30.9048 6.44644 30.7797 6.45465 30.6462V11.8315L12.9126 1.48351L19.3705 11.8315V30.6462C19.3866 30.7786 19.4505 30.9005 19.5504 30.989C19.6502 31.0775 19.779 31.1263 19.9124 31.1263C20.0458 31.1263 20.1746 31.0775 20.2744 30.989C20.3742 30.9005 20.4382 30.7786 20.4543 30.6462V11.6938C20.4539 11.6102 20.43 11.5285 20.3854 11.4579L13.4055 0.245982C13.3519 0.169978 13.2808 0.107965 13.1983 0.0651569C13.1157 0.0223489 13.0241 0 12.9311 0C12.8381 0 12.7465 0.0223489 12.664 0.0651569C12.5814 0.107965 12.5103 0.169978 12.4568 0.245982L5.45562 11.4632C5.41098 11.5338 5.38711 11.6155 5.38672 11.699V30.6462C5.39493 30.7812 5.45599 30.9075 5.55668 30.9977C5.65737 31.088 5.78958 31.135 5.92466 31.1285Z" fill="white"/>
<path d="M12.9265 31.1307C13.0604 31.1358 13.1909 31.0881 13.29 30.9979C13.3892 30.9078 13.4489 30.7823 13.4565 30.6485V12.8594C13.2761 12.9318 13.0837 12.9696 12.8894 12.9707C12.7084 12.9708 12.5289 12.9385 12.3594 12.8753V30.6485C12.3633 30.718 12.3813 30.7859 12.4123 30.8483C12.4433 30.9106 12.4866 30.966 12.5396 31.0111C12.5926 31.0562 12.6542 31.0901 12.7208 31.1106C12.7873 31.1312 12.8572 31.138 12.9265 31.1307Z" fill="white"/>
<path d="M12.9265 50.2128C12.7927 50.2084 12.6626 50.2563 12.5636 50.3463C12.4646 50.4364 12.4047 50.5615 12.3965 50.6951V67.6998C12.4126 67.8322 12.4765 67.9541 12.5764 68.0426C12.6762 68.131 12.805 68.1799 12.9384 68.1799C13.0718 68.1799 13.2006 68.131 13.3004 68.0426C13.4002 67.9541 13.4642 67.8322 13.4803 67.6998V50.6951C13.4767 50.6267 13.4593 50.5597 13.4293 50.4981C13.3992 50.4366 13.3571 50.3817 13.3055 50.3367C13.2538 50.2917 13.1937 50.2575 13.1285 50.2363C13.0634 50.215 12.9947 50.207 12.9265 50.2128Z" fill="white"/>
<path d="M8.25265 50.2125C8.11873 50.2075 7.98818 50.2552 7.88906 50.3454C7.78995 50.4355 7.7302 50.561 7.72266 50.6948V63.2662C7.73872 63.3986 7.80272 63.5206 7.90256 63.609C8.0024 63.6975 8.13118 63.7463 8.26457 63.7463C8.39796 63.7463 8.52674 63.6975 8.62658 63.609C8.72642 63.5206 8.79042 63.3986 8.80648 63.2662V50.6948C8.80247 50.6266 8.78487 50.5598 8.75472 50.4984C8.72457 50.437 8.68247 50.3822 8.63089 50.3373C8.57931 50.2924 8.51929 50.2582 8.45434 50.2368C8.38939 50.2154 8.32082 50.2071 8.25265 50.2125Z" fill="white"/>
<path d="M17.7605 50.2123C17.6265 50.2073 17.496 50.255 17.3969 50.3451C17.2978 50.4353 17.238 50.5608 17.2305 50.6946V63.266C17.2438 63.4001 17.3065 63.5245 17.4064 63.615C17.5063 63.7055 17.6363 63.7556 17.7711 63.7556C17.9059 63.7556 18.0358 63.7055 18.1357 63.615C18.2357 63.5245 18.2983 63.4001 18.3116 63.266V50.6946C18.3076 50.6266 18.2901 50.56 18.2601 50.4988C18.2301 50.4376 18.1883 50.383 18.137 50.3381C18.0857 50.2933 18.026 50.259 17.9614 50.2374C17.8967 50.2158 17.8284 50.2073 17.7605 50.2123Z" fill="white"/>
<path d="M25.466 48.9818H24.3424V31.6141C24.3385 31.5147 24.3041 31.4189 24.2439 31.3398C24.1836 31.2606 24.1006 31.2019 24.0059 31.1715C23.9098 31.1324 23.805 31.1199 23.7024 31.1353C23.5998 31.1507 23.5032 31.1934 23.4229 31.259L12.9158 39.8819L2.4194 31.259C2.33903 31.1934 2.24248 31.1507 2.1399 31.1353C2.03732 31.1199 1.93249 31.1324 1.83641 31.1715C1.74348 31.2033 1.66248 31.2627 1.60423 31.3418C1.54599 31.4209 1.51327 31.5159 1.51047 31.6141V48.9818H0.347143C0.156347 48.9818 0 49.1991 0 49.4641C0 49.7291 0.156347 49.9464 0.347143 49.9464H2.12791C2.17625 49.946 2.22369 49.9332 2.2657 49.9093C2.35892 49.8776 2.44029 49.8183 2.49899 49.7393C2.55768 49.6602 2.59093 49.5652 2.5943 49.4668V32.7138L12.5581 40.8942C12.6621 40.9779 12.7916 41.0235 12.9251 41.0235C13.0586 41.0235 13.1881 40.9779 13.2921 40.8942L23.2586 32.7138V49.4668C23.2591 49.5444 23.2793 49.6206 23.3173 49.6883C23.3553 49.7559 23.4099 49.8128 23.4759 49.8537C23.5017 49.8853 23.534 49.9111 23.5705 49.9294C23.607 49.9477 23.647 49.958 23.6879 49.9597H25.4686C25.6621 49.9597 25.8158 49.745 25.8158 49.4774C25.8158 49.2097 25.6594 48.9818 25.466 48.9818Z" fill="white"/>
<path d="M111.775 38.7734C110.026 38.7734 108.762 39.3246 107.964 40.4297L108.794 41.1478C109.417 40.2362 110.407 39.7795 111.762 39.7778C113.781 39.7778 114.798 40.6602 114.798 42.4277V43.6361H111.316C110.212 43.6361 109.329 43.8755 108.666 44.3542C107.924 44.8842 107.551 45.6792 107.551 46.7392C107.551 48.7991 108.868 49.829 111.502 49.829C112.885 49.829 113.977 49.4236 114.785 48.6206V49.6939H115.959V42.3005C115.959 39.9491 114.564 38.7734 111.775 38.7734ZM114.798 45.9283C114.798 46.9088 114.597 47.5978 114.197 47.9873C113.635 48.5358 112.742 48.8167 111.526 48.8167C109.671 48.8167 108.73 48.1118 108.73 46.7127C108.73 45.2658 109.642 44.5371 111.462 44.5371H114.798V45.9283Z" fill="white"/>
<path d="M126.558 39.7831C127.606 39.7831 128.53 40.2397 129.33 41.1531L130.109 40.435C129.674 39.916 129.131 39.4985 128.517 39.2115C127.904 38.9245 127.235 38.775 126.558 38.7734C124.989 38.7734 123.786 39.3176 122.949 40.4058C122.189 41.3916 121.808 42.6909 121.807 44.3039C121.805 45.9168 122.186 47.2162 122.949 48.2019C123.784 49.2884 124.987 49.8325 126.558 49.8343C127.236 49.8344 127.906 49.6859 128.52 49.3993C129.135 49.1127 129.679 48.695 130.114 48.1754L129.335 47.46C128.533 48.3715 127.609 48.8273 126.563 48.8273C124.171 48.8273 122.974 47.3195 122.97 44.3039C122.966 41.2882 124.162 39.7813 126.558 39.7831Z" fill="white"/>
<path d="M139.025 38.7734C137.28 38.7734 136.011 39.3255 135.22 40.4297L136.047 41.1478C136.667 40.238 137.655 39.7831 139.012 39.7831C141.033 39.7831 142.045 40.6664 142.046 42.433V43.6414H138.572C137.465 43.6414 136.587 43.8799 135.922 44.3595C135.178 44.8895 134.807 45.6845 134.807 46.7445C134.807 48.8044 136.124 49.8343 138.758 49.8343C140.138 49.8343 141.235 49.4289 142.038 48.6259V49.6992H143.204V42.3058C143.211 39.9509 141.818 38.7734 139.025 38.7734ZM142.049 45.9283C142.049 46.9088 141.848 47.5978 141.45 47.9873C140.888 48.5358 139.998 48.8167 138.782 48.8167C136.927 48.8167 135.981 48.1118 135.981 46.7127C135.981 45.2658 136.892 44.5371 138.715 44.5371H142.049V45.9283Z" fill="white"/>
<path d="M156.293 40.294C155.535 39.2817 154.47 38.7747 153.099 38.7729C150.419 38.7729 149.08 40.6164 149.082 44.3033C149.084 47.9903 150.423 49.8338 153.099 49.8338C154.47 49.8338 155.535 49.3259 156.293 48.3101V49.6986H157.456V33.7539H156.293V40.294ZM153.272 48.8268C151.256 48.8268 150.247 47.319 150.245 44.3033C150.245 42.9607 150.416 41.9378 150.757 41.2347C151.232 40.2666 152.07 39.7825 153.272 39.7825C154.473 39.7825 155.31 40.2684 155.784 41.24C156.123 41.9467 156.293 42.9695 156.293 44.3086C156.293 47.319 155.286 48.825 153.272 48.8268Z" fill="white"/>
<path d="M167.709 38.7734C166.22 38.7734 165.101 39.3467 164.352 40.4933C163.712 41.4667 163.393 42.7369 163.393 44.3039C163.393 47.9908 164.922 49.8343 167.982 49.8343C168.71 49.8377 169.43 49.6924 170.099 49.4071C170.768 49.1218 171.371 48.7027 171.872 48.1754L171.022 47.5077C170.646 47.9216 170.189 48.2531 169.678 48.4812C169.168 48.7092 168.616 48.8289 168.056 48.8326C165.716 48.8326 164.546 47.4061 164.548 44.553H172.029V44.023C172.029 42.5152 171.695 41.2909 171.019 40.3528C170.282 39.2981 169.172 38.7734 167.709 38.7734ZM164.553 43.6308C164.559 42.924 164.688 42.2236 164.935 41.5612C165.15 41.0184 165.539 40.562 166.04 40.2627C166.542 39.9422 167.127 39.7738 167.723 39.7778C168.324 39.7716 168.913 39.944 169.416 40.2733C170.342 40.8704 170.834 41.9896 170.892 43.6308H164.553Z" fill="white"/>
<path d="M189.465 38.7723C187.848 38.7723 186.632 39.4295 185.797 40.7386C185.128 39.4295 183.972 38.7741 182.329 38.7723C181.724 38.7496 181.122 38.8648 180.568 39.109C180.015 39.3533 179.524 39.7202 179.133 40.1821V38.9022H177.967V49.6981H179.13V43.0016C179.13 42.0026 179.395 41.2156 179.907 40.6405C180.418 40.0655 181.176 39.7767 182.151 39.7767C184.131 39.7802 185.122 40.8552 185.122 43.0016V49.6981H186.285V42.8082C186.264 42.403 186.327 41.9979 186.47 41.6182C186.613 41.2384 186.832 40.8921 187.114 40.6008C187.41 40.3224 187.758 40.1064 188.139 39.9657C188.519 39.825 188.924 39.7625 189.33 39.782C191.315 39.782 192.308 40.857 192.308 43.007V49.7034H193.429V42.8135C193.429 41.5769 193.076 40.5946 192.369 39.8668C191.667 39.1327 190.687 38.7723 189.465 38.7723Z" fill="white"/>
<path d="M205.75 38.9023L202.509 48.3547L199.274 38.9023H198.01L201.961 49.7247L201.092 52.1097C200.959 52.5513 200.714 52.9511 200.381 53.2704C200.001 53.5069 199.556 53.6155 199.109 53.5804H198.68V54.5874H199.21C199.953 54.6266 200.683 54.378 201.248 53.8931C201.593 53.543 201.846 53.1134 201.985 52.6423L207.001 38.9103L205.75 38.9023Z" fill="white"/>
<path d="M44.6338 30.6875C41.7189 30.6875 39.5989 31.607 38.274 33.4408L41.2525 35.7065C41.8434 34.7366 43.0359 34.257 44.8167 34.257C46.2079 34.257 47.2016 34.4398 47.7979 34.787C48.3941 35.1341 48.6856 35.7727 48.6856 36.6658V38.6373H43.4493C41.5122 38.6373 39.9885 39.1912 38.8729 40.3095C38.3565 40.8166 37.951 41.4254 37.6819 42.0972C37.4128 42.7691 37.2859 43.4894 37.3094 44.2128C37.3094 45.9035 37.8959 47.2673 39.069 48.3043C40.2932 49.4191 41.9397 49.9782 44.0085 49.9818C46.3563 49.9818 47.9162 49.3493 48.6883 48.0844V49.7565H52.4803V36.891C52.4803 32.7571 49.8648 30.6893 44.6338 30.6875ZM48.6883 43.1422C48.6883 44.6315 48.3067 45.5881 47.5355 46.0068C47.0674 46.2754 46.0392 46.4096 44.451 46.4096C42.0713 46.4096 40.8815 45.6146 40.8815 44.0247C40.8815 42.5089 41.9733 41.7563 44.1516 41.7563H48.6883V43.1422Z" fill="white"/>
<path d="M64.046 23.2891H60.2539V27.0811H64.046V23.2891Z" fill="white"/>
<path d="M64.046 30.9102H60.2539V49.7645H64.046V30.9102Z" fill="white"/>
<path d="M92.1091 30.6876C89.6199 30.6876 87.6289 31.5056 86.1361 33.1415C84.5461 31.5038 82.7671 30.6859 80.7991 30.6876C78.7109 30.6876 77.0706 31.4314 75.8781 32.9189V30.9102H72.0781V49.7646H75.8728V38.5315C75.8728 37.2701 76.22 36.2817 76.9143 35.5582C77.267 35.2003 77.6905 34.92 78.1577 34.7352C78.625 34.5503 79.1257 34.4651 79.6278 34.485C80.1241 34.4677 80.6185 34.5543 81.0793 34.7391C81.5402 34.9239 81.9574 35.2029 82.3043 35.5582C82.9986 36.2817 83.3457 37.2701 83.3457 38.5315V49.7646H87.1351V38.5315C87.1351 37.2701 87.4849 36.2817 88.1765 35.5582C88.5298 35.1996 88.9542 34.9189 89.4225 34.7341C89.8907 34.5492 90.3924 34.4644 90.8954 34.485C91.3925 34.4681 91.8876 34.5552 92.349 34.741C92.8104 34.9267 93.2278 35.2069 93.5745 35.5635C94.2688 36.287 94.6106 37.2754 94.6106 38.5368V49.7699H98.4053V37.2356C98.4053 35.2252 97.7199 33.6017 96.349 32.365C95.2059 31.2784 93.6862 30.6771 92.1091 30.6876Z" fill="white"/>
<path d="M206.653 57.2852H36.9531V58.2603H206.653V57.2852Z" fill="white"/>
<path d="M44.2768 70.2862C44.2903 70.124 44.2903 70.0159 44.2903 69.9213C44.2903 67.8671 43.101 66.2183 41.0333 66.2183C39.0872 66.2183 37.6816 67.84 37.6816 69.8672C37.6816 72.0431 39.2629 73.5162 41.1684 73.5162C42.5064 73.5162 43.3443 73.0026 44.0471 72.2053L43.3984 71.6241C42.8172 72.2188 42.1685 72.6107 41.1955 72.6107C39.9656 72.6107 38.8845 71.7593 38.7358 70.2862H44.2768ZM38.7358 69.4483C38.8845 68.0968 39.817 67.0967 41.0063 67.0967C42.3713 67.0967 43.1281 68.1914 43.2362 69.4483H38.7358Z" fill="white"/>
<path d="M46.2067 73.354H47.2473V63.4883H46.2067V73.354Z" fill="white"/>
<path d="M55.8251 70.2862C55.8386 70.124 55.8386 70.0159 55.8386 69.9213C55.8386 67.8671 54.6493 66.2183 52.5815 66.2183C50.6354 66.2183 49.2299 67.84 49.2299 69.8672C49.2299 72.0431 50.8111 73.5162 52.7167 73.5162C54.0546 73.5162 54.8925 73.0026 55.5953 72.2053L54.9466 71.6241C54.3655 72.2188 53.7168 72.6107 52.7437 72.6107C51.5139 72.6107 50.4327 71.7593 50.284 70.2862H55.8251ZM50.284 69.4483C50.4327 68.0968 51.3652 67.0967 52.5545 67.0967C53.9195 67.0967 54.6763 68.1914 54.7844 69.4483H50.284Z" fill="white"/>
<path d="M59.7416 73.5027C60.9714 73.5027 61.7688 72.9486 62.2553 72.3134V73.354H63.2824V69.0834C63.2824 68.2049 63.0392 67.5157 62.5526 67.0291C62.0391 66.5156 61.2823 66.2588 60.2957 66.2588C59.2686 66.2588 58.5253 66.4886 57.7549 66.8534L58.0658 67.7049C58.7145 67.394 59.3632 67.2048 60.1876 67.2048C61.4985 67.2048 62.2553 67.8535 62.2553 69.0969V69.3131C61.6201 69.1374 61.0255 69.0158 60.12 69.0158C58.3496 69.0158 57.1332 69.7997 57.1332 71.2998V71.3268C57.1332 72.7729 58.4307 73.5027 59.7416 73.5027ZM59.9443 72.6648C59.0118 72.6648 58.1874 72.1512 58.1874 71.2728V71.2457C58.1874 70.3943 58.9307 69.8402 60.2281 69.8402C61.0931 69.8402 61.7418 69.9889 62.2688 70.1375V70.7862C62.2688 71.908 61.2282 72.6648 59.9443 72.6648Z" fill="white"/>
<path d="M65.4867 73.354H66.5273V70.57C66.5273 68.4617 67.7707 67.367 69.2979 67.367H69.379V66.2453C68.0545 66.2047 67.0409 67.0291 66.5273 68.1914V66.3669H65.4867V73.354Z" fill="white"/>
<path d="M70.9639 73.354H72.0045V69.3537C72.0045 68.0427 72.8965 67.1643 74.0993 67.1643C75.3426 67.1643 76.0319 67.9752 76.0319 69.2726V73.354H77.0725V69.0158C77.0725 67.3535 76.0724 66.2183 74.3966 66.2183C73.1938 66.2183 72.4775 66.8264 72.0045 67.5832V66.3669H70.9639V73.354Z" fill="white"/>
<path d="M79.3188 64.8398H80.5081V63.691H79.3188V64.8398ZM79.3864 73.354H80.427V66.3669H79.3864V73.354Z" fill="white"/>
<path d="M82.842 73.354H83.8827V69.3537C83.8827 68.0427 84.7747 67.1643 85.9775 67.1643C87.2208 67.1643 87.9101 67.9752 87.9101 69.2726V73.354H88.9507V69.0158C88.9507 67.3535 87.9506 66.2183 86.2748 66.2183C85.072 66.2183 84.3557 66.8264 83.8827 67.5832V66.3669H82.842V73.354Z" fill="white"/>
<path d="M94.2648 75.5434C95.3866 75.5434 96.292 75.2461 96.9272 74.6109C97.5084 74.0298 97.8192 73.2189 97.8192 72.1377V66.3669H96.7786V67.6238C96.1974 66.867 95.3595 66.2183 94.0486 66.2183C92.3728 66.2183 90.7645 67.4751 90.7645 69.5158V69.5429C90.7645 71.5431 92.3728 72.8134 94.0486 72.8134C95.3325 72.8134 96.1839 72.1512 96.7921 71.3403V72.1647C96.7921 73.8 95.8055 74.6514 94.2513 74.6514C93.2377 74.6514 92.3728 74.3406 91.5619 73.7595L91.0889 74.5704C92.0214 75.2191 93.0891 75.5434 94.2648 75.5434ZM94.2513 71.8944C92.9539 71.8944 91.8322 70.9214 91.8322 69.5158V69.4888C91.8322 68.0563 92.9134 67.1373 94.2513 67.1373C95.5758 67.1373 96.8191 68.0698 96.8191 69.5023V69.5294C96.8191 70.9349 95.5758 71.8944 94.2513 71.8944Z" fill="white"/>
</svg>
