<svg width="23" height="18" viewBox="0 0 23 18" fill="none" xmlns="http://www.w3.org/2000/svg">
<path d="M22.5 6.75V2.25C22.5 1.00125 21.4875 0 20.25 0H2.25C1.0125 0 0.01125 1.00125 0.01125 2.25V6.75C1.24875 6.75 2.25 7.7625 2.25 9C2.25 10.2375 1.24875 11.25 0 11.25V15.75C0 16.9875 1.0125 18 2.25 18H20.25C21.4875 18 22.5 16.9875 22.5 15.75V11.25C21.2625 11.25 20.25 10.2375 20.25 9C20.25 7.7625 21.2625 6.75 22.5 6.75ZM20.25 5.1075C18.9112 5.88375 18 7.34625 18 9C18 10.6538 18.9112 12.1162 20.25 12.8925V15.75H2.25V12.8925C3.58875 12.1162 4.5 10.6538 4.5 9C4.5 7.335 3.6 5.88375 2.26125 5.1075L2.25 2.25H20.25V5.1075ZM10.125 12.375H12.375V14.625H10.125V12.375ZM10.125 7.875H12.375V10.125H10.125V7.875ZM10.125 3.375H12.375V5.625H10.125V3.375Z" fill="white"/>
</svg>
