<svg width="15" height="18" viewBox="0 0 15 18" fill="none" xmlns="http://www.w3.org/2000/svg">
<path d="M5.9 2.08285V0.714844H8.5V2.08285V2.48249L8.88981 2.57056C9.93259 2.80615 10.7195 3.34705 11.254 4.15099C11.7946 4.96405 12.1 6.08216 12.1 7.49835V12.2112V12.527L12.3851 12.6627L13.9 13.3838V14.2819H0.5V13.3838L2.01491 12.6627L2.3 12.527V12.2112V7.49835C2.3 6.08307 2.60538 4.96514 3.14598 4.15193C3.68054 3.34781 4.46757 2.8065 5.51036 2.57052L5.9 2.48234V2.08285ZM3.99284 4.36365L3.98133 4.37844L3.97097 4.39405C3.35502 5.32163 3.05009 6.40899 3.1 7.50997V13.0681V13.5681H3.6H10.8H11.3V13.0681V7.50996C11.3499 6.409 11.0449 5.32167 10.429 4.39407L10.4187 4.37845L10.4072 4.36365C9.65322 3.39438 8.44606 2.86056 7.2 2.92733C5.95394 2.86056 4.74678 3.39438 3.99284 4.36365ZM7.2 16.8525C6.66002 16.8525 6.217 16.5521 6.01615 16.1387H8.38385C8.183 16.5521 7.73998 16.8525 7.2 16.8525Z" fill="#343846" stroke="#ED1051"/>
</svg>
