<svg width="16" height="16" viewBox="0 0 16 16" fill="none" xmlns="http://www.w3.org/2000/svg">
<path d="M0 3.19679C0 3.74908 0.447715 4.19679 1 4.19679H3C3.55228 4.19679 4 3.74908 4 3.19679V1.38843C4 0.836143 3.55228 0.388428 3 0.388428H1C0.447715 0.388428 0 0.836143 0 1.38843V3.19679ZM6 14.6219C6 15.1742 6.44772 15.6219 7 15.6219H9C9.55228 15.6219 10 15.1742 10 14.6219V12.8135C10 12.2612 9.55228 11.8135 9 11.8135H7C6.44772 11.8135 6 12.2612 6 12.8135V14.6219ZM0 14.6219C0 15.1742 0.447715 15.6219 1 15.6219H3C3.55228 15.6219 4 15.1742 4 14.6219V12.8135C4 12.2612 3.55228 11.8135 3 11.8135H1C0.447715 11.8135 0 12.2612 0 12.8135V14.6219ZM0 8.90934C0 9.46162 0.447715 9.90934 1 9.90934H3C3.55228 9.90934 4 9.46162 4 8.90934V7.10097C4 6.54869 3.55228 6.10098 3 6.10098H1C0.447715 6.10098 0 6.54869 0 7.10098V8.90934ZM6 8.90934C6 9.46162 6.44772 9.90934 7 9.90934H9C9.55228 9.90934 10 9.46162 10 8.90934V7.10097C10 6.54869 9.55228 6.10098 9 6.10098H7C6.44772 6.10098 6 6.54869 6 7.10098V8.90934ZM13 0.388428C12.4477 0.388428 12 0.836143 12 1.38843V3.19679C12 3.74908 12.4477 4.19679 13 4.19679H15C15.5523 4.19679 16 3.74908 16 3.19679V1.38843C16 0.836143 15.5523 0.388428 15 0.388428H13ZM6 3.19679C6 3.74908 6.44772 4.19679 7 4.19679H9C9.55228 4.19679 10 3.74908 10 3.19679V1.38843C10 0.836143 9.55228 0.388428 9 0.388428H7C6.44772 0.388428 6 0.836143 6 1.38843V3.19679ZM12 8.90934C12 9.46162 12.4477 9.90934 13 9.90934H15C15.5523 9.90934 16 9.46162 16 8.90934V7.10097C16 6.54869 15.5523 6.10098 15 6.10098H13C12.4477 6.10098 12 6.54869 12 7.10098V8.90934ZM12 14.6219C12 15.1742 12.4477 15.6219 13 15.6219H15C15.5523 15.6219 16 15.1742 16 14.6219V12.8135C16 12.2612 15.5523 11.8135 15 11.8135H13C12.4477 11.8135 12 12.2612 12 12.8135V14.6219Z" fill="#ED1051"/>
</svg>
