<svg width="19" height="16" viewBox="0 0 19 16" fill="none" xmlns="http://www.w3.org/2000/svg">
<path d="M15.9885 0.717608C18.7717 3.85298 18.7716 8.59085 15.9881 11.7261L15.3116 11.0496C16.4748 9.71638 17.1213 8.00255 17.1213 6.22206C17.1213 4.44156 16.4748 2.72774 15.3116 1.39449L15.9885 0.717608ZM13.2126 8.951L12.5318 8.26929C13.434 7.05768 13.434 5.38627 12.5317 4.1747L13.2135 3.49142C14.4823 5.08527 14.482 7.3575 13.2126 8.951ZM5.86618 2.78897L5.86567 2.78897C4.52428 2.79033 3.43224 3.86793 3.41302 5.20918C3.3938 6.55043 4.45451 7.65888 5.79531 7.69867C7.01035 7.73474 8.04784 6.88111 8.27669 5.72343H8.32157V5.33236V5.24436C8.32157 3.88829 7.22225 2.78897 5.86618 2.78897ZM1.48342 15.5H0.522986C0.775163 12.7708 3.07112 10.6338 5.86618 10.6338C8.66124 10.6338 10.9572 12.7708 11.2094 15.5H10.2489C10.0006 13.2994 8.13313 11.5892 5.86618 11.5892C3.59923 11.5892 1.73171 13.2994 1.48342 15.5ZM5.86618 8.65515C3.98245 8.65515 2.45539 7.12809 2.45539 5.24436C2.45539 3.36064 3.98245 1.83358 5.86618 1.83358C7.7499 1.83358 9.27696 3.36064 9.27696 5.24436C9.27696 6.14896 8.91761 7.01651 8.27797 7.65615C7.63832 8.2958 6.77077 8.65515 5.86618 8.65515Z" fill="#343846" stroke="#ED1051"/>
</svg>
