<svg width="16" height="17" viewBox="0 0 16 17" fill="none" xmlns="http://www.w3.org/2000/svg">
<path d="M14.7222 1.78964V1.28964H14.2222H1.77778H1.27778V1.78964V14.3035V14.8035H1.77778H14.2222H14.7222V14.3035V1.78964ZM1.77778 0.501953H14.2222C14.9212 0.501953 15.5 1.07993 15.5 1.78964V14.3035C15.5 15.0132 14.9212 15.5912 14.2222 15.5912H1.77778C1.07876 15.5912 0.5 15.0132 0.5 14.3035V1.78964C0.5 1.07993 1.07876 0.501953 1.77778 0.501953Z" fill="#343846" stroke="#ED1051"/>
<path d="M9.27789 12.0156H4.05566V11.2279H9.27789V12.0156ZM11.9446 8.44022H4.05566V7.65253H11.9446V8.44022ZM11.9446 4.86484H4.05566V4.07715H11.9446V4.86484Z" fill="#343846" stroke="#ED1051"/>
</svg>
