<svg width="16" height="18" viewBox="0 0 16 18" fill="none" xmlns="http://www.w3.org/2000/svg">
<path d="M4.23684 5.09586C4.23684 6.8893 5.75657 8.30181 7.57895 8.30181C9.40133 8.30181 10.9211 6.8893 10.9211 5.09586C10.9211 3.30241 9.40133 1.88991 7.57895 1.88991C5.75657 1.88991 4.23684 3.30241 4.23684 5.09586ZM3.34211 5.09586C3.34211 2.90409 5.21559 1.08594 7.57895 1.08594C9.9423 1.08594 11.8158 2.90409 11.8158 5.09586C11.8158 7.28763 9.9423 9.10578 7.57895 9.10578C5.21559 9.10578 3.34211 7.28763 3.34211 5.09586ZM1.39474 17.2236H0.519633C0.644772 15.6329 1.36449 14.126 2.5646 12.9834C3.89048 11.721 5.69379 11.0078 7.57895 11.0078C9.4641 11.0078 11.2674 11.721 12.5933 12.9834C13.7934 14.126 14.5131 15.6329 14.6383 17.2236H13.7632C13.7627 17.2236 13.7631 17.2237 13.763 17.2236C13.7625 17.2234 13.7597 17.2222 13.7558 17.2183C13.7469 17.2097 13.7384 17.1946 13.7366 17.176C13.6029 15.8015 12.9697 14.5122 11.9431 13.5347C10.7816 12.4289 9.2114 11.8117 7.57895 11.8117C5.9465 11.8117 4.37627 12.4289 3.21483 13.5347C2.18818 14.5122 1.555 15.8015 1.42131 17.176C1.41949 17.1946 1.41098 17.2097 1.40213 17.2183C1.39815 17.2222 1.39542 17.2234 1.39491 17.2236C1.39483 17.2237 1.39524 17.2236 1.39474 17.2236Z" fill="#343846" stroke="#ED1051"/>
</svg>
