<svg width="24" height="16" viewBox="0 0 24 16" fill="none" xmlns="http://www.w3.org/2000/svg">
<path d="M20 14C21.1 14 21.99 13.1 21.99 12L22 2C22 0.89 21.1 0 20 0H4C2.89 0 2 0.89 2 2V12C2 13.1 2.89 14 4 14H0.25C0.111929 14 0 14.1119 0 14.25V15.75C0 15.8881 0.111929 16 0.25 16H23.75C23.8881 16 24 15.8881 24 15.75V14.25C24 14.1119 23.8881 14 23.75 14H20ZM4.24984 12.0002C4.11183 12.0001 4 11.8882 4 11.7502V2.25C4 2.11193 4.11193 2 4.25 2H19.75C19.8881 2 20 2.11193 20 2.25V11.7598C20 11.898 19.888 12.0099 19.7498 12.0098L4.24984 12.0002ZM13 4.91231C13 5.0371 12.9065 5.1426 12.7834 5.16264C9.57696 5.68447 8.01629 7.68547 7.29198 9.90063C7.20868 10.1554 7.55278 10.3278 7.7437 10.1397C8.9876 8.91371 10.569 8.32372 12.7499 8.28234C12.888 8.27973 13 8.39193 13 8.53V9.894C13 10.1127 13.261 10.226 13.4207 10.0766L16.8044 6.91286C16.9102 6.81396 16.9101 6.64616 16.8042 6.5474L13.4205 3.39211C13.2607 3.24307 13 3.35641 13 3.57495V4.91231Z" fill="#ED1051"/>
</svg>
