<svg width="15" height="19" viewBox="0 0 15 19" fill="none" xmlns="http://www.w3.org/2000/svg">
<path d="M11.449 19.0005H2.96634C1.92851 19.0005 1.08995 18.1607 1.08995 17.1241V3.96094H13.3242V17.1241C13.3242 18.1607 12.4841 19.0005 11.449 19.0005ZM4.27549 6.34496C4.27549 5.99368 3.99184 5.7073 3.639 5.7073C3.28772 5.7073 3.00251 5.99373 3.00251 6.34496V16.5393C3.00251 16.8922 3.28772 17.1774 3.639 17.1774C3.99184 17.1774 4.27549 16.8922 4.27549 16.5393V6.34496ZM7.82385 6.34496C7.82385 5.99368 7.53982 5.7073 7.18736 5.7073C6.83608 5.7073 6.55087 5.99373 6.55087 6.34496V16.5393C6.55087 16.8922 6.83608 17.1774 7.18736 17.1774C7.53982 17.1774 7.82385 16.8922 7.82385 16.5393V6.34496ZM11.3702 6.34496C11.3702 5.99368 11.0866 5.7073 10.7353 5.7073C10.3841 5.7073 10.0973 5.99373 10.0973 6.34496V16.5393C10.0973 16.8922 10.3841 17.1774 10.7353 17.1774C11.0866 17.1774 11.3702 16.8922 11.3702 16.5393V6.34496Z" fill="#343846" fill-opacity="0.6"/>
<path d="M2.29566 1.00083H4.87857C4.94062 0.43878 5.41238 0 5.98961 0H8.42096C9.00136 0 9.47195 0.43878 9.53361 1.00083H12.1149C13.3806 1.00083 14.403 2.02633 14.4102 3.28899H-0.000471115C0.00432491 2.02638 1.02826 1.00083 2.29566 1.00083Z" fill="#343846" fill-opacity="0.6"/>
</svg>
