<svg width="24" height="19" viewBox="0 0 24 19" fill="none" xmlns="http://www.w3.org/2000/svg">
<path d="M20.8387 18.9989H2.31541C1.07726 19.037 0.0421594 18.0411 0 16.7714V2.2274C0.0421557 0.957878 1.07746 -0.037584 2.31541 0.00108974H20.8387C22.0766 -0.037584 23.1119 0.957878 23.1541 2.2274V16.7726C23.1113 18.0419 22.0764 19.037 20.8387 18.9989ZM2.31541 2.37582V16.6112L20.8387 16.6242V2.38888L2.31541 2.37582ZM13.2326 14.2495H4.63082C4.71594 13.2664 5.16955 12.3555 5.89619 11.7085C6.70523 10.8853 7.79229 10.4133 8.93169 10.3905C10.0711 10.4133 11.1582 10.8853 11.9672 11.7085C12.6936 12.3557 13.1472 13.2665 13.2326 14.2495ZM18.5233 13.0621H15.0502V10.6874H18.5233V13.0621ZM8.93169 9.50002C8.31125 9.52213 7.70971 9.27905 7.27072 8.82881C6.83174 8.37858 6.59472 7.76163 6.61628 7.12529C6.59507 6.48905 6.8322 5.8723 7.2711 5.42215C7.71001 4.972 8.31135 4.7288 8.93169 4.75055C9.55204 4.7288 10.1534 4.972 10.5923 5.42215C11.0312 5.8723 11.2683 6.48905 11.2471 7.12529C11.2687 7.76163 11.0317 8.37858 10.5927 8.82881C10.1537 9.27905 9.55214 9.52213 8.93169 9.50002ZM18.5233 8.31265H13.8925V5.93792H18.5233V8.31265Z" fill="white"/>
</svg>
