<svg width="30" height="35" viewBox="0 0 30 35" fill="none" xmlns="http://www.w3.org/2000/svg">
<g opacity="0.5">
<path d="M17.7057 31.3164H11.8015C11.6778 31.3159 11.5558 31.3446 11.4453 31.4002C11.3349 31.4558 11.2391 31.5367 11.1659 31.6364C11.0927 31.736 11.0441 31.8516 11.0241 31.9736C11.004 32.0956 11.0131 32.2206 11.0506 32.3385C11.3111 33.1141 11.8087 33.7883 12.473 34.2659C13.1374 34.7436 13.9349 35.0005 14.7532 35.0005C15.5714 35.0005 16.3689 34.7436 17.0333 34.2659C17.6976 33.7883 18.1952 33.1141 18.4558 32.3385C18.4934 32.2207 18.5027 32.0957 18.4827 31.9736C18.4628 31.8516 18.4143 31.736 18.3411 31.6364C18.268 31.5367 18.1723 31.4557 18.0618 31.4001C17.9514 31.3445 17.8294 31.3158 17.7057 31.3164Z" fill="#343846"/>
<path d="M29.4875 26.7963L25.4786 23.518V14.0511C25.4786 8.99989 21.952 4.73389 17.2397 3.58772V2.44331C17.2224 1.78941 16.9504 1.16812 16.4818 0.71175C16.0132 0.25538 15.3849 0 14.7308 0C14.0767 0 13.4484 0.25538 12.9798 0.71175C12.5112 1.16812 12.2392 1.78941 12.2219 2.44331V3.57803C7.48845 4.70924 3.94167 8.98493 3.94167 14.0538V23.4819H3.9223L0.295404 26.8729C-0.485435 27.9504 0.372872 29.3792 1.8025 29.3792H28.0359C29.5148 29.3792 30.3634 27.8659 29.4875 26.7963Z" fill="#343846" fill-opacity="0.8"/>
</g>
</svg>
