<svg width="21" height="24" viewBox="0 0 21 24" fill="none" xmlns="http://www.w3.org/2000/svg">
<path d="M15.55 19.7448H10.5896C10.1338 19.7448 9.7642 19.3864 9.7642 18.9445V4.07439C9.7642 3.71448 9.51516 3.39861 9.15804 3.30294L6.79453 2.67424C6.2385 2.52694 6.34814 1.73272 6.92609 1.73272H15.55C16.0058 1.73272 16.3755 2.0911 16.3755 2.53301V7.63093C16.3755 8.07284 16.7451 8.43123 17.2009 8.43123H17.3372C17.793 8.43123 18.1626 8.07284 18.1626 7.63093V1.08124C18.1626 0.484431 17.663 0 17.0474 0H1.11519C0.499644 0 0 0.484431 0 1.08124V21.0401C0 21.4 0.249039 21.7159 0.606151 21.8116L8.72262 23.971C9.24732 24.1107 9.76576 23.728 9.76576 23.1996V22.2763C9.76576 21.8343 10.1354 21.476 10.5912 21.476H17.0474C17.663 21.476 18.1626 20.9915 18.1626 20.3947V13.8481C18.1626 13.4061 17.793 13.0478 17.3372 13.0478H17.2009C16.7451 13.0478 16.3755 13.4061 16.3755 13.8481V18.946C16.3755 19.3864 16.0058 19.7448 15.55 19.7448Z" fill="white"/>
<path d="M14.7075 8.98796C14.7075 8.54605 14.1467 8.33648 13.8397 8.66298L12.1591 10.4519C11.9837 10.6387 11.9868 10.9242 12.1638 11.1079L13.846 12.8498C14.1546 13.1702 14.709 12.9576 14.709 12.5202V12.4959C14.709 12.2286 14.933 12.013 15.2071 12.013H20.1644C20.44 12.013 20.6624 11.7958 20.6624 11.5301V9.95379C20.6624 9.68651 20.44 9.47087 20.1644 9.47087H15.2071C14.9314 9.47087 14.7075 9.25371 14.7075 8.98796Z" fill="white"/>
</svg>
