<svg width="22" height="18" viewBox="0 0 22 18" fill="none" xmlns="http://www.w3.org/2000/svg">
<path d="M20 18H13V16H20V2H2V5H0V2C0 0.89543 0.89543 0 2 0H20C21.1046 0 22 0.89543 22 2V16C22 17.1046 21.1046 18 20 18ZM11 18H9C9.00496 15.6124 8.05472 13.3219 6.361 11.639C4.67821 9.94509 2.38769 8.99482 0 9V6.99996C2.91792 6.99224 5.71779 8.15165 7.776 10.22C9.847 12.2784 11.008 15.0801 11 18ZM7.00003 18H5C5.00273 16.6735 4.47487 15.401 3.534 14.466C2.59908 13.5249 1.32652 12.9971 0 13V11C1.85776 10.9944 3.64056 11.7322 4.951 13.049C6.26773 14.3595 7.00554 16.1423 7.00003 18ZM3 18H0V15C1.65685 15 3 16.3431 3 18Z" fill="white"/>
</svg>
