<svg width="20" height="16" viewBox="0 0 20 16" fill="none" xmlns="http://www.w3.org/2000/svg">
<path d="M17.7778 16H11.5556V14.2222H17.7778V1.77778H1.77778V4.44444H0V1.77778C0 0.795938 0.795938 0 1.77778 0H17.7778C18.7596 0 19.5556 0.795938 19.5556 1.77778V14.2222C19.5556 15.2041 18.7596 16 17.7778 16ZM9.77781 16H8C8.00441 13.8776 7.15975 11.8417 5.65422 10.3458C4.15841 8.84008 2.12239 7.9954 0 8V6.22219C2.59371 6.21532 5.08248 7.24591 6.912 9.08444C8.75289 10.9141 9.78488 13.4045 9.77781 16ZM6.22225 16H4.44444C4.44687 14.8209 3.97766 13.6898 3.14133 12.8587C2.31029 12.0222 1.17913 11.5529 0 11.5556V9.77775C1.65134 9.77276 3.23605 10.4286 4.40089 11.5991C5.57132 12.764 6.22714 14.3487 6.22225 16ZM2.66667 16H0V13.3333C1.47276 13.3333 2.66667 14.5272 2.66667 16Z" fill="url(#paint0_linear_1935_26114)"/>
<defs>
<linearGradient id="paint0_linear_1935_26114" x1="0" y1="0" x2="15.6832" y2="19.1683" gradientUnits="userSpaceOnUse">
<stop stop-color="#E32068"/>
<stop offset="1" stop-color="#F5003B"/>
</linearGradient>
</defs>
</svg>
