<svg width="25" height="25" viewBox="0 0 25 25" fill="none" xmlns="http://www.w3.org/2000/svg">
<g clip-path="url(#clip0_1778_16580)">
<path d="M22.1769 6.75987C25.3487 12.104 23.5878 19.0075 18.2437 22.1793C12.8996 25.3512 5.99603 23.5902 2.8242 18.2461C-0.347638 12.902 1.41333 5.99847 6.75744 2.82663C12.1015 -0.345205 19.0051 1.41577 22.1769 6.75987Z" stroke="url(#paint0_linear_1778_16580)" stroke-width="2.5"/>
<path d="M11.1671 17.4999C10.9667 17.5018 10.7684 17.4647 10.5865 17.3914C10.4046 17.318 10.2437 17.2103 10.1153 17.0759L6.5757 13.189C6.45751 13.0692 6.36827 12.9298 6.31333 12.7791C6.25839 12.6284 6.2389 12.4696 6.25602 12.3122C6.27314 12.1548 6.32652 12.002 6.41296 11.863C6.49939 11.7241 6.61709 11.6018 6.75899 11.5036C6.90089 11.4054 7.06405 11.3333 7.23867 11.2916C7.4133 11.2498 7.59577 11.2394 7.77514 11.2608C7.95451 11.2823 8.12706 11.3352 8.28242 11.4164C8.43779 11.4975 8.57276 11.6053 8.67923 11.7332L12.2188 15.6201C12.434 15.8618 12.5318 16.1678 12.4909 16.4719C12.45 16.776 12.2738 17.0539 12.0004 17.2455C11.7645 17.4117 11.4701 17.5016 11.1671 17.4999Z" fill="url(#paint1_linear_1778_16580)"/>
<path d="M11.2738 17.4999C10.9857 17.501 10.706 17.4067 10.4813 17.2328C10.2174 17.0301 10.0475 16.735 10.0085 16.4118C9.96961 16.0887 10.0649 15.7639 10.2736 15.5082L16.5054 7.92745C16.7206 7.68675 17.024 7.53557 17.3521 7.50552C17.6802 7.47547 18.0076 7.56888 18.266 7.76621C18.5243 7.96355 18.6935 8.24953 18.7382 8.56436C18.7829 8.87918 18.6996 9.19848 18.5058 9.45548L12.2739 17.0548C12.1524 17.1965 11.9995 17.31 11.8263 17.387C11.6532 17.464 11.4644 17.5026 11.2738 17.4999Z" fill="url(#paint2_linear_1778_16580)"/>
</g>
<defs>
<linearGradient id="paint0_linear_1778_16580" x1="-4.63184" y1="8.13281" x2="29.6329" y2="16.8732" gradientUnits="userSpaceOnUse">
<stop stop-color="#E32068"/>
<stop offset="1" stop-color="#F5003B"/>
</linearGradient>
<linearGradient id="paint1_linear_1778_16580" x1="6.25" y1="11.25" x2="12.5" y2="17.5" gradientUnits="userSpaceOnUse">
<stop stop-color="#E32068"/>
<stop offset="1" stop-color="#F5003B"/>
</linearGradient>
<linearGradient id="paint2_linear_1778_16580" x1="10" y1="7.5" x2="19.9115" y2="16.1726" gradientUnits="userSpaceOnUse">
<stop stop-color="#E32068"/>
<stop offset="1" stop-color="#F5003B"/>
</linearGradient>
<clipPath id="clip0_1778_16580">
<rect width="25" height="25" fill="white"/>
</clipPath>
</defs>
</svg>
