<svg width="20" height="24" viewBox="0 0 20 24" fill="none" xmlns="http://www.w3.org/2000/svg">
<path d="M9.6 24C8.27452 24 7.2 22.9255 7.2 21.6H12C12 22.9255 10.9255 24 9.6 24ZM19.2 20.4H0V18L2.4 16.8V10.2C2.4 6.0456 4.1052 3.3516 7.2 2.616V0H12V2.616C15.0948 3.3504 16.8 6.0432 16.8 10.2V16.8L19.2 18V20.4ZM9.6 4.5C8.1356 4.40544 6.72334 5.06073 5.85 6.24C5.10306 7.42147 4.73657 8.80366 4.8 10.2V18H14.4V10.2C14.4634 8.80367 14.0969 7.4215 13.35 6.24C12.4767 5.06073 11.0644 4.40544 9.6 4.5Z" fill="white"/>
</svg>
