<svg width="14" height="16" viewBox="0 0 14 16" fill="none" xmlns="http://www.w3.org/2000/svg">
<path d="M7 15.0675C3.13401 15.0675 0 11.7444 0 7.64507C0 3.54578 3.13401 0.222656 7 0.222656C10.866 0.222656 14 3.54578 14 7.64507C13.9958 11.7425 10.8642 15.063 7 15.0675ZM7 1.70714C3.90721 1.70714 1.4 4.36564 1.4 7.64507C1.4 10.9245 3.90721 13.583 7 13.583C10.0928 13.583 12.6 10.9245 12.6 7.64507C12.5965 4.36717 10.0914 1.71082 7 1.70714ZM10.5 8.38731H6.3V3.93386H7.7V6.90283H10.5V8.38731Z" fill="white"/>
</svg>
