<svg width="16" height="18" viewBox="0 0 16 18" fill="none" xmlns="http://www.w3.org/2000/svg">
<path d="M11.6625 14.8086H7.94222C7.60038 14.8086 7.32315 14.5398 7.32315 14.2083V3.05579C7.32315 2.78586 7.13637 2.54896 6.86853 2.47721L5.09589 2.00568C4.67887 1.89521 4.7611 1.29954 5.19457 1.29954H11.6625C12.0044 1.29954 12.2816 1.56833 12.2816 1.89976V5.7232C12.2816 6.05463 12.5588 6.32342 12.9007 6.32342H13.0029C13.3447 6.32342 13.6219 6.05463 13.6219 5.7232V0.810929C13.6219 0.363324 13.2472 0 12.7856 0H0.836394C0.374733 0 0 0.363324 0 0.810929V15.7801C0 16.05 0.186779 16.2869 0.454613 16.3587L6.54196 17.9783C6.93549 18.083 7.32432 17.796 7.32432 17.3997V16.7072C7.32432 16.3758 7.60155 16.107 7.94339 16.107H12.7856C13.2472 16.107 13.6219 15.7436 13.6219 15.296V10.386C13.6219 10.0546 13.3447 9.78582 13.0029 9.78582H12.9007C12.5588 9.78582 12.2816 10.0546 12.2816 10.386V14.2095C12.2816 14.5398 12.0044 14.8086 11.6625 14.8086Z" fill="#343846"/>
<path d="M11.0301 6.74195C11.0301 6.41051 10.6096 6.25334 10.3793 6.49821L9.11885 7.83989C8.98728 7.97998 8.98963 8.1941 9.12237 8.33192L10.384 9.63829C10.6154 9.87861 11.0313 9.71916 11.0313 9.39114V9.37292C11.0313 9.17246 11.1993 9.01073 11.4048 9.01073H15.1228C15.3295 9.01073 15.4963 8.84786 15.4963 8.64854V7.46632C15.4963 7.26586 15.3295 7.10413 15.1228 7.10413H11.4048C11.1981 7.10413 11.0301 6.94126 11.0301 6.74195Z" fill="#343846"/>
</svg>
