<svg width="19" height="18" viewBox="0 0 19 18" fill="none" xmlns="http://www.w3.org/2000/svg">
<path d="M9.22998 17C13.7753 17 17.46 13.4183 17.46 9C17.46 4.58172 13.7753 1 9.22998 1C4.68469 1 1 4.58172 1 9C1 13.4183 4.68469 17 9.22998 17Z" stroke="#ED1051" stroke-width="1.75" stroke-linecap="round" stroke-linejoin="round"/>
<path d="M6.83496 6.60114C7.02845 6.06647 7.41036 5.61562 7.91305 5.32845C8.41574 5.04127 9.00677 4.93629 9.58145 5.03211C10.1561 5.12793 10.6774 5.41836 11.0529 5.85196C11.4284 6.28556 11.6339 6.83436 11.633 7.40114C11.633 9.00114 9.16404 9.80114 9.16404 9.80114" stroke="#ED1051" stroke-width="1.75" stroke-linecap="round" stroke-linejoin="round"/>
<path d="M9.23047 13H9.23847" stroke="#ED1051" stroke-width="1.75" stroke-linecap="round" stroke-linejoin="round"/>
</svg>
