<svg width="12" height="13" viewBox="0 0 12 13" fill="none" xmlns="http://www.w3.org/2000/svg">
<path d="M8.95716 1.78188C8.97707 1.78078 8.99745 1.77993 9.01776 1.77993C9.28463 1.77993 9.54869 1.83218 9.79525 1.93371C10.0418 2.03524 10.2659 2.18406 10.4546 2.37169C10.6434 2.55932 10.7931 2.78208 10.8952 3.02727C10.9974 3.27246 11.05 3.53527 11.05 3.80067C11.05 4.06608 10.9974 4.32889 10.8952 4.57408C10.7931 4.81927 10.6434 5.04203 10.4546 5.22966C10.2659 5.41729 10.0418 5.56611 9.79525 5.66764C9.54868 5.76917 9.28442 5.82142 9.01756 5.82142C8.98565 5.82142 8.95405 5.81998 8.92317 5.81811C8.82645 6.47459 8.50848 7.0795 8.02068 7.53345C8.01548 7.53955 7.96138 7.6031 7.88309 7.71402C7.80101 7.8303 7.69345 7.99712 7.58958 8.20115C7.38149 8.6099 7.19021 9.16409 7.24403 9.75898C7.30518 10.4335 7.67095 11.0474 8.34024 11.5833C8.34025 11.5833 8.34025 11.5833 8.34026 11.5833L8.30901 11.6223C8.34346 11.6499 8.36846 11.6874 8.38056 11.7296C8.39266 11.7719 8.39126 11.8169 8.37656 11.8583C8.36185 11.8998 8.33457 11.9357 8.29848 11.961C8.26238 11.9864 8.21925 12 8.17505 12L8.95716 1.78188ZM8.95716 1.78188V1.21227C8.95716 1.14266 8.92936 1.07595 8.87996 1.0268C8.83057 0.977652 8.76363 0.950064 8.69388 0.95H8.69383L3.30636 0.95L3.30632 0.95C3.23655 0.950064 3.1696 0.977639 3.12018 1.02677C3.07075 1.07591 3.0429 1.1426 3.04284 1.21222V1.21227V1.78187C3.02296 1.78077 3.00261 1.77993 2.98244 1.77993C2.4435 1.77993 1.92657 1.99276 1.54539 2.37169C1.1642 2.75063 0.95 3.26464 0.95 3.80067C0.95 4.3367 1.1642 4.85072 1.54539 5.22966C1.92657 5.60859 2.4435 5.82142 2.98244 5.82142C3.01417 5.82142 3.04579 5.81998 3.07682 5.8181C3.17343 6.47439 3.49124 7.07915 3.97885 7.533C3.98042 7.53485 3.98348 7.53847 3.98798 7.54391C3.99475 7.5521 4.0045 7.56409 4.01678 7.57968C4.04133 7.61085 4.07595 7.65636 4.11698 7.71455C4.19908 7.83097 4.30663 7.99785 4.41049 8.20188C4.61857 8.61064 4.80979 9.16458 4.75597 9.75898L4.75597 9.75898C4.69502 10.4335 4.32924 11.0475 3.65974 11.5833L3.65966 11.5834C3.61727 11.6174 3.58649 11.6638 3.57163 11.716C3.55676 11.7683 3.55854 11.8238 3.57673 11.875C3.59492 11.9262 3.62859 11.9705 3.67308 12.0018C3.71755 12.0331 3.77066 12.0499 3.8251 12.05H3.82515H8.17501L8.95716 1.78188ZM7.50992 11.5274H4.49025C4.95857 11.0117 5.22505 10.4342 5.28124 9.80484C5.33753 9.1743 5.17297 8.59902 4.97042 8.14995C5.29959 8.27159 5.64826 8.33405 6.0001 8.33405C6.35192 8.33405 6.70057 8.2716 7.02972 8.14996C6.82705 8.59905 6.66265 9.17431 6.71875 9.80482L6.71876 9.80485C6.77514 10.4342 7.04144 11.0117 7.50992 11.5274ZM3.04284 2.30641V5.29494C3.02238 5.2961 3.00233 5.29688 2.98244 5.29688C2.58309 5.29688 2.20016 5.13918 1.91787 4.85855C1.63558 4.57793 1.47705 4.1974 1.47705 3.80067C1.47705 3.40395 1.63558 3.02342 1.91787 2.7428C2.20016 2.46217 2.58309 2.30446 2.98244 2.30446C3.00233 2.30446 3.02238 2.30525 3.04284 2.30641ZM8.43031 5.39336C8.43031 6.03392 8.17434 6.6483 7.71862 7.10133C7.26289 7.55437 6.64472 7.80894 6.0001 7.80894C5.35547 7.80894 4.73731 7.55437 4.28158 7.10133C3.82586 6.6483 3.56989 6.03392 3.56989 5.39336V1.47453H8.43031V5.39336ZM9.01776 5.29688C8.99772 5.29688 8.97766 5.29609 8.95716 5.29494V2.30641C8.97766 2.30525 8.99772 2.30446 9.01776 2.30446C9.41711 2.30446 9.80004 2.46217 10.0823 2.7428C10.3646 3.02342 10.5231 3.40395 10.5231 3.80067C10.5231 4.1974 10.3646 4.57793 10.0823 4.85855C9.80004 5.13918 9.41711 5.29688 9.01776 5.29688Z" fill="url(#paint0_linear_1860_15117)" stroke="url(#paint1_linear_1860_15117)" stroke-width="0.1"/>
<defs>
<linearGradient id="paint0_linear_1860_15117" x1="1" y1="1" x2="11.9502" y2="10.9548" gradientUnits="userSpaceOnUse">
<stop stop-color="#E32068"/>
<stop offset="1" stop-color="#F5003B"/>
</linearGradient>
<linearGradient id="paint1_linear_1860_15117" x1="1" y1="1" x2="11.9502" y2="10.9548" gradientUnits="userSpaceOnUse">
<stop stop-color="#E32068"/>
<stop offset="1" stop-color="#F5003B"/>
</linearGradient>
</defs>
</svg>
