<svg width="17" height="20" viewBox="0 0 17 20" fill="none" xmlns="http://www.w3.org/2000/svg">
<path d="M3.15789 5.26316C3.15789 2.3564 5.51429 0 8.42105 0C11.3278 0 13.6842 2.3564 13.6842 5.26316C13.6842 8.16992 11.3278 10.5263 8.42105 10.5263C5.51429 10.5263 3.15789 8.16992 3.15789 5.26316ZM8.42105 8.42105C10.1651 8.42105 11.5789 7.00722 11.5789 5.26316C11.5789 3.5191 10.1651 2.10526 8.42105 2.10526C6.677 2.10526 5.26316 3.5191 5.26316 5.26316C5.26316 7.00722 6.677 8.42105 8.42105 8.42105Z" fill="white"/>
<path d="M2.46647 14.0454C1.00542 15.5065 0.136692 17.4491 0.0148298 19.5002C-0.00154758 19.7759 0.223858 20 0.5 20H1.60526C1.88141 20 2.1032 19.7758 2.12503 19.5005C2.24337 18.0083 2.88898 16.6002 3.95512 15.5341C5.13956 14.3496 6.746 13.6842 8.42105 13.6842C10.0961 13.6842 11.7026 14.3496 12.887 15.5341C13.9531 16.6002 14.5987 18.0083 14.7171 19.5005C14.7389 19.7758 14.9607 20 15.2368 20H16.3421C16.6182 20 16.8437 19.7759 16.8273 19.5002C16.7054 17.4491 15.8367 15.5065 14.3756 14.0454C12.7964 12.4662 10.6545 11.5789 8.42105 11.5789C6.18765 11.5789 4.04572 12.4662 2.46647 14.0454Z" fill="white"/>
</svg>
