<svg width="28" height="28" viewBox="0 0 28 28" fill="none" xmlns="http://www.w3.org/2000/svg">
<path d="M14.345 26C21.1629 26 26.6899 20.6274 26.6899 14C26.6899 7.37258 21.1629 2 14.345 2C7.52703 2 2 7.37258 2 14C2 20.6274 7.52703 26 14.345 26Z" stroke="white" stroke-width="2.25" stroke-linecap="round" stroke-linejoin="round"/>
<path d="M10.752 10.4015C11.0422 9.59947 11.6151 8.92319 12.3691 8.49242C13.1231 8.06166 14.0097 7.90419 14.8717 8.04792C15.7337 8.19165 16.5156 8.62729 17.0788 9.2777C17.6421 9.9281 17.9504 10.7513 17.9491 11.6015C17.9491 14.0015 14.2456 15.2015 14.2456 15.2015" stroke="white" stroke-width="2.25" stroke-linecap="round" stroke-linejoin="round"/>
<path d="M14.3457 20H14.3577" stroke="white" stroke-width="2.25" stroke-linecap="round" stroke-linejoin="round"/>
</svg>
