<svg width="14" height="18" viewBox="0 0 14 18" fill="none" xmlns="http://www.w3.org/2000/svg">
<path d="M14 7C14 12.4444 7 17.1111 7 17.1111C7 17.1111 0 12.4444 0 7C2.76642e-08 5.14348 0.737498 3.36301 2.05025 2.05025C3.36301 0.737498 5.14348 0 7 0C8.85652 0 10.637 0.737498 11.9497 2.05025C13.2625 3.36301 14 5.14348 14 7Z" fill="url(#paint0_linear_1788_18264)"/>
<path d="M7.0013 9.33073C8.28997 9.33073 9.33464 8.28606 9.33464 6.9974C9.33464 5.70873 8.28997 4.66406 7.0013 4.66406C5.71264 4.66406 4.66797 5.70873 4.66797 6.9974C4.66797 8.28606 5.71264 9.33073 7.0013 9.33073Z" fill="white"/>
<defs>
<linearGradient id="paint0_linear_1788_18264" x1="0" y1="0" x2="16.7723" y2="13.7228" gradientUnits="userSpaceOnUse">
<stop stop-color="#E32068"/>
<stop offset="1" stop-color="#F5003B"/>
</linearGradient>
</defs>
</svg>
