<svg width="24" height="20" viewBox="0 0 24 20" fill="none" xmlns="http://www.w3.org/2000/svg">
<path d="M2.44424 20H0C0 15.9502 3.28297 12.6673 7.33272 12.6673C11.3825 12.6673 14.6654 15.9502 14.6654 20H12.2212C12.2212 17.3002 10.0326 15.1115 7.33272 15.1115C4.63289 15.1115 2.44424 17.3002 2.44424 20ZM19.9988 15.5551L18.2707 13.8271C19.8752 12.2227 20.7767 10.0466 20.7767 7.77757C20.7767 5.50854 19.8752 3.33245 18.2707 1.72808L19.9988 0C24.2934 4.29528 24.2934 11.2586 19.9988 15.5539V15.5551ZM16.5414 12.099L14.8133 10.3685C16.243 8.93704 16.243 6.61811 14.8133 5.18668L16.5414 3.45493C18.9277 5.84126 18.9277 9.71022 16.5414 12.0965V12.099ZM7.33272 11.4439C4.63289 11.4439 2.44424 9.25529 2.44424 6.55545C2.44424 3.85562 4.63289 1.66697 7.33272 1.66697C10.0326 1.66697 12.2212 3.85562 12.2212 6.55545C12.2212 7.85196 11.7062 9.09536 10.7894 10.0121C9.87263 10.9289 8.62923 11.4439 7.33272 11.4439ZM7.33272 4.11121C5.99743 4.11257 4.91034 5.18527 4.89121 6.52043C4.87208 7.85559 5.92798 8.959 7.26268 8.99862C8.59739 9.03823 9.71687 7.99939 9.77696 6.66544V7.15429V6.55545C9.77696 5.20554 8.68264 4.11121 7.33272 4.11121Z" fill="white"/>
</svg>
