<svg width="24" height="23" viewBox="0 0 24 23" fill="none" xmlns="http://www.w3.org/2000/svg">
<path d="M16.2975 7.19957L23.3352 8.24389C23.4668 8.26243 23.5906 8.31774 23.6922 8.40375C23.7939 8.48976 23.8694 8.60284 23.91 8.73002C23.9507 8.8572 23.9547 8.9934 23.922 9.12286C23.8892 9.25231 23.8208 9.3699 23.7246 9.46205L18.6195 14.4508C18.5385 14.5308 18.4777 14.6293 18.4426 14.7378C18.4074 14.8464 18.3989 14.9619 18.4176 15.0745L19.6145 22.1227C19.6398 22.2556 19.6268 22.3929 19.5772 22.5186C19.5275 22.6443 19.4433 22.7533 19.3342 22.8325C19.2252 22.9116 19.0958 22.9579 18.9616 22.9658C18.8273 22.9736 18.6937 22.9428 18.5762 22.8769L12.2884 19.5412C12.1849 19.4911 12.0716 19.4651 11.9567 19.4651C11.8419 19.4651 11.7283 19.4911 11.6249 19.5412L5.33707 22.8624C5.21906 22.9223 5.08703 22.9484 4.95523 22.938C4.82342 22.9275 4.69694 22.8809 4.58976 22.8031C4.48257 22.7252 4.39867 22.6192 4.34734 22.4966C4.29602 22.3741 4.27926 22.2397 4.29876 22.1082L5.51012 15.06C5.53272 14.9474 5.52613 14.8308 5.49076 14.7215C5.45538 14.6123 5.39241 14.514 5.3082 14.4363L0.217501 9.43302C0.121002 9.33992 0.052754 9.22119 0.0206824 9.09064C-0.0113892 8.96008 -0.00611336 8.82307 0.0361744 8.6955C0.0784621 8.56792 0.156025 8.45502 0.259576 8.36994C0.363127 8.28484 0.488427 8.23111 0.621172 8.21485L7.65893 7.19957C7.7717 7.1796 7.87856 7.13396 7.97106 7.06609C8.06355 6.99821 8.13921 6.91005 8.19252 6.80815L11.3509 0.39797C11.4091 0.278602 11.4993 0.177972 11.6115 0.107636C11.7237 0.0372995 11.8532 0 11.9854 0C12.1176 0 12.2472 0.0372995 12.3593 0.107636C12.4715 0.177972 12.5619 0.278602 12.6201 0.39797L15.7639 6.80815C15.8122 6.91377 15.8867 7.00516 15.9801 7.0737C16.0735 7.14224 16.1827 7.18549 16.2975 7.19957Z" fill="white"/>
</svg>
