<svg width="23" height="18" viewBox="0 0 23 18" fill="none" xmlns="http://www.w3.org/2000/svg">
<path d="M20.25 2.25H11.4571C11.3245 2.25 11.1973 2.19732 11.1036 2.10355L9.14645 0.146446C9.05268 0.0526783 8.9255 0 8.79289 0H2.25C1.0125 0 0 1.0125 0 2.25V15.75C0 16.9875 1.0125 18 2.25 18H20.25C21.4875 18 22.5 16.9875 22.5 15.75V4.5C22.5 3.2625 21.4875 2.25 20.25 2.25ZM20.25 15.25C20.25 15.5261 20.0261 15.75 19.75 15.75H2.75C2.47386 15.75 2.25 15.5261 2.25 15.25V2.75C2.25 2.47386 2.47386 2.25 2.75 2.25H7.85914C7.99175 2.25 8.11893 2.30268 8.2127 2.39645L10.1698 4.35355C10.2636 4.44732 10.3907 4.5 10.5234 4.5H19.75C20.0261 4.5 20.25 4.72386 20.25 5V15.25ZM12.2367 11.0974C12.3771 11.2189 12.4386 11.4082 12.3965 11.5891L11.953 13.4916C11.8533 13.9193 12.3139 14.2585 12.6928 14.0364L14.3721 13.052C14.5283 12.9604 14.7217 12.9604 14.8779 13.052L16.5572 14.0364C16.9361 14.2585 17.3967 13.9193 17.297 13.4916L16.8535 11.5891C16.8114 11.4082 16.8729 11.2189 17.0133 11.0974L18.4767 9.83127C18.8112 9.54193 18.6329 8.99279 18.1923 8.95498L16.2631 8.78943C16.0789 8.77363 15.9184 8.65748 15.8459 8.48743L15.0849 6.70328C14.9121 6.29817 14.3379 6.29817 14.1651 6.70328L13.4041 8.48743C13.3316 8.65748 13.1711 8.77363 12.9869 8.78943L11.0577 8.95498C10.6171 8.99279 10.4388 9.54193 10.7732 9.83127L12.2367 11.0974Z" fill="white"/>
</svg>
