<svg width="13" height="16" viewBox="0 0 13 16" fill="none" xmlns="http://www.w3.org/2000/svg">
<path d="M11.2 15.38H1.4C0.626801 15.38 0 14.7154 0 13.8955V3.50412C0 2.68426 0.626801 2.01964 1.4 2.01964H2.8V0.535156H4.2V2.01964H8.4V0.535156H9.8V2.01964H11.2C11.9732 2.01964 12.6 2.68426 12.6 3.50412V13.8955C12.6 14.7154 11.9732 15.38 11.2 15.38ZM1.4 6.47309V13.8955H11.2V6.47309H1.4ZM1.4 3.50412V4.9886H11.2V3.50412H1.4ZM9.8 12.411H8.4V10.9265H9.8V12.411ZM7 12.411H5.6V10.9265H7V12.411ZM4.2 12.411H2.8V10.9265H4.2V12.411ZM9.8 9.44205H8.4V7.95757H9.8V9.44205ZM7 9.44205H5.6V7.95757H7V9.44205ZM4.2 9.44205H2.8V7.95757H4.2V9.44205Z" fill="white"/>
</svg>
