<svg width="22" height="18" viewBox="0 0 22 18" fill="none" xmlns="http://www.w3.org/2000/svg">
<path id="coolicon" d="M19.7419 17.5852H2.19355C1.02056 17.6195 0.0399405 16.7213 0 15.576V2.45756C0.039937 1.31248 1.02075 0.414586 2.19355 0.449469H19.7419C20.9147 0.414586 21.8955 1.31248 21.9355 2.45756V15.5771C21.8949 16.7219 20.9145 17.6195 19.7419 17.5852ZM2.19355 2.59144V15.4315L19.7419 15.4432V2.60322L2.19355 2.59144ZM12.5361 13.3013H4.38709C4.46773 12.4146 4.89747 11.593 5.58587 11.0094C6.35232 10.2669 7.38217 9.84115 8.46161 9.82058C9.54104 9.84115 10.5709 10.2669 11.3373 11.0094C12.0256 11.5931 12.4553 12.4146 12.5361 13.3013ZM17.5484 12.2303H14.2581V10.0883H17.5484V12.2303ZM8.46161 9.01734C7.87382 9.03729 7.30393 8.81803 6.88805 8.41193C6.47217 8.00583 6.24763 7.44934 6.26806 6.87537C6.24796 6.3015 6.47261 5.7452 6.88841 5.33917C7.30422 4.93314 7.87391 4.71378 8.46161 4.73341C9.0493 4.71378 9.61899 4.93314 10.0348 5.33917C10.4506 5.7452 10.6752 6.3015 10.6552 6.87537C10.6756 7.44934 10.451 8.00583 10.0352 8.41193C9.61928 8.81803 9.04939 9.03729 8.46161 9.01734ZM17.5484 7.94636H13.1613V5.80439H17.5484V7.94636Z" fill="#F9003B"/>
</svg>
