<svg width="140" height="140" viewBox="0 0 140 140" fill="none" xmlns="http://www.w3.org/2000/svg">
<path d="M70 7C70 3.13401 66.8582 -0.0362826 63.0115 0.349654C50.7155 1.58331 38.9198 6.0563 28.855 13.3688C16.8957 22.0578 7.9941 34.3098 3.42604 48.3688C-1.14201 62.4279 -1.14201 77.5722 3.42604 91.6312C7.9941 105.69 16.8957 117.942 28.855 126.631C40.8144 135.32 55.2175 140 70 140C84.7826 140 99.1856 135.32 111.145 126.631C123.104 117.942 132.006 105.69 136.574 91.6312C140.418 79.7993 141.027 67.1987 138.401 55.1233C137.579 51.3456 133.593 49.3373 129.917 50.5319C126.24 51.7266 124.274 55.6733 125.001 59.4703C126.77 68.71 126.189 78.2866 123.259 87.3049C119.605 98.5522 112.483 108.354 102.916 115.305C93.3485 122.256 81.826 126 70 126C58.174 126 46.6515 122.256 37.084 115.305C27.5166 108.354 20.3953 98.5522 16.7408 87.305C13.0864 76.0577 13.0864 63.9423 16.7408 52.695C20.3953 41.4478 27.5166 31.6462 37.084 24.695C44.7555 19.1214 53.684 15.6098 63.018 14.4369C66.8538 13.9549 70 10.866 70 7Z" fill="url(#paint0_linear_1259_6231)"/>
<path d="M140 70C140 108.66 108.66 140 70 140C31.3401 140 0 108.66 0 70C0 31.3401 31.3401 0 70 0C108.66 0 140 31.3401 140 70ZM14 70C14 100.928 39.0721 126 70 126C100.928 126 126 100.928 126 70C126 39.0721 100.928 14 70 14C39.0721 14 14 39.0721 14 70Z" fill="#F9003B" fill-opacity="0.2"/>
<defs>
<linearGradient id="paint0_linear_1259_6231" x1="0" y1="0" x2="140" y2="140" gradientUnits="userSpaceOnUse">
<stop stop-color="#E32068"/>
<stop offset="1" stop-color="#F5003B"/>
</linearGradient>
</defs>
</svg>
