<svg width="24" height="25" viewBox="0 0 24 25" fill="none" xmlns="http://www.w3.org/2000/svg">
<path d="M12.0162 1.23069e-06C9.73691 0.00107971 7.50912 0.710691 5.61448 2.03912C3.71984 3.36754 2.24343 5.25513 1.37191 7.46323C0.500386 9.67132 0.272898 12.1008 0.718191 14.4444C1.16348 16.7881 2.26157 18.9407 3.87361 20.63C5.48566 22.3194 7.53927 23.4697 9.77481 23.9356C12.0104 24.4014 14.3274 24.1617 16.4331 23.247C18.5388 22.3323 20.3385 20.7835 21.6046 18.7964C22.8708 16.8094 23.5466 14.4734 23.5466 12.0837C23.5466 10.4964 23.2484 8.9246 22.6688 7.45819C22.0893 5.99178 21.2399 4.65944 20.1691 3.5373C19.0984 2.41515 17.8272 1.52519 16.4283 0.91825C15.0294 0.31131 13.5301 -0.000715129 12.0162 1.23069e-06ZM17.3049 17.4269C17.2559 17.5114 17.1914 17.5849 17.1152 17.6433C17.039 17.7016 16.9525 17.7435 16.8608 17.7667C16.7691 17.79 16.6739 17.7939 16.5807 17.7785C16.4875 17.763 16.3981 17.7284 16.3177 17.6767C13.613 15.9447 10.205 15.552 6.19268 16.5129C6.00891 16.5517 5.81798 16.5136 5.6606 16.4068C5.50322 16.3001 5.39182 16.1331 5.35017 15.9415C5.30852 15.7499 5.3399 15.5488 5.43762 15.3811C5.53535 15.2134 5.69168 15.0924 5.87331 15.0438C10.2633 13.9924 14.0291 14.445 17.0678 16.3919C17.1483 16.4434 17.2183 16.5111 17.2738 16.591C17.3293 16.671 17.3693 16.7616 17.3913 16.8578C17.4133 16.9539 17.4171 17.0537 17.4022 17.1514C17.3874 17.249 17.3544 17.3427 17.3049 17.4269ZM18.7156 14.1374C18.591 14.3504 18.3908 14.5029 18.159 14.5611C17.9273 14.6194 17.6829 14.5788 17.4797 14.4483C14.3818 12.4512 9.65993 11.8732 5.99606 13.0391C5.76817 13.1114 5.52221 13.0859 5.31229 12.968C5.10237 12.8502 4.9457 12.6498 4.87672 12.4109C4.80775 12.1719 4.83212 11.9141 4.9445 11.694C5.05687 11.4739 5.24803 11.3096 5.47592 11.2373C9.66097 9.90558 14.8644 10.5502 18.4222 12.8428C18.5227 12.9074 18.61 12.9922 18.6793 13.0923C18.7485 13.1924 18.7982 13.3057 18.8257 13.4259C18.8531 13.5462 18.8577 13.6709 18.8392 13.793C18.8206 13.915 18.7793 14.0321 18.7176 14.1374H18.7156ZM18.8373 10.7116C15.1204 8.39825 8.98999 8.18557 5.44575 9.31443C5.17359 9.39629 4.88165 9.36257 4.63301 9.22056C4.38437 9.07855 4.19902 8.83966 4.11702 8.55553C4.03502 8.2714 4.06296 7.96484 4.1948 7.70214C4.32664 7.43943 4.55179 7.24167 4.82158 7.1516C8.8922 5.85587 15.6592 6.10564 19.9358 8.7669C20.1818 8.91978 20.3597 9.16884 20.4306 9.45929C20.5014 9.74974 20.4593 10.0578 20.3134 10.3157C20.1676 10.5736 19.9301 10.7601 19.653 10.8344C19.376 10.9086 19.0822 10.8645 18.8362 10.7116H18.8373Z" fill="white"/>
</svg>
