<svg width="33" height="25" viewBox="0 0 33 25" fill="none" xmlns="http://www.w3.org/2000/svg">
<path d="M32.0573 3.86995C31.8711 3.14928 31.5082 2.49229 31.0047 1.96435C30.5011 1.43641 29.8745 1.05592 29.1871 0.860754C26.6405 0.128906 16.4458 0.128906 16.4458 0.128906C16.4458 0.128906 6.251 0.128906 3.70335 0.832396C3.01614 1.03755 2.39089 1.42479 1.88783 1.95681C1.38478 2.48882 1.02086 3.14769 0.831139 3.86995C0.160158 6.54212 0.160156 12.0839 0.160156 12.0839C0.160156 12.0839 0.160158 17.6529 0.831139 20.2967C1.01738 21.0173 1.38032 21.6743 1.88385 22.2022C2.38738 22.7301 3.01396 23.1106 3.70127 23.3059C6.27701 24.0378 16.4447 24.0378 16.4447 24.0378C16.4447 24.0378 26.6395 24.0378 29.1871 23.3343C29.8746 23.1388 30.5013 22.7581 31.005 22.23C31.5087 21.7019 31.8718 21.0448 32.0583 20.324C32.7282 17.6529 32.7282 12.1111 32.7282 12.1111C32.7282 12.1111 32.7553 6.5443 32.0573 3.86995ZM13.198 17.2024V6.96421L21.6753 12.0839L13.198 17.2024Z" fill="white"/>
</svg>
