<svg width="135" height="50" viewBox="0 0 135 50" fill="none" xmlns="http://www.w3.org/2000/svg">
<path d="M9.38907 7.28278C9.35341 7.09944 9.26645 6.92998 9.13829 6.79411C9.01014 6.65823 8.84606 6.56151 8.66512 6.5152C8.48417 6.46888 8.2938 6.47487 8.11612 6.53246C7.93845 6.59005 7.78077 6.69688 7.6614 6.84054C7.54204 6.9842 7.4659 7.15879 7.44182 7.34401C7.41775 7.52923 7.44674 7.71747 7.52542 7.88687C7.60409 8.05627 7.72923 8.19986 7.88628 8.30095C8.04334 8.40205 8.22585 8.45649 8.41262 8.45797C8.53937 8.45725 8.66485 8.43263 8.78246 8.38538C8.93799 8.32264 9.07514 8.22162 9.18118 8.09171C9.28723 7.96179 9.35874 7.80718 9.38907 7.64225C9.40254 7.58562 9.4095 7.52763 9.40981 7.46942C9.41037 7.4066 9.40341 7.34394 9.38907 7.28278Z" fill="white"/>
<path d="M3.86255 20.3011C3.94976 20.3039 4.03466 20.2727 4.0992 20.214C4.16374 20.1552 4.20284 20.0736 4.20819 19.9865V7.71619L8.41986 0.967503L12.6315 7.71619V19.9865C12.642 20.0729 12.6837 20.1524 12.7489 20.2101C12.814 20.2678 12.898 20.2997 12.9849 20.2997C13.0719 20.2997 13.1559 20.2678 13.221 20.2101C13.2862 20.1524 13.3279 20.0729 13.3384 19.9865V7.62633C13.3381 7.57186 13.3225 7.51855 13.2934 7.47251L8.74131 0.160422C8.70637 0.110855 8.66003 0.0704116 8.60619 0.0424934C8.55236 0.0145753 8.4926 0 8.43196 0C8.37131 0 8.31155 0.0145753 8.25772 0.0424934C8.20388 0.0704116 8.15754 0.110855 8.1226 0.160422L3.55665 7.47597C3.52754 7.52201 3.51197 7.57531 3.51172 7.62978V19.9865C3.51707 20.0746 3.5569 20.157 3.62256 20.2158C3.68823 20.2747 3.77445 20.3053 3.86255 20.3011Z" fill="white"/>
<path d="M8.42843 20.3028C8.51577 20.3061 8.60091 20.275 8.66555 20.2162C8.73019 20.1573 8.76916 20.0755 8.77408 19.9882V8.38672C8.65646 8.43396 8.53099 8.45858 8.40424 8.4593C8.28623 8.45936 8.16917 8.43829 8.05859 8.39709V19.9882C8.06115 20.0336 8.07289 20.0779 8.09309 20.1186C8.11329 20.1592 8.14154 20.1953 8.17613 20.2247C8.21071 20.2542 8.2509 20.2762 8.29427 20.2897C8.33764 20.3031 8.38328 20.3075 8.42843 20.3028Z" fill="white"/>
<path d="M8.43158 32.7473C8.34436 32.7444 8.25947 32.7757 8.19493 32.8344C8.13039 32.8931 8.09129 32.9747 8.08594 33.0618V44.1518C8.09642 44.2382 8.13815 44.3177 8.20327 44.3754C8.26838 44.4331 8.35236 44.4649 8.43936 44.4649C8.52635 44.4649 8.61034 44.4331 8.67545 44.3754C8.74056 44.3177 8.7823 44.2382 8.79278 44.1518V33.0618C8.79039 33.0172 8.77907 32.9735 8.75948 32.9334C8.73989 32.8932 8.71244 32.8574 8.67875 32.8281C8.64506 32.7988 8.60583 32.7765 8.56337 32.7626C8.52091 32.7487 8.47609 32.7435 8.43158 32.7473Z" fill="white"/>
<path d="M5.3808 32.7471C5.29347 32.7438 5.20832 32.7749 5.14368 32.8338C5.07904 32.8926 5.04007 32.9744 5.03516 33.0617V41.2603C5.04564 41.3467 5.08737 41.4262 5.15249 41.4839C5.2176 41.5416 5.30158 41.5735 5.38858 41.5735C5.47557 41.5735 5.55955 41.5416 5.62467 41.4839C5.68978 41.4262 5.73152 41.3467 5.742 41.2603V33.0617C5.73938 33.0172 5.7279 32.9736 5.70824 32.9336C5.68857 32.8935 5.66112 32.8578 5.62748 32.8285C5.59384 32.7992 5.5547 32.7769 5.51234 32.763C5.46998 32.749 5.42526 32.7436 5.3808 32.7471Z" fill="white"/>
<path d="M11.5839 32.747C11.4966 32.7437 11.4114 32.7748 11.3468 32.8336C11.2822 32.8924 11.2432 32.9743 11.2383 33.0615V41.2602C11.247 41.3477 11.2878 41.4288 11.353 41.4878C11.4182 41.5469 11.5029 41.5795 11.5908 41.5795C11.6787 41.5795 11.7635 41.5469 11.8287 41.4878C11.8938 41.4288 11.9347 41.3477 11.9434 41.2602V33.0615C11.9408 33.0172 11.9293 32.9738 11.9098 32.9339C11.8902 32.8939 11.8629 32.8583 11.8295 32.829C11.796 32.7998 11.7571 32.7775 11.7149 32.7634C11.6728 32.7493 11.6283 32.7437 11.5839 32.747Z" fill="white"/>
<path d="M16.6082 31.9439H15.8754V20.6172C15.8728 20.5524 15.8504 20.4899 15.8111 20.4383C15.7719 20.3867 15.7177 20.3484 15.6559 20.3286C15.5933 20.3031 15.5249 20.2949 15.458 20.3049C15.3911 20.315 15.3281 20.3428 15.2757 20.3856L8.42334 26.0092L1.57786 20.3856C1.52545 20.3428 1.46248 20.315 1.39558 20.3049C1.32868 20.2949 1.26031 20.3031 1.19765 20.3286C1.13705 20.3493 1.08422 20.3881 1.04623 20.4396C1.00825 20.4912 0.986913 20.5532 0.985084 20.6172V31.9439H0.226397C0.101965 31.9439 0 32.0857 0 32.2585C0 32.4313 0.101965 32.573 0.226397 32.573H1.38776C1.41929 32.5727 1.45022 32.5644 1.47763 32.5488C1.53842 32.5281 1.59149 32.4895 1.62977 32.4379C1.66805 32.3864 1.68973 32.3244 1.69192 32.2602V21.3344L8.19003 26.6694C8.25787 26.724 8.34232 26.7537 8.42938 26.7537C8.51645 26.7537 8.6009 26.724 8.66874 26.6694L15.1686 21.3344V32.2602C15.1689 32.3108 15.1821 32.3605 15.2069 32.4046C15.2316 32.4488 15.2672 32.4859 15.3103 32.5125C15.3271 32.5332 15.3482 32.55 15.372 32.5619C15.3958 32.5738 15.4219 32.5806 15.4485 32.5816H16.6099C16.7361 32.5816 16.8363 32.4417 16.8363 32.2671C16.8363 32.0926 16.7343 31.9439 16.6082 31.9439Z" fill="white"/>
<path d="M72.8954 25.2852C71.7548 25.2852 70.9304 25.6446 70.4102 26.3653L70.9512 26.8336C71.3579 26.2391 72.0031 25.9413 72.8868 25.9402C74.2037 25.9402 74.8673 26.5156 74.8673 27.6684V28.4564H72.5964C71.8763 28.4564 71.3003 28.6126 70.8682 28.9248C70.3843 29.2704 70.1406 29.7889 70.1406 30.4802C70.1406 31.8236 70.9996 32.4953 72.7174 32.4953C73.6195 32.4953 74.3316 32.2309 74.8587 31.7072V32.4071H75.6243V27.5854C75.6243 26.0519 74.7146 25.2852 72.8954 25.2852ZM74.8673 29.9513C74.8673 30.5908 74.736 31.0401 74.475 31.2942C74.1086 31.6519 73.5262 31.8351 72.733 31.8351C71.5232 31.8351 70.9097 31.3754 70.9097 30.4629C70.9097 29.5193 71.5042 29.044 72.6915 29.044H74.8673V29.9513Z" fill="white"/>
<path d="M82.5362 25.9436C83.2194 25.9436 83.822 26.2414 84.3439 26.8371L84.852 26.3687C84.5682 26.0303 84.214 25.758 83.8139 25.5708C83.4139 25.3837 82.9778 25.2862 82.5362 25.2852C81.5131 25.2852 80.7285 25.64 80.1824 26.3497C79.6869 26.9926 79.4387 27.84 79.4375 28.8919C79.4364 29.9439 79.6846 30.7913 80.1824 31.4342C80.7273 32.1427 81.5119 32.4976 82.5362 32.4987C82.9783 32.4988 83.4151 32.402 83.8158 32.215C84.2165 32.0281 84.5714 31.7557 84.8555 31.4169L84.3474 30.9503C83.8243 31.5448 83.2217 31.842 82.5397 31.842C80.9797 31.842 80.1985 30.8587 80.1962 28.8919C80.1939 26.9252 80.9739 25.9425 82.5362 25.9436Z" fill="white"/>
<path d="M90.6693 25.2852C89.531 25.2852 88.7037 25.6452 88.1876 26.3653L88.7268 26.8336C89.1312 26.2403 89.7758 25.9436 90.6607 25.9436C91.9787 25.9436 92.6383 26.5197 92.6395 27.6718V28.4599H90.3738C89.6514 28.4599 89.0793 28.6154 88.6456 28.9282C88.1599 29.2739 87.918 29.7923 87.918 30.4836C87.918 31.827 88.7769 32.4987 90.4947 32.4987C91.3951 32.4987 92.1106 32.2343 92.6343 31.7107V32.4106H93.3947V27.5889C93.3993 26.0531 92.4908 25.2852 90.6693 25.2852ZM92.6412 29.9513C92.6412 30.5908 92.5098 31.0401 92.2506 31.2942C91.8842 31.6519 91.3035 31.8351 90.5103 31.8351C89.3005 31.8351 88.6836 31.3754 88.6836 30.4629C88.6836 29.5193 89.2781 29.044 90.4671 29.044H92.6412V29.9513Z" fill="white"/>
<path d="M101.929 26.277C101.435 25.6168 100.741 25.2861 99.8465 25.285C98.0987 25.285 97.2254 26.4872 97.2266 28.8918C97.2277 31.2963 98.101 32.4985 99.8465 32.4985C100.741 32.4985 101.435 32.1673 101.929 31.5048V32.4104H102.688V22.0117H101.929V26.277ZM99.9589 31.8418C98.6443 31.8418 97.9864 30.8585 97.9853 28.8918C97.9853 28.0161 98.0964 27.349 98.3188 26.8905C98.6287 26.2591 99.1754 25.9434 99.9589 25.9434C100.742 25.9434 101.288 26.2603 101.597 26.8939C101.818 27.3548 101.929 28.0219 101.929 28.8952C101.929 30.8585 101.272 31.8407 99.9589 31.8418Z" fill="white"/>
<path d="M109.374 25.2852C108.403 25.2852 107.673 25.659 107.184 26.4068C106.767 27.0416 106.559 27.87 106.559 28.8919C106.559 31.2965 107.556 32.4987 109.552 32.4987C110.026 32.501 110.496 32.4062 110.932 32.2201C111.369 32.0341 111.762 31.7607 112.089 31.4169L111.534 30.9814C111.289 31.2513 110.991 31.4675 110.658 31.6162C110.325 31.765 109.965 31.843 109.6 31.8455C108.074 31.8455 107.311 30.9151 107.312 29.0544H112.191V28.7088C112.191 27.7254 111.973 26.927 111.532 26.3152C111.052 25.6273 110.328 25.2852 109.374 25.2852ZM107.316 28.453C107.319 27.992 107.404 27.5352 107.564 27.1032C107.705 26.7493 107.958 26.4516 108.285 26.2564C108.613 26.0474 108.994 25.9375 109.383 25.9402C109.775 25.9361 110.159 26.0486 110.487 26.2633C111.091 26.6528 111.411 27.3826 111.449 28.453H107.316Z" fill="white"/>
<path d="M123.565 25.287C122.511 25.287 121.718 25.7156 121.173 26.5693C120.737 25.7156 119.983 25.2881 118.911 25.287C118.517 25.2722 118.124 25.3473 117.763 25.5066C117.402 25.6658 117.082 25.9052 116.827 26.2064V25.3717H116.066V32.4124H116.825V28.0452C116.825 27.3937 116.998 26.8804 117.331 26.5054C117.665 26.1304 118.159 25.942 118.795 25.942C120.087 25.9443 120.733 26.6454 120.733 28.0452V32.4124H121.491V27.9191C121.478 27.6548 121.519 27.3906 121.612 27.143C121.705 26.8953 121.848 26.6694 122.032 26.4795C122.225 26.2979 122.452 26.157 122.7 26.0653C122.948 25.9735 123.213 25.9328 123.477 25.9454C124.772 25.9454 125.42 26.6465 125.42 28.0487V32.4159H126.151V27.9225C126.151 27.116 125.92 26.4754 125.459 26.0007C125.001 25.522 124.362 25.287 123.565 25.287Z" fill="white"/>
<path d="M134.185 25.3711L132.071 31.5357L129.961 25.3711H129.137L131.713 32.4291L131.147 33.9845C131.06 34.2725 130.9 34.5333 130.683 34.7415C130.436 34.8957 130.145 34.9666 129.854 34.9437H129.574V35.6004H129.92C130.404 35.626 130.88 35.4639 131.249 35.1476C131.473 34.9193 131.638 34.6391 131.729 34.3319L135.001 25.3763L134.185 25.3711Z" fill="white"/>
<path d="M29.1106 20.0117C27.2096 20.0117 25.827 20.6114 24.9629 21.8073L26.9054 23.285C27.2908 22.6524 28.0685 22.3396 29.2299 22.3396C30.1372 22.3396 30.7853 22.4589 31.1741 22.6853C31.563 22.9117 31.7531 23.3282 31.7531 23.9106V25.1964H28.3381C27.0748 25.1964 26.0811 25.5576 25.3535 26.2869C25.0167 26.6176 24.7523 27.0146 24.5768 27.4528C24.4012 27.891 24.3185 28.3608 24.3338 28.8325C24.3338 29.9351 24.7163 30.8246 25.4814 31.5009C26.2798 32.2279 27.3536 32.5926 28.7028 32.5949C30.234 32.5949 31.2513 32.1824 31.7548 31.3575V32.448H34.2279V24.0575C34.2279 21.3615 32.5221 20.0129 29.1106 20.0117ZM31.7548 28.1343C31.7548 29.1056 31.5059 29.7295 31.003 30.0025C30.6977 30.1777 30.0271 30.2652 28.9914 30.2652C27.4394 30.2652 26.6635 29.7468 26.6635 28.7098C26.6635 27.7213 27.3755 27.2305 28.7961 27.2305H31.7548V28.1343Z" fill="white"/>
<path d="M41.77 15.1875H39.2969V17.6606H41.77V15.1875Z" fill="white"/>
<path d="M41.77 20.1602H39.2969V32.4564H41.77V20.1602Z" fill="white"/>
<path d="M60.0714 20.0118C58.448 20.0118 57.1496 20.5452 56.176 21.6121C55.1391 20.5441 53.9789 20.0107 52.6954 20.0118C51.3335 20.0118 50.2638 20.4969 49.4861 21.467V20.157H47.0078V32.4532H49.4826V25.1273C49.4826 24.3047 49.709 23.6601 50.1618 23.1883C50.3918 22.9548 50.668 22.772 50.9728 22.6515C51.2775 22.531 51.6041 22.4754 51.9315 22.4883C52.2551 22.4771 52.5776 22.5335 52.8781 22.654C53.1787 22.7746 53.4508 22.9565 53.677 23.1883C54.1298 23.6601 54.3562 24.3047 54.3562 25.1273V32.4532H56.8275V25.1273C56.8275 24.3047 57.0557 23.6601 57.5067 23.1883C57.7371 22.9544 58.0139 22.7713 58.3193 22.6508C58.6247 22.5302 58.9519 22.4749 59.2799 22.4883C59.6041 22.4773 59.927 22.5341 60.2279 22.6553C60.5288 22.7764 60.801 22.9591 61.0271 23.1917C61.4799 23.6635 61.7029 24.3082 61.7029 25.1308V32.4567H64.1777V24.2822C64.1777 22.9711 63.7306 21.9123 62.8366 21.1058C62.0911 20.3971 61.1 20.005 60.0714 20.0118Z" fill="white"/>
<path d="M134.775 37.3594H24.1016V37.9954H134.775V37.3594Z" fill="white"/>
<path d="M28.8754 45.8396C28.8842 45.7339 28.8842 45.6634 28.8842 45.6017C28.8842 44.262 28.1086 43.1867 26.7601 43.1867C25.4909 43.1867 24.5742 44.2443 24.5742 45.5664C24.5742 46.9855 25.6054 47.9462 26.8482 47.9462C27.7208 47.9462 28.2672 47.6112 28.7256 47.0912L28.3025 46.7122C27.9235 47.1 27.5004 47.3556 26.8658 47.3556C26.0638 47.3556 25.3587 46.8004 25.2617 45.8396H28.8754ZM25.2617 45.2932C25.3587 44.4118 25.9668 43.7596 26.7424 43.7596C27.6326 43.7596 28.1262 44.4735 28.1967 45.2932H25.2617Z" fill="white"/>
<path d="M30.134 47.8404H30.8127V41.4062H30.134V47.8404Z" fill="white"/>
<path d="M36.4068 45.8396C36.4156 45.7339 36.4156 45.6634 36.4156 45.6017C36.4156 44.262 35.64 43.1867 34.2915 43.1867C33.0223 43.1867 32.1056 44.2443 32.1056 45.5664C32.1056 46.9855 33.1369 47.9462 34.3796 47.9462C35.2522 47.9462 35.7987 47.6112 36.257 47.0912L35.8339 46.7122C35.4549 47.1 35.0319 47.3556 34.3973 47.3556C33.5952 47.3556 32.8901 46.8004 32.7931 45.8396H36.4068ZM32.7931 45.2932C32.8901 44.4118 33.4982 43.7596 34.2739 43.7596C35.1641 43.7596 35.6576 44.4735 35.7282 45.2932H32.7931Z" fill="white"/>
<path d="M38.9611 47.9374C39.7631 47.9374 40.2832 47.576 40.6005 47.1617V47.8404H41.2703V45.0552C41.2703 44.4823 41.1117 44.0328 40.7944 43.7155C40.4594 43.3806 39.9659 43.2131 39.3224 43.2131C38.6526 43.2131 38.1678 43.3629 37.6654 43.6009L37.8681 44.1562C38.2912 43.9535 38.7143 43.8301 39.2519 43.8301C40.1069 43.8301 40.6005 44.2531 40.6005 45.064V45.205C40.1862 45.0905 39.7984 45.0111 39.2079 45.0111C38.0532 45.0111 37.26 45.5223 37.26 46.5007V46.5183C37.26 47.4614 38.1061 47.9374 38.9611 47.9374ZM39.0933 47.3909C38.4851 47.3909 37.9475 47.056 37.9475 46.4831V46.4654C37.9475 45.9102 38.4322 45.5488 39.2784 45.5488C39.8425 45.5488 40.2655 45.6457 40.6093 45.7427V46.1658C40.6093 46.8973 39.9306 47.3909 39.0933 47.3909Z" fill="white"/>
<path d="M42.7079 47.8404H43.3866V46.0247C43.3866 44.6498 44.1974 43.9358 45.1934 43.9358H45.2463V43.2043C44.3825 43.1778 43.7215 43.7155 43.3866 44.4735V43.2836H42.7079V47.8404Z" fill="white"/>
<path d="M46.2799 47.8404H46.9586V45.2315C46.9586 44.3765 47.5403 43.8036 48.3248 43.8036C49.1356 43.8036 49.5851 44.3325 49.5851 45.1786V47.8404H50.2638V45.0111C50.2638 43.927 49.6116 43.1867 48.5187 43.1867C47.7342 43.1867 47.2671 43.5833 46.9586 44.0769V43.2836H46.2799V47.8404Z" fill="white"/>
<path d="M51.7288 42.2876H52.5044V41.5385H51.7288V42.2876ZM51.7729 47.8404H52.4515V43.2836H51.7729V47.8404Z" fill="white"/>
<path d="M54.0265 47.8404H54.7052V45.2315C54.7052 44.3765 55.2869 43.8036 56.0714 43.8036C56.8822 43.8036 57.3317 44.3325 57.3317 45.1786V47.8404H58.0104V45.0111C58.0104 43.927 57.3582 43.1867 56.2653 43.1867C55.4808 43.1867 55.0137 43.5833 54.7052 44.0769V43.2836H54.0265V47.8404Z" fill="white"/>
<path d="M61.4761 49.2683C62.2077 49.2683 62.7982 49.0744 63.2125 48.6601C63.5915 48.2811 63.7942 47.7523 63.7942 47.0472V43.2836H63.1155V44.1033C62.7365 43.6097 62.1901 43.1867 61.3351 43.1867C60.2422 43.1867 59.1933 44.0064 59.1933 45.3373V45.3549C59.1933 46.6593 60.2422 47.4879 61.3351 47.4879C62.1724 47.4879 62.7277 47.056 63.1243 46.5271V47.0648C63.1243 48.1313 62.4809 48.6865 61.4673 48.6865C60.8063 48.6865 60.2422 48.4838 59.7134 48.1048L59.4049 48.6337C60.013 49.0567 60.7093 49.2683 61.4761 49.2683ZM61.4673 46.8885C60.6212 46.8885 59.8896 46.2539 59.8896 45.3373V45.3196C59.8896 44.3854 60.5948 43.786 61.4673 43.786C62.3311 43.786 63.142 44.3942 63.142 45.3284V45.3461C63.142 46.2627 62.3311 46.8885 61.4673 46.8885Z" fill="white"/>
</svg>
