<svg width="24" height="25" viewBox="0 0 24 25" fill="none" xmlns="http://www.w3.org/2000/svg">
<path d="M17.0099 0.128906H6.55194C4.91534 0.130927 3.34632 0.813457 2.18907 2.02677C1.03182 3.24009 0.380833 4.88513 0.378906 6.60101V17.5656C0.380833 19.2815 1.03182 20.9266 2.18907 22.1399C3.34632 23.3532 4.91534 24.0357 6.55194 24.0378H17.0099C18.6465 24.0357 20.2155 23.3532 21.3727 22.1399C22.53 20.9266 23.181 19.2815 23.1829 17.5656V6.60101C23.181 4.88513 22.53 3.24009 21.3727 2.02677C20.2155 0.813457 18.6465 0.130927 17.0099 0.128906ZM11.7783 18.6203C10.5453 18.619 9.34029 18.2345 8.31567 17.5153C7.29106 16.7961 6.49282 15.7746 6.02186 14.5798C5.5509 13.3851 5.42837 12.0707 5.66975 10.803C5.91114 9.5352 6.5056 8.37094 7.378 7.45734C8.25039 6.54375 9.36155 5.92184 10.571 5.67024C11.7805 5.41864 13.0339 5.54865 14.1729 6.04382C15.3119 6.53899 16.2853 7.37709 16.9701 8.45219C17.6548 9.52729 18.0202 10.7911 18.02 12.0839C18.0181 13.8182 17.3596 15.4807 16.1893 16.7063C15.0189 17.9319 13.4324 18.6203 11.7783 18.6203ZM18.1646 7.08964C17.8003 7.08942 17.4442 6.97596 17.1413 6.76358C16.8385 6.5512 16.6025 6.24945 16.4632 5.89648C16.324 5.5435 16.2876 5.15516 16.3588 4.78054C16.43 4.40592 16.6056 4.06184 16.8633 3.79181C17.121 3.52178 17.4492 3.33792 17.8066 3.26348C18.1639 3.18904 18.5343 3.22735 18.8709 3.37358C19.2075 3.51981 19.4952 3.76739 19.6976 4.08502C19.8999 4.40264 20.008 4.77605 20.008 5.15804C20.0074 5.67035 19.813 6.16148 19.4674 6.52364C19.1218 6.88579 18.6532 7.08935 18.1646 7.08964Z" fill="white"/>
</svg>
