<svg width="19" height="23" viewBox="0 0 19 23" fill="none" xmlns="http://www.w3.org/2000/svg">
<path d="M13.3259 6.81742C14.8432 7.95475 16.6622 8.56503 18.5273 8.56252V5.48243C17.4665 5.24196 16.5032 4.66188 15.7706 3.82241C15.1481 3.41586 14.6141 2.87658 14.2033 2.23958C13.7926 1.60259 13.5142 0.882133 13.3863 0.125H10.6628V15.7577C10.6599 16.4496 10.4505 17.1232 10.0639 17.6839C9.67728 18.2447 9.13291 18.6644 8.50717 18.8842C7.88144 19.104 7.20576 19.1129 6.57499 18.9095C5.94421 18.7062 5.39 18.3008 4.99015 17.7504C4.28745 17.3717 3.74566 16.7307 3.47167 15.9537C3.19768 15.1767 3.21139 14.3203 3.51011 13.5534C3.80882 12.7866 4.37084 12.1649 5.08526 11.8112C5.79968 11.4574 6.61462 11.3973 7.36927 11.6426V8.52543C6.02403 8.55571 4.71658 8.9977 3.60784 9.797C2.4991 10.5963 1.63745 11.718 1.12893 13.0242C0.620414 14.3303 0.487225 15.7638 0.745747 17.1482C1.00427 18.5327 1.64322 19.8077 2.58398 20.8163C3.62317 21.5458 4.8318 21.9657 6.08084 22.0312C7.32988 22.0967 8.57243 21.8053 9.67585 21.1882C10.7793 20.571 11.7021 19.6513 12.3459 18.5272C12.9897 17.4031 13.3302 16.1168 13.3311 14.8056V6.81742H13.3259Z" fill="white"/>
</svg>
