<svg width="9" height="8" viewBox="0 0 9 8" fill="none" xmlns="http://www.w3.org/2000/svg">
<path opacity="0.47" d="M5.899 2.5078L8.44637 2.87156C8.49398 2.87802 8.5388 2.89729 8.57559 2.92725C8.61238 2.95721 8.6397 2.9966 8.65442 3.0409C8.66913 3.0852 8.67061 3.13264 8.65875 3.17773C8.64689 3.22283 8.62213 3.26378 8.58732 3.29588L6.73947 5.03361C6.71016 5.06147 6.68816 5.09576 6.67543 5.13357C6.66271 5.17138 6.65964 5.21163 6.66639 5.25085L7.09963 7.70593C7.10877 7.75221 7.10409 7.80003 7.08612 7.84381C7.06814 7.8876 7.03765 7.92556 6.99818 7.95315C6.95871 7.98073 6.91189 7.99684 6.86328 7.99958C6.81468 8.00233 6.76631 7.99158 6.7238 7.96862L4.44788 6.80673C4.41043 6.78927 4.3694 6.78021 4.32783 6.78021C4.28626 6.78021 4.24517 6.78927 4.20771 6.80673L1.93179 7.96357C1.88908 7.98445 1.84129 7.99355 1.79358 7.9899C1.74588 7.98625 1.7001 7.97003 1.6613 7.94291C1.6225 7.91579 1.59213 7.87885 1.57356 7.83617C1.55498 7.79349 1.54891 7.74668 1.55597 7.70087L1.99443 5.2458C2.00261 5.20656 2.00023 5.16595 1.98742 5.12789C1.97462 5.08984 1.95182 5.0556 1.92134 5.02855L0.0787262 3.28577C0.0437977 3.25334 0.0190947 3.21198 0.00748617 3.16651C-0.0041224 3.12103 -0.00221278 3.07331 0.0130936 3.02887C0.0284 2.98443 0.0564744 2.94511 0.0939555 2.91547C0.131437 2.88583 0.17679 2.86711 0.224838 2.86145L2.77221 2.5078C2.81303 2.50084 2.85171 2.48495 2.88519 2.4613C2.91867 2.43766 2.94605 2.40695 2.96535 2.37146L4.10856 0.138623C4.12962 0.0970443 4.16227 0.0619925 4.20287 0.0374924C4.24347 0.0129924 4.29037 0 4.33821 0C4.38606 0 4.43296 0.0129924 4.47356 0.0374924C4.51416 0.0619925 4.54687 0.0970443 4.56793 0.138623L5.70586 2.37146C5.72336 2.40825 5.7503 2.44008 5.78411 2.46396C5.81791 2.48783 5.85745 2.50289 5.899 2.5078Z" fill="url(#paint0_linear_3324_14402)"/>
<defs>
<linearGradient id="paint0_linear_3324_14402" x1="12738" y1="11500.2" x2="12881.9" y2="11500.2" gradientUnits="userSpaceOnUse">
<stop stop-color="#E32068"/>
<stop offset="1" stop-color="#F5003B"/>
</linearGradient>
</defs>
</svg>
