<svg width="7" height="8" viewBox="0 0 7 8" fill="none" xmlns="http://www.w3.org/2000/svg">
<path d="M4.34537 3.92768C4.73149 3.67921 5.02712 3.31155 5.18795 2.87987C5.34877 2.44818 5.3661 1.97573 5.23738 1.5333C5.10866 1.09086 4.84081 0.702303 4.47397 0.425868C4.10713 0.149432 3.66105 0 3.20264 0C2.74423 0 2.29815 0.149432 1.93131 0.425868C1.56446 0.702303 1.29662 1.09086 1.1679 1.5333C1.03917 1.97573 1.05651 2.44818 1.21733 2.87987C1.37815 3.31155 1.67379 3.67921 2.05991 3.92768C1.45194 4.16194 0.929293 4.57672 0.561353 5.11687C0.193414 5.65702 -0.00238951 6.29697 2.20102e-05 6.9517C0.00133982 7.22932 0.111625 7.49521 0.306842 7.69152C0.50206 7.88783 0.766401 7.99867 1.04248 8H5.36274C5.63882 7.99867 5.90322 7.88783 6.09844 7.69152C6.29365 7.49521 6.40394 7.22932 6.40526 6.9517C6.40767 6.29697 6.21186 5.65702 5.84392 5.11687C5.47599 4.57672 4.95334 4.16194 4.34537 3.92768ZM1.62889 2.1334C1.62889 1.8204 1.72119 1.51448 1.89411 1.25422C2.06703 0.993972 2.31281 0.791128 2.60038 0.671348C2.88794 0.551567 3.20437 0.520213 3.50964 0.581277C3.81492 0.642341 4.09536 0.793078 4.31545 1.0144C4.53554 1.23573 4.68544 1.51768 4.74616 1.82467C4.80689 2.13166 4.77571 2.44986 4.65659 2.73904C4.53748 3.02822 4.33577 3.27537 4.07697 3.44927C3.81817 3.62316 3.5139 3.71598 3.20264 3.71598C2.99404 3.71533 2.78764 3.67316 2.59536 3.59182C2.40308 3.51048 2.2287 3.39162 2.08236 3.24212C1.93603 3.09262 1.82065 2.91545 1.74281 2.72083C1.66497 2.52621 1.62624 2.31799 1.62889 2.10824V2.1334ZM5.36274 7.43047H1.04248C0.909553 7.43047 0.782111 7.3774 0.688119 7.28288C0.594128 7.18836 0.541286 7.06014 0.541286 6.92647C0.541286 6.21936 0.820635 5.5412 1.31785 5.0412C1.81507 4.54119 2.48944 4.26034 3.19261 4.26034C3.89577 4.26034 4.57015 4.54119 5.06736 5.0412C5.56458 5.5412 5.84392 6.21936 5.84392 6.92647C5.83775 7.05231 5.78493 7.1713 5.69587 7.25993C5.60681 7.34856 5.48794 7.40042 5.36274 7.40531V7.43047Z" fill="url(#paint0_linear_3324_14395)"/>
<defs>
<linearGradient id="paint0_linear_3324_14395" x1="8534.97" y1="11504.6" x2="8616.83" y2="11504.6" gradientUnits="userSpaceOnUse">
<stop stop-color="#E32068"/>
<stop offset="1" stop-color="#F5003B"/>
</linearGradient>
</defs>
</svg>
