<svg width="9" height="8" viewBox="0 0 9 8" fill="none" xmlns="http://www.w3.org/2000/svg">
<path d="M5.89905 2.5078L8.44643 2.87156C8.49405 2.87802 8.5388 2.89729 8.57559 2.92725C8.61238 2.95721 8.6397 2.9966 8.65442 3.0409C8.66913 3.0852 8.67061 3.13264 8.65875 3.17773C8.64689 3.22283 8.62213 3.26378 8.58732 3.29588L6.73947 5.03361C6.71015 5.06147 6.68821 5.09576 6.67549 5.13357C6.66277 5.17138 6.65964 5.21163 6.66638 5.25085L7.09962 7.70593C7.10877 7.75221 7.10408 7.80003 7.08611 7.84381C7.06814 7.8876 7.03764 7.92556 6.99818 7.95315C6.95871 7.98073 6.91194 7.99684 6.86334 7.99958C6.81474 8.00233 6.76631 7.99158 6.72379 7.96862L4.44787 6.80673C4.41041 6.78927 4.36939 6.78021 4.32782 6.78021C4.28624 6.78021 4.24522 6.78927 4.20777 6.80673L1.93177 7.96357C1.88906 7.98445 1.84127 7.99355 1.79356 7.9899C1.74586 7.98625 1.70008 7.97003 1.66128 7.94291C1.62248 7.91579 1.59218 7.87885 1.5736 7.83617C1.55502 7.79349 1.54889 7.74668 1.55595 7.70087L1.99441 5.2458C2.00259 5.20656 2.00021 5.16595 1.9874 5.12789C1.9746 5.08984 1.95187 5.0556 1.92139 5.02855L0.0787012 3.28577C0.0437727 3.25334 0.0190696 3.21198 0.00746101 3.16651C-0.00414759 3.12103 -0.00217424 3.07331 0.0131322 3.02887C0.0284386 2.98443 0.0564494 2.94511 0.0939305 2.91547C0.131412 2.88583 0.176829 2.86711 0.224877 2.86145L2.77226 2.5078C2.81307 2.50084 2.85169 2.48495 2.88517 2.4613C2.91865 2.43766 2.9461 2.40695 2.96539 2.37146L4.10855 0.138623C4.12961 0.0970443 4.16232 0.0619925 4.20292 0.0374924C4.24352 0.0129924 4.29042 0 4.33827 0C4.38611 0 4.43294 0.0129924 4.47355 0.0374924C4.51415 0.0619925 4.54686 0.0970443 4.56792 0.138623L5.70591 2.37146C5.72341 2.40825 5.75029 2.44008 5.7841 2.46396C5.8179 2.48783 5.85751 2.50289 5.89905 2.5078Z" fill="url(#paint0_linear_3324_14398)"/>
<defs>
<linearGradient id="paint0_linear_3324_14398" x1="12059.7" y1="11500.2" x2="12203.5" y2="11500.2" gradientUnits="userSpaceOnUse">
<stop stop-color="#E32068"/>
<stop offset="1" stop-color="#F5003B"/>
</linearGradient>
</defs>
</svg>
