<svg width="8" height="8" viewBox="0 0 8 8" fill="none" xmlns="http://www.w3.org/2000/svg">
<path fill-rule="evenodd" clip-rule="evenodd" d="M6.27496 5.17352C6.38073 5.1613 6.4879 5.17157 6.58942 5.20363C6.69093 5.2357 6.78446 5.28889 6.86395 5.35963C6.94344 5.43037 7.0071 5.5171 7.05066 5.61413C7.09422 5.71116 7.1167 5.81625 7.1167 5.92258C7.1167 6.02892 7.09422 6.13407 7.05066 6.23109C7.0071 6.32812 6.94344 6.41486 6.86395 6.4856C6.78446 6.55634 6.69093 6.60952 6.58942 6.64159C6.4879 6.67366 6.38073 6.68386 6.27496 6.67164C6.1692 6.68386 6.06202 6.67366 5.96051 6.64159C5.859 6.60952 5.76547 6.55634 5.68597 6.4856C5.60648 6.41486 5.54289 6.32812 5.49933 6.23109C5.45577 6.13407 5.43323 6.02892 5.43323 5.92258C5.43323 5.81625 5.45577 5.71116 5.49933 5.61413C5.54289 5.5171 5.60648 5.43037 5.68597 5.35963C5.76547 5.28889 5.859 5.2357 5.96051 5.20363C6.06202 5.17157 6.1692 5.1613 6.27496 5.17352ZM4.11499 5.17352C4.26432 5.17352 4.41026 5.21776 4.53442 5.30062C4.65858 5.38348 4.75536 5.50128 4.8125 5.63906C4.86964 5.77685 4.8846 5.92846 4.85547 6.07474C4.82634 6.22101 4.75445 6.35533 4.64886 6.46079C4.54328 6.56624 4.40872 6.6381 4.26227 6.66719C4.11581 6.69629 3.96401 6.68135 3.82605 6.62428C3.68809 6.56721 3.57014 6.47056 3.48718 6.34655C3.40422 6.22255 3.35999 6.07672 3.35999 5.92758C3.35864 5.82818 3.37721 5.72957 3.41467 5.63748C3.45214 5.54538 3.50775 5.46168 3.57812 5.39139C3.6485 5.3211 3.73225 5.26562 3.82446 5.2282C3.91667 5.19078 4.01547 5.17218 4.11499 5.17352ZM1.93994 5.17352C2.0457 5.1613 2.15288 5.17157 2.25439 5.20363C2.35591 5.2357 2.4495 5.28889 2.52899 5.35963C2.60848 5.43037 2.67208 5.5171 2.71564 5.61413C2.7592 5.71116 2.78174 5.81625 2.78174 5.92258C2.78174 6.02892 2.7592 6.13407 2.71564 6.23109C2.67208 6.32812 2.60848 6.41486 2.52899 6.4856C2.4495 6.55634 2.35591 6.60952 2.25439 6.64159C2.15288 6.67366 2.0457 6.68386 1.93994 6.67164C1.75595 6.65039 1.58623 6.56239 1.46301 6.42427C1.3398 6.28616 1.27173 6.10757 1.27173 5.92258C1.27173 5.7376 1.3398 5.55907 1.46301 5.42095C1.58623 5.28284 1.75595 5.19477 1.93994 5.17352ZM6.27496 3.22101C6.47434 3.221 6.66562 3.29976 6.80707 3.44009C6.94851 3.58043 7.02865 3.77095 7.02997 3.97007C7.03131 4.06947 7.01269 4.16808 6.97522 4.26017C6.93775 4.35227 6.88221 4.43597 6.81183 4.50626C6.74145 4.57655 6.6577 4.63203 6.56549 4.66945C6.47328 4.70687 6.37448 4.72547 6.27496 4.72413C6.07426 4.72413 5.8817 4.64485 5.73932 4.50358C5.59693 4.36231 5.51627 4.17052 5.51495 3.97007C5.52011 3.77131 5.60214 3.58225 5.74384 3.44259C5.88553 3.30293 6.0759 3.22352 6.27496 3.22101ZM4.11499 3.22101C4.31357 3.22356 4.50333 3.30311 4.64423 3.4429C4.78512 3.58268 4.86612 3.77176 4.87 3.97007C4.87 4.17006 4.79045 4.36186 4.64886 4.50328C4.50727 4.64469 4.31523 4.72413 4.11499 4.72413C4.01547 4.72547 3.91667 4.70687 3.82446 4.66945C3.73225 4.63203 3.6485 4.57655 3.57812 4.50626C3.50775 4.43597 3.45214 4.35227 3.41467 4.26017C3.37721 4.16808 3.35864 4.06947 3.35999 3.97007C3.36131 3.77095 3.44144 3.58043 3.58289 3.44009C3.72433 3.29976 3.91562 3.221 4.11499 3.22101ZM1.93994 3.22101C2.13932 3.221 2.3306 3.29976 2.47205 3.44009C2.61349 3.58043 2.69363 3.77095 2.69495 3.97007C2.70718 4.0757 2.6969 4.18268 2.66479 4.28407C2.63269 4.38545 2.57949 4.47893 2.50867 4.55832C2.43784 4.63771 2.351 4.70123 2.25385 4.74473C2.15669 4.78824 2.05141 4.81075 1.94495 4.81075C1.83848 4.81075 1.73326 4.78824 1.63611 4.74473C1.53896 4.70123 1.45211 4.63771 1.38129 4.55832C1.31046 4.47893 1.25721 4.38545 1.2251 4.28407C1.19299 4.18268 1.18271 4.0757 1.19495 3.97007C1.19754 3.77221 1.27739 3.58318 1.41748 3.44326C1.55758 3.30334 1.74684 3.22359 1.94495 3.22101H1.93994ZM1.73499 1.50812H2.23499C2.26782 1.50747 2.30018 1.50037 2.33026 1.48721C2.36034 1.47406 2.38753 1.45515 2.41028 1.4315C2.43303 1.40785 2.45094 1.37993 2.46289 1.34939C2.47485 1.31884 2.48064 1.28623 2.47998 1.25344V0.254686C2.48064 0.221895 2.47485 0.189284 2.46289 0.158737C2.45094 0.12819 2.43303 0.100337 2.41028 0.0766863C2.38753 0.0530356 2.36034 0.0340605 2.33026 0.0209089C2.30018 0.00775732 2.26782 0.000649272 2.23499 4.44221e-09H1.73499C1.66956 0.00260185 1.60774 0.0307691 1.56287 0.0783931C1.51799 0.126017 1.49363 0.189301 1.495 0.254686V1.25344C1.49488 1.31846 1.51965 1.3811 1.56427 1.42845C1.60889 1.4758 1.66999 1.5043 1.73499 1.50812ZM8 2.0075V7.00125C8 7.26613 7.89463 7.52016 7.70709 7.70746C7.51956 7.89476 7.26522 8 7 8H1C0.734784 8 0.480383 7.89476 0.292847 7.70746C0.10531 7.52016 0 7.26613 0 7.00125V2.0075C0 1.74261 0.10531 1.48859 0.292847 1.30129C0.480383 1.11399 0.734784 1.00875 1 1.00875H1.23999V1.25344C1.23999 1.38588 1.29265 1.51292 1.38641 1.60657C1.48018 1.70022 1.60738 1.75281 1.73999 1.75281H2.23999C2.3726 1.75281 2.49974 1.70022 2.59351 1.60657C2.68727 1.51292 2.73999 1.38588 2.73999 1.25344V1.00875H5.23999V1.25344C5.23999 1.38588 5.29265 1.51292 5.38641 1.60657C5.48018 1.70022 5.60738 1.75281 5.73999 1.75281H6.23999C6.3726 1.75281 6.49974 1.70022 6.59351 1.60657C6.68727 1.51292 6.73999 1.38588 6.73999 1.25344V1.00875H7C7.26522 1.00875 7.51956 1.11399 7.70709 1.30129C7.89463 1.48859 8 1.74261 8 2.0075ZM7.5 3.00625C7.5 2.04245 1.855 2.50687 1 2.50687C0.867392 2.50687 0.740192 2.55952 0.646423 2.65317C0.552655 2.74683 0.5 2.87381 0.5 3.00625V7.00125C0.5 7.13369 0.552655 7.26073 0.646423 7.35438C0.740192 7.44804 0.867392 7.50062 1 7.50062H7C7.13261 7.50062 7.25975 7.44804 7.35352 7.35438C7.44728 7.26073 7.5 7.13369 7.5 7.00125V3.00625ZM5.745 1.50812H6.245C6.31222 1.50684 6.37634 1.47959 6.42389 1.43211C6.47144 1.38462 6.49872 1.32058 6.5 1.25344V0.254686C6.5 0.187141 6.47311 0.122376 6.42529 0.0746137C6.37747 0.0268517 6.31263 4.44221e-09 6.245 4.44221e-09H5.745C5.6769 -1.25732e-05 5.61148 0.0266852 5.56287 0.0743089C5.51425 0.121933 5.48629 0.186685 5.48499 0.254686V1.25344C5.48753 1.32103 5.51586 1.38511 5.56421 1.43247C5.61256 1.47984 5.67728 1.50689 5.745 1.50812Z" fill="url(#paint0_linear_3324_14393)"/>
<defs>
<linearGradient id="paint0_linear_3324_14393" x1="9690.24" y1="11500.9" x2="9818.48" y2="11500.9" gradientUnits="userSpaceOnUse">
<stop stop-color="#E32068"/>
<stop offset="1" stop-color="#F5003B"/>
</linearGradient>
</defs>
</svg>
