<svg width="37" height="29" viewBox="0 0 37 29" fill="none" xmlns="http://www.w3.org/2000/svg">
<path d="M6.01975 4.91789C5.99257 4.76988 5.91119 4.63739 5.79157 4.54644C5.67196 4.45549 5.52275 4.41265 5.37324 4.42633C5.22373 4.44 5.08473 4.50921 4.98351 4.62037C4.88229 4.73152 4.82617 4.87659 4.82617 5.02709C4.82617 5.17759 4.88229 5.32266 4.98351 5.43381C5.08473 5.54497 5.22373 5.61417 5.37324 5.62785C5.52275 5.64153 5.67196 5.59869 5.79157 5.50774C5.91119 5.41679 5.99257 5.2843 6.01975 5.13628C6.02839 5.10053 6.03273 5.06387 6.03269 5.02709C6.03268 4.99031 6.02834 4.95365 6.01975 4.91789Z" fill="#E7314B"/>
<path d="M2.64519 13.2711C2.70295 13.2742 2.75961 13.2544 2.80275 13.2159C2.84589 13.1774 2.87201 13.1234 2.87537 13.0657V5.0417L5.63071 0.629746L8.38654 5.0417V13.0657C8.39291 13.1224 8.41995 13.1747 8.4625 13.2127C8.50505 13.2507 8.56013 13.2717 8.6172 13.2717C8.67428 13.2717 8.72935 13.2507 8.7719 13.2127C8.81445 13.1747 8.8415 13.1224 8.84786 13.0657V4.98625C8.8482 4.95071 8.83814 4.91585 8.81891 4.88596L5.8329 0.106098C5.81037 0.0733784 5.78022 0.0466242 5.74503 0.0281409C5.70985 0.00965765 5.6707 0 5.63095 0C5.59121 0 5.55206 0.00965765 5.51688 0.0281409C5.4817 0.0466242 5.45154 0.0733784 5.42901 0.106098L2.443 4.88981C2.42371 4.91973 2.41333 4.95452 2.41309 4.99011V13.0657C2.41694 13.1235 2.44346 13.1776 2.48691 13.216C2.53037 13.2545 2.58724 13.2743 2.64519 13.2711Z" fill="#343846"/>
<path d="M5.42939 13.2714C5.47978 13.2745 5.52921 13.255 5.56692 13.2173C5.60463 13.1795 5.62755 13.1265 5.63069 13.0699V5.63037C5.50233 5.69044 5.35838 5.69281 5.22852 5.63699V13.0699C5.23155 13.1265 5.25438 13.1795 5.29202 13.2172C5.32966 13.255 5.37905 13.2745 5.42939 13.2714Z" fill="#343846"/>
<path d="M5.42939 21.3155C5.37901 21.3125 5.32962 21.3324 5.29199 21.3708C5.25437 21.4093 5.23155 21.4633 5.22852 21.5209V28.7525C5.23447 28.8088 5.25821 28.8606 5.29526 28.8982C5.33231 28.9357 5.3801 28.9565 5.4296 28.9565C5.4791 28.9565 5.52689 28.9357 5.56394 28.8982C5.60099 28.8606 5.62473 28.8088 5.63069 28.7525V21.5209C5.62766 21.4632 5.60478 21.4092 5.56706 21.3707C5.52934 21.3322 5.47985 21.3124 5.42939 21.3155Z" fill="#343846"/>
<path d="M3.41886 21.3155C3.36846 21.3122 3.31902 21.333 3.28134 21.3733C3.24366 21.4136 3.2208 21.4702 3.21777 21.5307V27.1319C3.22332 27.1913 3.24689 27.2461 3.28398 27.286C3.32108 27.3258 3.3691 27.3478 3.41886 27.3478C3.46862 27.3478 3.51664 27.3258 3.55374 27.286C3.59083 27.2461 3.6144 27.1913 3.61995 27.1319V21.5307C3.61692 21.4702 3.59406 21.4136 3.55638 21.3733C3.51871 21.333 3.46926 21.3122 3.41886 21.3155Z" fill="#343846"/>
<path d="M7.44034 21.3155C7.38994 21.3122 7.3405 21.333 7.30282 21.3733C7.26514 21.4136 7.24229 21.4702 7.23926 21.5307V27.1319C7.2448 27.1913 7.26837 27.2461 7.30547 27.286C7.34256 27.3258 7.39058 27.3478 7.44034 27.3478C7.49011 27.3478 7.53812 27.3258 7.57522 27.286C7.61232 27.2461 7.63589 27.1913 7.64143 27.1319V21.5307C7.63829 21.4703 7.61541 21.4138 7.57775 21.3735C7.5401 21.3332 7.49072 21.3124 7.44034 21.3155Z" fill="#343846"/>
<path d="M10.7098 20.9024H10.237V13.4788C10.2358 13.4369 10.2221 13.3963 10.1977 13.3625C10.1733 13.3287 10.1394 13.3031 10.1005 13.2893C10.06 13.2731 10.016 13.268 9.97288 13.2745C9.9298 13.281 9.88917 13.299 9.85507 13.3265L5.43625 17.0132L1.0179 13.3289C0.983796 13.3014 0.943165 13.2834 0.900084 13.2769C0.857004 13.2704 0.81299 13.2755 0.772462 13.2917C0.733579 13.3056 0.699756 13.3311 0.675466 13.365C0.651176 13.3988 0.637562 13.4393 0.636425 13.4812V20.9024H0.146501C0.0661159 20.9024 0 20.9947 0 21.1088C0 21.2229 0.0661159 21.3152 0.146501 21.3152H0.898034C0.918373 21.315 0.938266 21.3091 0.955588 21.2983C0.994862 21.2849 1.02915 21.2596 1.05382 21.2258C1.07849 21.192 1.09235 21.1513 1.09353 21.1093V13.9492L5.28451 17.4453C5.32819 17.481 5.38257 17.5005 5.43862 17.5005C5.49468 17.5005 5.54905 17.481 5.59274 17.4453L9.78419 13.9492V21.1093C9.78513 21.1416 9.79392 21.1731 9.80977 21.2011C9.82562 21.2291 9.84805 21.2527 9.87504 21.2698C9.88587 21.2832 9.89933 21.2941 9.91456 21.302C9.9298 21.3098 9.94647 21.3143 9.96352 21.3152H10.7122C10.7935 21.3152 10.8587 21.2229 10.8587 21.1088C10.8587 20.9947 10.7916 20.9024 10.7098 20.9024Z" fill="#343846"/>
<path d="M14.2798 18.9021C13.8607 18.9021 13.5572 19.0419 13.3674 19.3241L13.5658 19.5064C13.7152 19.2746 13.9521 19.1583 14.2764 19.1577C14.7582 19.1577 15.0039 19.3825 15.0039 19.8311V20.1384H14.17C13.9053 20.1384 13.695 20.1993 13.5389 20.3212C13.3606 20.4578 13.2715 20.6609 13.2715 20.9307C13.2715 21.4558 13.5869 21.718 14.2177 21.7173C14.5488 21.7173 14.8109 21.6149 15.0039 21.41V21.6835H15.2824V19.8019C15.2824 19.2017 14.9482 18.9018 14.2798 18.9021ZM15.0025 20.7263C15.0025 20.9763 14.9543 21.1511 14.8579 21.2508C14.723 21.3906 14.5096 21.4618 14.2181 21.4618C13.7711 21.4618 13.5479 21.2832 13.5485 20.9261C13.5485 20.5578 13.7667 20.3724 14.2027 20.3724H15.002L15.0025 20.7263Z" fill="#343846"/>
<path d="M18.0426 19.1576C18.2958 19.1576 18.5194 19.2738 18.7136 19.5063L18.9025 19.324C18.659 19.0419 18.3737 18.9021 18.0416 18.9021C17.6615 18.9021 17.3702 19.0405 17.1677 19.3174C16.9836 19.569 16.8916 19.8999 16.8916 20.3102C16.8916 20.7205 16.9836 21.0511 17.1677 21.3021C17.3702 21.5786 17.6615 21.717 18.0416 21.7173C18.3737 21.7173 18.6595 21.5775 18.9025 21.2954L18.7136 21.1131C18.5188 21.3456 18.2952 21.4616 18.0426 21.4613C17.4632 21.4613 17.1735 21.0776 17.1735 20.3102C17.1735 19.5428 17.4632 19.1586 18.0426 19.1576Z" fill="#343846"/>
<path d="M20.7137 18.9021C20.2954 18.9021 19.9908 19.0419 19.8019 19.3241L20 19.5064C20.1487 19.2746 20.3858 19.1583 20.7112 19.1577C21.1957 19.1577 21.4379 19.3821 21.4379 19.8311V20.1384H20.6048C20.3392 20.1384 20.1296 20.1993 19.9725 20.3212C19.7942 20.458 19.7061 20.6608 19.7061 20.9307C19.7061 21.4558 20.0214 21.718 20.652 21.7173C20.9825 21.7173 21.2457 21.6149 21.4379 21.41V21.6835H21.7169V19.8019C21.7169 19.2017 21.3825 18.9018 20.7137 18.9021ZM21.4365 20.7263C21.4365 20.9763 21.3883 21.1514 21.2919 21.2508C21.157 21.3906 20.9435 21.4618 20.6525 21.4618C20.2053 21.4618 19.9815 21.2832 19.9812 20.9261C19.9812 20.5578 20.2 20.3724 20.6366 20.3724H21.435L21.4365 20.7263Z" fill="#343846"/>
<path d="M25.058 19.3315C24.8762 19.0779 24.6207 18.9509 24.2915 18.9506C23.648 18.9506 23.3262 19.4119 23.3262 20.3344C23.3262 21.257 23.648 21.718 24.2915 21.7173C24.6207 21.7173 24.8762 21.5905 25.058 21.3369V21.6841H25.337V17.6956H25.058V19.3315ZM24.334 21.4657C23.8513 21.4657 23.61 21.0886 23.61 20.3344C23.61 19.999 23.6509 19.7428 23.7326 19.566C23.8465 19.3235 24.0475 19.202 24.3355 19.2017C24.6235 19.2014 24.8243 19.3228 24.9379 19.566C25.0193 19.7422 25.0601 19.9983 25.0605 20.3344C25.0589 21.0883 24.8162 21.4653 24.3326 21.4657H24.334Z" fill="#343846"/>
<path d="M27.5482 18.9021C27.2014 18.9021 26.9412 19.0482 26.7675 19.3404C26.6178 19.5872 26.5439 19.9103 26.5439 20.3102C26.5439 21.2483 26.8997 21.7173 27.6114 21.7173C27.7809 21.7187 27.949 21.6819 28.1051 21.6094C28.2612 21.5368 28.402 21.4299 28.5188 21.2954L28.3209 21.1254C28.1204 21.349 27.8904 21.4609 27.631 21.4613C27.0872 21.4613 26.8154 21.0982 26.8157 20.3722H28.5548V20.2411C28.5548 19.8574 28.4769 19.5459 28.3209 19.3066C28.1446 19.0363 27.8878 18.9021 27.5482 18.9021ZM26.8143 20.1387C26.8156 19.9588 26.8455 19.7805 26.9027 19.6118C26.9533 19.474 27.0434 19.3579 27.1595 19.281C27.2765 19.1996 27.4124 19.1567 27.551 19.1576C27.6908 19.1562 27.8279 19.2002 27.9449 19.2841C28.16 19.4377 28.2723 19.7214 28.2877 20.1387H26.8143Z" fill="#343846"/>
<path d="M32.8571 18.9021C32.4799 18.9021 32.1933 19.0716 31.9976 19.4091C31.8411 19.0716 31.569 18.9021 31.1848 18.9021C30.8746 18.9021 30.6237 19.0229 30.4356 19.265V18.9353H30.1631V21.7173H30.4342V19.9912C30.4342 19.7334 30.4949 19.5307 30.6162 19.3831C30.7378 19.2354 30.9137 19.1602 31.1428 19.1602C31.6049 19.1602 31.8359 19.4367 31.8359 19.9896V21.7158H32.1089V19.9409C32.1089 19.7021 32.1736 19.512 32.3031 19.3707C32.4323 19.2307 32.6058 19.1597 32.8218 19.1597C33.2867 19.1597 33.5194 19.4362 33.52 19.9891V21.7152H33.7827V19.9409C33.7827 19.6209 33.7003 19.3678 33.5356 19.1815C33.3709 18.9952 33.1447 18.9021 32.8571 18.9021Z" fill="#343846"/>
<path d="M36.7188 18.9026L35.9947 21.0855L35.2715 18.9026H34.9893L35.872 21.4014L35.6783 21.9499C35.6309 22.0803 35.5779 22.1696 35.5192 22.2179C35.4603 22.2643 35.3655 22.2894 35.2351 22.2894H35.1389V22.5217H35.2594C35.45 22.5217 35.6023 22.4687 35.7147 22.3614C35.7918 22.2807 35.8483 22.1814 35.8792 22.0725L37.0001 18.9021L36.7188 18.9026Z" fill="#343846"/>
<path d="M14.8255 13.2717C14.2059 13.2717 13.7551 13.4445 13.4768 13.7882L14.1084 14.2135C14.234 14.0292 14.4873 13.9416 14.8651 13.9416C15.16 13.9416 15.37 13.9762 15.4972 14.0421C15.6243 14.108 15.6858 14.2264 15.6858 14.395V14.7636H14.5738C14.1631 14.7636 13.84 14.8673 13.6034 15.0774C13.3825 15.2676 13.2715 15.5123 13.2715 15.8095C13.2715 16.1271 13.3959 16.3828 13.6446 16.5766C13.9041 16.7867 14.2536 16.8916 14.6931 16.8913C15.1908 16.8913 15.5227 16.7724 15.6832 16.5356V16.8494H16.4889V14.436C16.4889 13.6601 15.9344 13.272 14.8255 13.2717ZM15.6858 15.6086C15.6858 15.8878 15.6051 16.0693 15.4409 16.1458C15.3419 16.1974 15.1239 16.2231 14.7869 16.2228C14.2818 16.2228 14.0294 16.0741 14.0297 15.7768C14.0297 15.4923 14.2609 15.3504 14.7233 15.351H15.6858V15.6086Z" fill="#E7314B"/>
<path d="M18.4997 11.6631H17.6953V12.4674H18.4997V11.6631Z" fill="#E7314B"/>
<path d="M18.4997 13.2717H17.6953V16.8913H18.4997V13.2717Z" fill="#E7314B"/>
<path d="M24.0866 13.2717C23.5921 13.2717 23.1966 13.4271 22.8999 13.7377C22.5844 13.4271 22.2309 13.2717 21.8396 13.2717C21.4249 13.2717 21.0996 13.4129 20.8637 13.6953V13.3142H20.1084V16.8913H20.8618V14.76C20.8618 14.5205 20.9306 14.3332 21.0687 14.1957C21.1387 14.1277 21.2228 14.0744 21.3157 14.0392C21.4085 14.0039 21.508 13.9876 21.6078 13.9912C21.7066 13.9881 21.8049 14.0046 21.8966 14.0399C21.9883 14.0751 22.0712 14.1282 22.1402 14.1957C22.2778 14.3332 22.3471 14.5219 22.3471 14.76V16.8913H23.0999V14.76C23.0999 14.5205 23.1692 14.3332 23.3073 14.1957C23.3773 14.1276 23.4614 14.0743 23.5543 14.039C23.6471 14.0038 23.7467 13.9875 23.8465 13.9912C23.9453 13.988 24.0436 14.0045 24.1353 14.0398C24.227 14.075 24.3099 14.1281 24.3788 14.1957C24.5169 14.3332 24.5852 14.5219 24.5852 14.76V16.8913H25.3367V14.5149C25.3367 14.1338 25.201 13.8256 24.9297 13.5905C24.7024 13.3842 24.4002 13.2699 24.0866 13.2717Z" fill="#E7314B"/>
<path d="M36.9997 24.2304C37.055 24.2304 37.0997 24.1856 37.0997 24.1304C37.0997 24.0751 37.055 24.0304 36.9997 24.0304H13.2715C13.2163 24.0304 13.1715 24.0751 13.1715 24.1304C13.1715 24.1856 13.2163 24.2304 13.2715 24.2304H36.9997Z" fill="#343846" stroke="#343846" stroke-width="0.2" stroke-linejoin="round"/>
<path d="M15.1239 27.5533C15.1277 27.51 15.1277 27.4812 15.1277 27.4559C15.1277 26.9077 14.7937 26.4676 14.2129 26.4676C13.6663 26.4676 13.2715 26.9004 13.2715 27.4415C13.2715 28.0222 13.7156 28.4154 14.2508 28.4154C14.6267 28.4154 14.862 28.2783 15.0594 28.0655L14.8772 27.9104C14.714 28.0691 14.5318 28.1737 14.2584 28.1737C13.913 28.1737 13.6093 27.9465 13.5676 27.5533H15.1239ZM13.5676 27.3297C13.6093 26.969 13.8712 26.7021 14.2053 26.7021C14.5887 26.7021 14.8013 26.9942 14.8316 27.3297H13.5676Z" fill="#343846"/>
<path d="M15.666 28.3721H15.9583V25.739H15.666V28.3721Z" fill="#343846"/>
<path d="M18.3676 27.5533C18.3714 27.51 18.3714 27.4812 18.3714 27.4559C18.3714 26.9077 18.0373 26.4676 17.4565 26.4676C16.9099 26.4676 16.5151 26.9004 16.5151 27.4415C16.5151 28.0222 16.9593 28.4154 17.4945 28.4154C17.8703 28.4154 18.1056 28.2783 18.303 28.0655L18.1208 27.9104C17.9576 28.0691 17.7754 28.1737 17.5021 28.1737C17.1566 28.1737 16.853 27.9465 16.8112 27.5533H18.3676ZM16.8112 27.3297C16.853 26.969 17.1149 26.7021 17.4489 26.7021C17.8323 26.7021 18.0449 26.9942 18.0753 27.3297H16.8112Z" fill="#343846"/>
<path d="M19.4676 28.4118C19.8131 28.4118 20.037 28.2639 20.1737 28.0943V28.3721H20.4622V27.2323C20.4622 26.9978 20.3938 26.8139 20.2572 26.684C20.1129 26.547 19.9004 26.4784 19.6233 26.4784C19.3348 26.4784 19.126 26.5398 18.9096 26.6371L18.9969 26.8644C19.1791 26.7814 19.3613 26.7309 19.5929 26.7309C19.9611 26.7309 20.1737 26.9041 20.1737 27.2359V27.2936C19.9953 27.2467 19.8282 27.2143 19.5739 27.2143C19.0766 27.2143 18.735 27.4235 18.735 27.8238V27.831C18.735 28.217 19.0994 28.4118 19.4676 28.4118ZM19.5246 28.1881C19.2626 28.1881 19.0311 28.0511 19.0311 27.8166V27.8094C19.0311 27.5822 19.2399 27.4343 19.6043 27.4343C19.8472 27.4343 20.0294 27.474 20.1775 27.5136V27.6868C20.1775 27.9861 19.8852 28.1881 19.5246 28.1881Z" fill="#343846"/>
<path d="M21.0813 28.3721H21.3736V27.6291C21.3736 27.0664 21.7228 26.7742 22.1518 26.7742H22.1746V26.4748C21.8025 26.464 21.5178 26.684 21.3736 26.9942V26.5073H21.0813V28.3721Z" fill="#343846"/>
<path d="M22.6197 28.3721H22.912V27.3044C22.912 26.9546 23.1625 26.7201 23.5004 26.7201C23.8496 26.7201 24.0432 26.9365 24.0432 27.2828V28.3721H24.3355V27.2143C24.3355 26.7706 24.0546 26.4676 23.5839 26.4676C23.2461 26.4676 23.0449 26.6299 22.912 26.8319V26.5073H22.6197V28.3721Z" fill="#343846"/>
<path d="M24.9664 26.0997H25.3005V25.7931H24.9664V26.0997ZM24.9854 28.3721H25.2777V26.5073H24.9854V28.3721Z" fill="#343846"/>
<path d="M25.956 28.3721H26.2483V27.3044C26.2483 26.9546 26.4989 26.7201 26.8367 26.7201C27.1859 26.7201 27.3795 26.9365 27.3795 27.2828V28.3721H27.6718V27.2143C27.6718 26.7706 27.3909 26.4676 26.9202 26.4676C26.5824 26.4676 26.3812 26.6299 26.2483 26.8319V26.5073H25.956V28.3721Z" fill="#343846"/>
<path d="M29.1644 28.9564C29.4795 28.9564 29.7338 28.8771 29.9123 28.7075C30.0755 28.5524 30.1628 28.336 30.1628 28.0475V26.5073H29.8705V26.8427C29.7073 26.6407 29.4719 26.4676 29.1037 26.4676C28.633 26.4676 28.1813 26.8031 28.1813 27.3477V27.3549C28.1813 27.8888 28.633 28.2278 29.1037 28.2278C29.4643 28.2278 29.7035 28.0511 29.8743 27.8346V28.0547C29.8743 28.4911 29.5972 28.7183 29.1606 28.7183C28.8759 28.7183 28.633 28.6354 28.4052 28.4803L28.2724 28.6967C28.5343 28.8698 28.8342 28.9564 29.1644 28.9564ZM29.1606 27.9825C28.7962 27.9825 28.4812 27.7228 28.4812 27.3477V27.3405C28.4812 26.9582 28.7848 26.7129 29.1606 26.7129C29.5327 26.7129 29.8819 26.9618 29.8819 27.3441V27.3513C29.8819 27.7264 29.5327 27.9825 29.1606 27.9825Z" fill="#343846"/>
</svg>
