<svg width="164" height="60" viewBox="0 0 164 60" fill="none" xmlns="http://www.w3.org/2000/svg">
<path d="M11.3928 8.83617C11.3495 8.61366 11.244 8.408 11.0884 8.24309C10.9329 8.07819 10.7338 7.96081 10.5142 7.90459C10.2946 7.84838 10.0635 7.85565 9.84788 7.92555C9.63225 7.99544 9.44088 8.1251 9.29601 8.29945C9.15114 8.4738 9.05873 8.68569 9.02952 8.91048C9.00031 9.13527 9.03549 9.36373 9.13097 9.56932C9.22646 9.77491 9.37833 9.94917 9.56894 10.0719C9.75954 10.1946 9.98105 10.2606 10.2077 10.2624C10.3616 10.2616 10.5138 10.2317 10.6566 10.1743C10.8453 10.0982 11.0118 9.97559 11.1405 9.81792C11.2692 9.66025 11.356 9.47261 11.3928 9.27243C11.4091 9.20371 11.4176 9.13333 11.418 9.06269C11.4186 8.98645 11.4102 8.9104 11.3928 8.83617Z" fill="#E7314B"/>
<path d="M4.69141 24.6383C4.79726 24.6418 4.90029 24.6039 4.97862 24.5326C5.05695 24.4613 5.1044 24.3623 5.1109 24.2566V9.36473L10.2224 1.17421L15.3338 9.36473V24.2566C15.3466 24.3614 15.3972 24.4579 15.4762 24.5279C15.5553 24.598 15.6572 24.6366 15.7628 24.6366C15.8683 24.6366 15.9703 24.598 16.0493 24.5279C16.1283 24.4579 16.179 24.3614 16.1917 24.2566V9.25566C16.1914 9.18956 16.1725 9.12486 16.1372 9.06899L10.6125 0.194696C10.5701 0.134538 10.5139 0.0854548 10.4485 0.051572C10.3832 0.0176893 10.3107 0 10.2371 0C10.1635 0 10.0909 0.0176893 10.0256 0.051572C9.96025 0.0854548 9.90401 0.134538 9.86161 0.194696L4.32016 9.07319C4.28483 9.12906 4.26593 9.19375 4.26562 9.25986V24.2566C4.27212 24.3634 4.32045 24.4634 4.40015 24.5349C4.47985 24.6063 4.58449 24.6435 4.69141 24.6383Z" fill="#343846"/>
<path d="M10.2301 24.6377C10.3361 24.6417 10.4394 24.6039 10.5179 24.5325C10.5963 24.4612 10.6436 24.3618 10.6496 24.2559V10.1758C10.5068 10.2331 10.3546 10.263 10.2007 10.2639C10.0575 10.2639 9.91545 10.2384 9.78125 10.1884V24.2559C9.78436 24.3109 9.7986 24.3647 9.82312 24.4141C9.84764 24.4634 9.88192 24.5073 9.92389 24.543C9.96586 24.5787 10.0146 24.6055 10.0673 24.6217C10.1199 24.638 10.1753 24.6434 10.2301 24.6377Z" fill="#343846"/>
<path d="M10.232 39.7397C10.1261 39.7362 10.0231 39.7742 9.94477 39.8455C9.86645 39.9167 9.81899 40.0158 9.8125 40.1215V53.5808C9.82522 53.6856 9.87587 53.7821 9.9549 53.8521C10.0339 53.9221 10.1358 53.9608 10.2414 53.9608C10.347 53.9608 10.4489 53.9221 10.528 53.8521C10.607 53.7821 10.6576 53.6856 10.6704 53.5808V40.1215C10.6675 40.0673 10.6537 40.0143 10.6299 39.9656C10.6062 39.9169 10.5729 39.8734 10.532 39.8378C10.4911 39.8022 10.4435 39.7752 10.3919 39.7583C10.3404 39.7415 10.286 39.7352 10.232 39.7397Z" fill="#343846"/>
<path d="M6.53277 39.7396C6.42678 39.7355 6.32344 39.7733 6.24499 39.8447C6.16655 39.9161 6.11925 40.0154 6.11328 40.1213V50.0716C6.126 50.1764 6.17665 50.2729 6.25568 50.3429C6.3347 50.4129 6.43663 50.4516 6.54221 50.4516C6.64779 50.4516 6.74971 50.4129 6.82874 50.3429C6.90776 50.2729 6.95842 50.1764 6.97114 50.0716V40.1213C6.96796 40.0673 6.95403 40.0144 6.93016 39.9658C6.9063 39.9172 6.87298 39.8739 6.83215 39.8383C6.79133 39.8028 6.74382 39.7757 6.69242 39.7588C6.64101 39.7418 6.58673 39.7353 6.53277 39.7396Z" fill="#343846"/>
<path d="M14.0562 39.7394C13.9502 39.7354 13.8469 39.7731 13.7684 39.8445C13.69 39.9159 13.6427 40.0152 13.6367 40.1211V50.0714C13.6472 50.1776 13.6969 50.276 13.7759 50.3477C13.855 50.4193 13.9579 50.459 14.0646 50.459C14.1713 50.459 14.2742 50.4193 14.3533 50.3477C14.4323 50.276 14.4819 50.1776 14.4925 50.0714V40.1211C14.4893 40.0673 14.4754 40.0146 14.4517 39.9662C14.428 39.9177 14.3948 39.8745 14.3542 39.839C14.3136 39.8034 14.2664 39.7763 14.2152 39.7592C14.1641 39.7422 14.11 39.7354 14.0562 39.7394Z" fill="#343846"/>
<path d="M20.1564 38.7713H19.2671V25.0246C19.264 24.946 19.2368 24.8702 19.1891 24.8075C19.1415 24.7449 19.0757 24.6984 19.0008 24.6744C18.9247 24.6434 18.8417 24.6335 18.7605 24.6457C18.6794 24.6579 18.6029 24.6917 18.5393 24.7436L10.2229 31.5687L1.91497 24.7436C1.85135 24.6917 1.77494 24.6579 1.69374 24.6457C1.61255 24.6335 1.52957 24.6434 1.45353 24.6744C1.37998 24.6995 1.31586 24.7466 1.26976 24.8092C1.22366 24.8718 1.19776 24.9469 1.19554 25.0246V38.7713H0.274766C0.12375 38.7713 0 38.9433 0 39.153C0 39.3628 0.12375 39.5348 0.274766 39.5348H1.68425C1.72251 39.5344 1.76006 39.5243 1.79332 39.5054C1.8671 39.4803 1.9315 39.4334 1.97796 39.3708C2.02442 39.3082 2.05073 39.233 2.0534 39.1551V25.8951L9.93979 32.3699C10.0221 32.4361 10.1246 32.4722 10.2303 32.4722C10.336 32.4722 10.4384 32.4361 10.5208 32.3699L18.4093 25.8951V39.1551C18.4097 39.2166 18.4257 39.2769 18.4558 39.3304C18.4858 39.384 18.529 39.429 18.5813 39.4614C18.6017 39.4864 18.6272 39.5068 18.6562 39.5213C18.6851 39.5358 18.7168 39.5439 18.7491 39.5453H20.1585C20.3117 39.5453 20.4333 39.3754 20.4333 39.1635C20.4333 38.9517 20.3096 38.7713 20.1564 38.7713Z" fill="#343846"/>
<path d="M88.4683 30.6875C87.084 30.6875 86.0835 31.1238 85.4522 31.9984L86.1087 32.5668C86.6023 31.8453 87.3853 31.4838 88.4578 31.4824C90.0561 31.4824 90.8615 32.1809 90.8615 33.5799V34.5363H88.1055C87.2315 34.5363 86.5324 34.7258 86.008 35.1047C85.4207 35.5242 85.125 36.1534 85.125 36.9924C85.125 38.6228 86.1674 39.438 88.2523 39.438C89.3472 39.438 90.2113 39.1171 90.851 38.4816V39.3311H91.7802V33.4792C91.7802 31.6181 90.6762 30.6875 88.4683 30.6875ZM90.8615 36.3506C90.8615 37.1267 90.7021 37.672 90.3854 37.9803C89.9407 38.4145 89.2339 38.6368 88.2712 38.6368C86.803 38.6368 86.0584 38.0789 86.0584 36.9714C86.0584 35.8262 86.7799 35.2494 88.2208 35.2494H90.8615V36.3506Z" fill="#343846"/>
<path d="M100.171 31.4866C101 31.4866 101.731 31.8481 102.365 32.571L102.981 32.0026C102.637 31.5919 102.207 31.2614 101.722 31.0342C101.236 30.8071 100.707 30.6887 100.171 30.6875C98.9292 30.6875 97.977 31.1182 97.3142 31.9795C96.7129 32.7598 96.4116 33.7882 96.4102 35.0649C96.4088 36.3415 96.7101 37.37 97.3142 38.1502C97.9756 39.0102 98.9278 39.4408 100.171 39.4422C100.707 39.4423 101.238 39.3248 101.724 39.0979C102.21 38.8711 102.641 38.5404 102.986 38.1292L102.369 37.5629C101.734 38.2844 101.003 38.6452 100.175 38.6452C98.2818 38.6452 97.3337 37.4518 97.3309 35.0649C97.3281 32.678 98.2748 31.4852 100.171 31.4866Z" fill="#343846"/>
<path d="M110.038 30.6875C108.657 30.6875 107.653 31.1245 107.026 31.9984L107.681 32.5668C108.172 31.8467 108.954 31.4866 110.028 31.4866C111.628 31.4866 112.428 32.1858 112.429 33.5841V34.5405H109.68C108.803 34.5405 108.109 34.7293 107.582 35.1089C106.993 35.5284 106.699 36.1576 106.699 36.9966C106.699 38.627 107.742 39.4422 109.827 39.4422C110.919 39.4422 111.788 39.1213 112.423 38.4858V39.3353H113.346V33.4834C113.352 31.6195 112.249 30.6875 110.038 30.6875ZM112.432 36.3506C112.432 37.1267 112.272 37.672 111.958 37.9803C111.513 38.4145 110.808 38.6368 109.845 38.6368C108.377 38.6368 107.628 38.0789 107.628 36.9714C107.628 35.8262 108.35 35.2494 109.793 35.2494H112.432V36.3506Z" fill="#343846"/>
<path d="M123.707 31.8952C123.107 31.094 122.265 30.6927 121.18 30.6913C119.059 30.6913 117.999 32.1504 118 35.0687C118.001 37.9869 119.061 39.446 121.18 39.446C122.265 39.446 123.107 39.044 123.707 38.24V39.3391H124.628V26.7188H123.707V31.8952ZM121.316 38.649C119.721 38.649 118.922 37.4556 118.921 35.0687C118.921 34.006 119.056 33.1964 119.326 32.6398C119.702 31.8736 120.365 31.4904 121.316 31.4904C122.267 31.4904 122.93 31.875 123.304 32.644C123.573 33.2034 123.707 34.013 123.707 35.0729C123.707 37.457 122.91 38.649 121.316 38.649Z" fill="#343846"/>
<path d="M132.745 30.6875C131.566 30.6875 130.68 31.1412 130.087 32.0487C129.581 32.8192 129.328 33.8246 129.328 35.0649C129.328 37.9831 130.539 39.4422 132.961 39.4422C133.537 39.445 134.107 39.3299 134.636 39.1041C135.166 38.8783 135.643 38.5465 136.04 38.1292L135.367 37.6007C135.069 37.9283 134.707 38.1907 134.303 38.3712C133.899 38.5517 133.462 38.6464 133.02 38.6494C131.167 38.6494 130.241 37.5203 130.243 35.262H136.164V34.8425C136.164 33.6491 135.899 32.6801 135.365 31.9376C134.781 31.1028 133.903 30.6875 132.745 30.6875ZM130.247 34.5321C130.251 33.9727 130.354 33.4183 130.549 32.894C130.719 32.4644 131.027 32.1031 131.423 31.8663C131.821 31.6126 132.284 31.4793 132.755 31.4824C133.231 31.4775 133.698 31.614 134.096 31.8747C134.828 32.3473 135.218 33.2331 135.264 34.5321H130.247Z" fill="#343846"/>
<path d="M149.964 30.6897C148.685 30.6897 147.722 31.2099 147.061 32.246C146.531 31.2099 145.616 30.6911 144.316 30.6897C143.837 30.6718 143.361 30.7629 142.922 30.9562C142.484 31.1495 142.096 31.44 141.786 31.8056V30.7925H140.863V39.3375H141.784V34.0372C141.784 33.2465 141.994 32.6236 142.399 32.1684C142.803 31.7133 143.403 31.4847 144.175 31.4847C145.743 31.4875 146.526 32.3383 146.526 34.0372V39.3375H147.447V33.8841C147.431 33.5634 147.481 33.2428 147.594 32.9422C147.707 32.6416 147.88 32.3675 148.104 32.137C148.337 31.9166 148.613 31.7456 148.914 31.6343C149.216 31.5229 149.536 31.4735 149.857 31.4888C151.429 31.4888 152.215 32.3397 152.215 34.0414V39.3417H153.102V33.8883C153.102 32.9095 152.822 32.1321 152.263 31.556C151.707 30.975 150.931 30.6897 149.964 30.6897Z" fill="#343846"/>
<path d="M162.849 30.7891L160.284 38.2707L157.723 30.7891H156.723L159.85 39.355L159.162 41.2427C159.058 41.5927 158.864 41.9093 158.6 42.1614C158.299 42.3486 157.946 42.4346 157.593 42.4068H157.253V43.2038H157.673C158.261 43.2349 158.839 43.0381 159.286 42.6543C159.558 42.3772 159.759 42.0372 159.869 41.6643L163.839 30.7954L162.849 30.7891Z" fill="#343846"/>
<path d="M35.3269 24.2891C33.0197 24.2891 31.3417 25.0169 30.293 26.4683L32.6505 28.2616C33.1182 27.494 34.0621 27.1143 35.4716 27.1143C36.5727 27.1143 37.3593 27.259 37.8312 27.5338C38.3031 27.8086 38.5339 28.3141 38.5339 29.0209V30.5814H34.3893C32.8561 30.5814 31.65 31.0198 30.767 31.9049C30.3583 32.3063 30.0373 32.7881 29.8243 33.3199C29.6113 33.8517 29.511 34.4219 29.5295 34.9944C29.5295 36.3326 29.9938 37.4121 30.9222 38.2329C31.8912 39.1152 33.1945 39.5578 34.8319 39.5606C36.6902 39.5606 37.9249 39.06 38.5359 38.0588V39.3823H41.5374V29.1992C41.5374 25.9272 39.4672 24.2905 35.3269 24.2891ZM38.5359 34.1471C38.5359 35.3258 38.2339 36.083 37.6236 36.4144C37.253 36.6269 36.4392 36.7332 35.1821 36.7332C33.2986 36.7332 32.3569 36.104 32.3569 34.8455C32.3569 33.6458 33.221 33.0501 34.9451 33.0501H38.5359V34.1471Z" fill="#E7314B"/>
<path d="M50.6929 18.4375H47.6914V21.4389H50.6929V18.4375Z" fill="#E7314B"/>
<path d="M50.6929 24.4648H47.6914V39.3882H50.6929V24.4648Z" fill="#E7314B"/>
<path d="M72.9054 24.2892C70.9352 24.2892 69.3593 24.9366 68.1777 26.2314C66.9193 24.9352 65.5112 24.2878 63.9535 24.2892C62.3007 24.2892 61.0024 24.8778 60.0585 26.0552V24.4654H57.0508V39.3887H60.0543V30.4976C60.0543 29.4992 60.3291 28.7169 60.8786 28.1443C61.1578 27.861 61.493 27.6391 61.8628 27.4928C62.2327 27.3465 62.629 27.2791 63.0264 27.2948C63.4192 27.2811 63.8105 27.3496 64.1753 27.4959C64.5401 27.6422 64.8703 27.863 65.1448 28.1443C65.6944 28.7169 65.9691 29.4992 65.9691 30.4976V39.3887H68.9685V30.4976C68.9685 29.4992 69.2453 28.7169 69.7928 28.1443C70.0724 27.8604 70.4083 27.6382 70.7789 27.4919C71.1495 27.3456 71.5466 27.2785 71.9447 27.2948C72.3382 27.2814 72.7301 27.3504 73.0953 27.4974C73.4605 27.6444 73.7909 27.8662 74.0653 28.1485C74.6148 28.7211 74.8854 29.5034 74.8854 30.5018V39.3929H77.8889V29.472C77.8889 27.8807 77.3464 26.5957 76.2613 25.6168C75.3566 24.7568 74.1537 24.2809 72.9054 24.2892Z" fill="#E7314B"/>
<path d="M163.568 45.3438H29.25V46.1156H163.568V45.3438Z" fill="#343846"/>
<path d="M35.0482 55.6306C35.0589 55.5022 35.0589 55.4166 35.0589 55.3418C35.0589 53.7158 34.1176 52.4108 32.481 52.4108C30.9406 52.4108 29.8281 53.6944 29.8281 55.299C29.8281 57.0212 31.0797 58.1872 32.5879 58.1872C33.6469 58.1872 34.3102 57.7807 34.8664 57.1495L34.3529 56.6896C33.893 57.1602 33.3795 57.4705 32.6093 57.4705C31.6359 57.4705 30.7802 56.7965 30.6625 55.6306H35.0482ZM30.6625 54.9674C30.7802 53.8977 31.5182 53.1061 32.4596 53.1061C33.54 53.1061 34.139 53.9725 34.2246 54.9674H30.6625Z" fill="#343846"/>
<path d="M36.5757 58.0588H37.3994V50.25H36.5757V58.0588Z" fill="#343846"/>
<path d="M44.1887 55.6306C44.1994 55.5022 44.1994 55.4166 44.1994 55.3418C44.1994 53.7158 43.2581 52.4108 41.6215 52.4108C40.0811 52.4108 38.9686 53.6944 38.9686 55.299C38.9686 57.0212 40.2201 58.1872 41.7284 58.1872C42.7874 58.1872 43.4506 57.7807 44.0069 57.1495L43.4934 56.6896C43.0335 57.1602 42.52 57.4705 41.7498 57.4705C40.7764 57.4705 39.9206 56.7965 39.803 55.6306H44.1887ZM39.803 54.9674C39.9206 53.8977 40.6587 53.1061 41.6001 53.1061C42.6805 53.1061 43.2795 53.9725 43.3651 54.9674H39.803Z" fill="#343846"/>
<path d="M47.2887 58.1765C48.2621 58.1765 48.8932 57.7379 49.2783 57.2351V58.0588H50.0913V54.6785C50.0913 53.9832 49.8987 53.4377 49.5136 53.0526C49.1072 52.6461 48.5081 52.4429 47.7273 52.4429C46.9143 52.4429 46.3259 52.6247 45.7162 52.9135L45.9622 53.5875C46.4757 53.3414 46.9892 53.1917 47.6417 53.1917C48.6793 53.1917 49.2783 53.7051 49.2783 54.6892V54.8604C48.7756 54.7213 48.3049 54.6251 47.5882 54.6251C46.1869 54.6251 45.2242 55.2455 45.2242 56.4329V56.4542C45.2242 57.5988 46.2511 58.1765 47.2887 58.1765ZM47.4491 57.5132C46.711 57.5132 46.0585 57.1068 46.0585 56.4115V56.3901C46.0585 55.7162 46.6469 55.2776 47.6738 55.2776C48.3584 55.2776 48.8718 55.3952 49.289 55.5129V56.0264C49.289 56.9142 48.4653 57.5132 47.4491 57.5132Z" fill="#343846"/>
<path d="M51.836 58.0588H52.6596V55.8552C52.6596 54.1865 53.6438 53.32 54.8525 53.32H54.9167V52.4322C53.8684 52.4001 53.0661 53.0526 52.6596 53.9725V52.5285H51.836V58.0588Z" fill="#343846"/>
<path d="M56.1712 58.0588H56.9948V54.8925C56.9948 53.8549 57.7008 53.1596 58.6529 53.1596C59.637 53.1596 60.1825 53.8014 60.1825 54.8283V58.0588H61.0062V54.6251C61.0062 53.3093 60.2146 52.4108 58.8882 52.4108C57.9362 52.4108 57.3692 52.8922 56.9948 53.4912V52.5285H56.1712V58.0588Z" fill="#343846"/>
<path d="M62.7842 51.3197H63.7255V50.4105H62.7842V51.3197ZM62.8376 58.0588H63.6613V52.5285H62.8376V58.0588Z" fill="#343846"/>
<path d="M65.5728 58.0588H66.3965V54.8925C66.3965 53.8549 67.1025 53.1596 68.0545 53.1596C69.0386 53.1596 69.5842 53.8014 69.5842 54.8283V58.0588H70.4078V54.6251C70.4078 53.3093 69.6163 52.4108 68.2898 52.4108C67.3378 52.4108 66.7709 52.8922 66.3965 53.4912V52.5285H65.5728V58.0588Z" fill="#343846"/>
<path d="M74.614 59.7917C75.5019 59.7917 76.2185 59.5564 76.7213 59.0536C77.1813 58.5936 77.4273 57.9518 77.4273 57.0961V52.5285H76.6036V53.5233C76.1437 52.9242 75.4805 52.4108 74.4429 52.4108C73.1164 52.4108 71.8435 53.4056 71.8435 55.0208V55.0422C71.8435 56.6254 73.1164 57.6309 74.4429 57.6309C75.4591 57.6309 76.133 57.1068 76.6143 56.4649V57.1175C76.6143 58.4118 75.8335 59.0857 74.6033 59.0857C73.801 59.0857 73.1164 58.8397 72.4746 58.3797L72.1002 59.0215C72.8383 59.535 73.6834 59.7917 74.614 59.7917ZM74.6033 56.9035C73.5764 56.9035 72.6885 56.1333 72.6885 55.0208V54.9995C72.6885 53.8656 73.5443 53.1382 74.6033 53.1382C75.6516 53.1382 76.6357 53.8763 76.6357 55.0102V55.0315C76.6357 56.144 75.6516 56.9035 74.6033 56.9035Z" fill="#343846"/>
</svg>
