<svg width="29" height="29" viewBox="0 0 29 29" fill="none" xmlns="http://www.w3.org/2000/svg">
<g opacity="0.8">
<path d="M10.8776 24.4648C10.429 24.4648 9.99039 24.5979 9.6174 24.8471C9.2444 25.0963 8.9537 25.4506 8.78203 25.865C8.61036 26.2795 8.56544 26.7355 8.65296 27.1755C8.74047 27.6155 8.95647 28.0196 9.27368 28.3368C9.59088 28.654 9.99498 28.87 10.435 28.9575C10.8749 29.0451 11.331 29.0001 11.7455 28.8285C12.1599 28.6568 12.5142 28.3661 12.7635 27.9931C13.0127 27.6201 13.1457 27.1816 13.1457 26.733C13.1457 26.1314 12.9067 25.5545 12.4813 25.1292C12.056 24.7038 11.4791 24.4648 10.8776 24.4648ZM22.3371 24.4648C21.8885 24.4648 21.4499 24.5979 21.0769 24.8471C20.7039 25.0963 20.4132 25.4506 20.2415 25.865C20.0699 26.2795 20.0249 26.7355 20.1124 27.1755C20.2 27.6155 20.416 28.0196 20.7332 28.3368C21.0504 28.654 21.4546 28.87 21.8946 28.9575C22.3346 29.0451 22.7905 29.0001 23.205 28.8285C23.6194 28.6568 23.9737 28.3661 24.223 27.9931C24.4722 27.6201 24.6052 27.1816 24.6052 26.733C24.6052 26.1314 24.3662 25.5545 23.9408 25.1292C23.5154 24.7038 22.9386 24.4648 22.3371 24.4648Z" fill="#343846"/>
<path d="M27.4337 4.32055H7.45249L6.78285 1.7716C6.69084 1.26838 6.42322 0.814143 6.02765 0.489771C5.63207 0.165399 5.13421 -0.00805557 4.62272 0.000287537H1.38252C1.01586 0.000287537 0.66416 0.145943 0.404893 0.40521C0.145627 0.664476 0 1.01611 0 1.38277C0 1.74943 0.145627 2.10107 0.404893 2.36034C0.66416 2.6196 1.01586 2.76526 1.38252 2.76526H4.17985L7.99252 17.1517L6.50202 20.5756C6.41329 20.7866 6.37793 21.0162 6.39905 21.2442C6.42017 21.4721 6.49706 21.6913 6.62306 21.8825C6.74905 22.0736 6.92026 22.2307 7.12143 22.34C7.3226 22.4493 7.54764 22.5073 7.77656 22.5089H25.144C25.5106 22.5089 25.8623 22.3632 26.1216 22.104C26.3809 21.8447 26.5265 21.4931 26.5265 21.1264C26.5265 20.7597 26.3809 20.4081 26.1216 20.1488C25.8623 19.8896 25.5106 19.7439 25.144 19.7439H9.82858L10.6603 17.8214C10.6603 17.8214 10.6603 17.7674 10.6603 17.7458H25.0036C25.3613 17.7477 25.709 17.6279 25.9896 17.4061C26.2703 17.1844 26.4673 16.8738 26.5481 16.5253L28.9567 6.26467C29.0119 6.03378 29.0144 5.79339 28.9638 5.56142C28.9132 5.32945 28.8109 5.1119 28.6645 4.925C28.5181 4.7381 28.3314 4.58667 28.1183 4.48201C27.9052 4.37735 27.6711 4.32216 27.4337 4.32055ZM14.0192 13.0691C13.9937 13.3134 13.8786 13.5395 13.6961 13.7039C13.5136 13.8683 13.2767 13.9593 13.0311 13.9593C12.7855 13.9593 12.5486 13.8683 12.3661 13.7039C12.1836 13.5395 12.0683 13.3134 12.0428 13.0691V9.00804C12.0283 8.86959 12.0431 8.72962 12.0861 8.59723C12.1292 8.46485 12.1996 8.34298 12.2927 8.23955C12.3859 8.13611 12.4998 8.0534 12.627 7.99679C12.7542 7.94018 12.8919 7.91093 13.0311 7.91093C13.1703 7.91093 13.3079 7.94018 13.435 7.99679C13.5622 8.0534 13.6761 8.13611 13.7693 8.23955C13.8624 8.34298 13.9329 8.46485 13.976 8.59723C14.0191 8.72962 14.0337 8.86959 14.0192 9.00804V13.0691ZM18.7608 13.0691C18.7352 13.3134 18.6201 13.5395 18.4376 13.7039C18.2551 13.8683 18.0182 13.9593 17.7726 13.9593C17.527 13.9593 17.2899 13.8683 17.1074 13.7039C16.9249 13.5395 16.8099 13.3134 16.7843 13.0691V9.00804C16.7698 8.86959 16.7846 8.72962 16.8277 8.59723C16.8707 8.46485 16.9411 8.34298 17.0343 8.23955C17.1274 8.13611 17.2413 8.0534 17.3685 7.99679C17.4957 7.94018 17.6334 7.91093 17.7726 7.91093C17.9118 7.91093 18.0494 7.94018 18.1766 7.99679C18.3037 8.0534 18.4176 8.13611 18.5108 8.23955C18.604 8.34298 18.6744 8.46485 18.7175 8.59723C18.7606 8.72962 18.7752 8.86959 18.7608 9.00804V13.0691ZM23.4915 13.0691C23.4659 13.3134 23.3508 13.5395 23.1683 13.7039C22.9858 13.8683 22.7489 13.9593 22.5033 13.9593C22.2577 13.9593 22.0206 13.8683 21.8381 13.7039C21.6556 13.5395 21.5406 13.3134 21.515 13.0691V9.00804C21.5005 8.86959 21.5152 8.72962 21.5582 8.59723C21.6013 8.46485 21.6718 8.34298 21.765 8.23955C21.8581 8.13611 21.972 8.0534 22.0992 7.99679C22.2264 7.94018 22.3641 7.91093 22.5033 7.91093C22.6425 7.91093 22.7801 7.94018 22.9073 7.99679C23.0344 8.0534 23.1483 8.13611 23.2415 8.23955C23.3347 8.34298 23.4051 8.46485 23.4482 8.59723C23.4913 8.72962 23.5059 8.86959 23.4915 9.00804V13.0691Z" fill="#343846"/>
</g>
</svg>
