<svg width="24" height="24" viewBox="0 0 24 24" fill="none" xmlns="http://www.w3.org/2000/svg">
<g clip-path="url(#clip0_1286_13246)">
<rect width="1920" height="3186" transform="translate(-1269 -2955)" fill="white"/>
<rect x="-1269" y="-316" width="1923" height="547" fill="url(#paint0_linear_1286_13246)"/>
<g clip-path="url(#clip1_1286_13246)">
<path d="M17.3254 0.128906H7.00803C5.39343 0.130927 3.8455 0.813457 2.7038 2.02678C1.56211 3.24009 0.91987 4.88513 0.917969 6.60102V17.5657C0.91987 19.2815 1.56211 20.9266 2.7038 22.1399C3.8455 23.3532 5.39343 24.0357 7.00803 24.0378H17.3254C18.94 24.0357 20.4879 23.3532 21.6296 22.1399C22.7713 20.9266 23.4136 19.2815 23.4155 17.5657V6.60102C23.4136 4.88513 22.7713 3.24009 21.6296 2.02678C20.4879 0.813457 18.94 0.130927 17.3254 0.128906ZM12.1642 18.6203C10.9477 18.619 9.7589 18.2345 8.74806 17.5153C7.73722 16.7961 6.9497 15.7746 6.48507 14.5798C6.02045 13.3851 5.89956 12.0707 6.1377 10.803C6.37584 9.53521 6.96232 8.37094 7.82299 7.45735C8.68366 6.54375 9.77988 5.92185 10.9731 5.67025C12.1663 5.41865 13.4029 5.54865 14.5266 6.04382C15.6503 6.53899 16.6106 7.3771 17.2861 8.45219C17.9617 9.52729 18.3222 10.7911 18.3219 12.0839C18.32 13.8182 17.6704 15.4807 16.5158 16.7063C15.3612 17.9319 13.7961 18.6203 12.1642 18.6203ZM18.4646 7.08964C18.1052 7.08943 17.7539 6.97596 17.4551 6.76358C17.1563 6.5512 16.9235 6.24945 16.7861 5.89648C16.6487 5.54351 16.6129 5.15516 16.6831 4.78054C16.7534 4.40592 16.9265 4.06184 17.1808 3.79181C17.435 3.52178 17.7589 3.33792 18.1114 3.26348C18.464 3.18904 18.8294 3.22735 19.1614 3.37358C19.4935 3.51981 19.7773 3.76739 19.977 4.08502C20.1766 4.40265 20.2832 4.77606 20.2832 5.15804C20.2827 5.67035 20.0909 6.16149 19.7499 6.52364C19.4089 6.88579 18.9467 7.08936 18.4646 7.08964Z" fill="white"/>
<path d="M12.1649 6.94727C11.209 6.94727 10.2746 7.24849 9.47989 7.81284C8.68514 8.3772 8.0657 9.17933 7.69991 10.1178C7.33412 11.0563 7.23842 12.089 7.4249 13.0853C7.61137 14.0816 8.07165 14.9967 8.74754 15.715C9.42342 16.4333 10.2846 16.9225 11.222 17.1206C12.1595 17.3188 13.1312 17.2171 14.0143 16.8284C14.8974 16.4396 15.6522 15.7813 16.1832 14.9367C16.7143 14.0921 16.9977 13.0991 16.9977 12.0833C16.9964 10.7216 16.4868 9.41605 15.5807 8.45317C14.6747 7.49029 13.4462 6.94871 12.1649 6.94727Z" fill="white"/>
<path d="M18.4645 4.625C18.3659 4.62522 18.2696 4.65649 18.1877 4.71486C18.1058 4.77324 18.0421 4.8561 18.0045 4.95298C17.9669 5.04985 17.9571 5.1564 17.9765 5.25915C17.9959 5.3619 18.0434 5.45625 18.1132 5.53027C18.183 5.6043 18.2719 5.65467 18.3686 5.67504C18.4654 5.6954 18.5656 5.68484 18.6567 5.64469C18.7478 5.60454 18.8256 5.5366 18.8804 5.44945C18.9351 5.3623 18.9643 5.25986 18.9643 5.15507C18.9641 5.01439 18.9113 4.87956 18.8176 4.78019C18.7239 4.68081 18.5969 4.625 18.4645 4.625Z" fill="white"/>
</g>
</g>
<defs>
<linearGradient id="paint0_linear_1286_13246" x1="-1269" y1="-316" x2="-981.105" y2="696.108" gradientUnits="userSpaceOnUse">
<stop stop-color="#E32068"/>
<stop offset="1" stop-color="#F5003B"/>
</linearGradient>
<clipPath id="clip0_1286_13246">
<rect width="1920" height="3186" fill="white" transform="translate(-1269 -2955)"/>
</clipPath>
<clipPath id="clip1_1286_13246">
<rect width="219.71" height="24.1663" fill="white" transform="translate(-28.0664)"/>
</clipPath>
</defs>
</svg>
