<svg width="64" height="64" viewBox="0 0 64 64" fill="none" xmlns="http://www.w3.org/2000/svg">
<path d="M32 64C49.6731 64 64 49.6732 64 32.0001C64 14.327 49.6731 0 32 0C14.3269 0 0 14.327 0 32.0001C0 49.6732 14.3269 64 32 64Z" fill="url(#paint0_linear_1441_14455)"/>
<path d="M36.7782 19H27.9993C27.8649 19 27.7361 19.0533 27.641 19.1482C27.5459 19.2431 27.4924 19.3719 27.4922 19.5062V26.2598C27.4924 26.3941 27.5459 26.5229 27.641 26.6178C27.7361 26.7127 27.8649 26.766 27.9993 26.766H36.7782C36.9125 26.7659 37.0412 26.7126 37.1362 26.6177C37.2312 26.5228 37.2847 26.3941 37.2849 26.2598V19.5062C37.2847 19.372 37.2312 19.2433 37.1362 19.1484C37.0412 19.0535 36.9125 19.0001 36.7782 19Z" fill="white"/>
<path d="M49.273 37.2344H40.4945C40.3602 37.2345 40.2315 37.2879 40.1365 37.3829C40.0416 37.4779 39.9883 37.6067 39.9883 37.741V44.4938C39.9884 44.6282 40.0419 44.7571 40.1369 44.8522C40.232 44.9473 40.3609 45.0007 40.4954 45.0008H49.273C49.4075 45.0007 49.5363 44.9473 49.6313 44.8522C49.7263 44.7571 49.7797 44.6282 49.7797 44.4938V37.741C49.7798 37.6745 49.7667 37.6086 49.7413 37.5471C49.7158 37.4856 49.6785 37.4297 49.6314 37.3826C49.5844 37.3356 49.5285 37.2983 49.467 37.2728C49.4055 37.2474 49.3396 37.2343 49.273 37.2344Z" fill="white"/>
<path d="M36.7782 37.2344H27.9993C27.9327 37.2343 27.8668 37.2474 27.8053 37.2728C27.7437 37.2983 27.6878 37.3356 27.6407 37.3826C27.5936 37.4297 27.5563 37.4856 27.5308 37.5471C27.5053 37.6086 27.4922 37.6745 27.4922 37.741V44.4938C27.4923 44.6282 27.5458 44.7571 27.6408 44.8522C27.7359 44.9473 27.8648 45.0007 27.9993 45.0008H36.7782C36.9126 45.0006 37.0414 44.9471 37.1364 44.852C37.2314 44.757 37.2848 44.6281 37.2849 44.4938V37.741C37.2849 37.6067 37.2315 37.4778 37.1365 37.3828C37.0415 37.2878 36.9126 37.2344 36.7782 37.2344Z" fill="white"/>
<path d="M24.2856 37.2344H15.5067C15.4401 37.2343 15.3742 37.2474 15.3127 37.2728C15.2512 37.2983 15.1953 37.3356 15.1483 37.3826C15.1012 37.4297 15.0639 37.4856 15.0385 37.5471C15.013 37.6086 14.9999 37.6745 15 37.741V44.4938C15 44.6282 15.0534 44.7571 15.1484 44.8522C15.2434 44.9473 15.3723 45.0007 15.5067 45.0008H24.2856C24.4199 45.0005 24.5485 44.9469 24.6434 44.8519C24.7382 44.7568 24.7914 44.628 24.7914 44.4938V37.741C24.7915 37.6746 24.7784 37.6087 24.7531 37.5473C24.7277 37.4858 24.6904 37.43 24.6435 37.383C24.5965 37.3359 24.5407 37.2986 24.4793 37.2731C24.4179 37.2476 24.3521 37.2344 24.2856 37.2344Z" fill="white"/>
<path d="M45.9467 31.4096C45.9468 31.343 45.9337 31.2771 45.9083 31.2156C45.8829 31.154 45.8455 31.0981 45.7985 31.051C45.7514 31.004 45.6956 30.9666 45.6341 30.9411C45.5726 30.9156 45.5066 30.9025 45.4401 30.9025H33.403V28.116C33.4029 27.9818 33.3495 27.853 33.2546 27.758C33.1597 27.6631 33.031 27.6096 32.8968 27.6094H31.8839C31.7496 27.6096 31.6209 27.6631 31.526 27.758C31.4311 27.853 31.3777 27.9818 31.3776 28.116V30.9016H19.3077C19.2411 30.9017 19.1753 30.9149 19.1138 30.9404C19.0524 30.9659 18.9965 31.0033 18.9495 31.0503C18.9025 31.0974 18.8653 31.1533 18.8398 31.2148C18.8144 31.2763 18.8014 31.3422 18.8014 31.4087V31.5897C18.7963 31.6098 18.7922 31.6302 18.7891 31.6508V35.7139C18.7893 35.8481 18.8428 35.9768 18.9378 36.0716C19.0328 36.1665 19.1615 36.2197 19.2957 36.2197H20.3108C20.4446 36.2193 20.5728 36.1658 20.6673 36.071C20.7618 35.9762 20.8149 35.8478 20.8149 35.7139V32.9283H31.3776V35.7139C31.3777 35.8481 31.4311 35.9768 31.526 36.0716C31.621 36.1664 31.7497 36.2197 31.8839 36.2197H32.8972C33.0314 36.2197 33.1601 36.1664 33.255 36.0716C33.3499 35.9768 33.4033 35.8481 33.4034 35.7139V32.9283H43.9235V35.8095C43.9237 35.9438 43.9772 36.0725 44.0723 36.1674C44.1674 36.2622 44.2963 36.3154 44.4306 36.3153H45.4435C45.5099 36.3153 45.5757 36.3023 45.637 36.2768C45.6984 36.2514 45.7542 36.2142 45.8011 36.1672C45.8481 36.1202 45.8854 36.0645 45.9108 36.0031C45.9362 35.9417 45.9493 35.8759 45.9493 35.8095V31.5568C45.9493 31.5504 45.9467 31.5458 45.9467 31.5393V31.4096Z" fill="white"/>
<defs>
<linearGradient id="paint0_linear_1441_14455" x1="0" y1="0" x2="64" y2="64" gradientUnits="userSpaceOnUse">
<stop stop-color="#E32068"/>
<stop offset="1" stop-color="#F5003B"/>
</linearGradient>
</defs>
</svg>
