<svg width="64" height="64" viewBox="0 0 64 64" fill="none" xmlns="http://www.w3.org/2000/svg">
<path d="M32 64C49.6731 64 64 49.6732 64 32.0001C64 14.327 49.6731 0 32 0C14.3269 0 0 14.327 0 32.0001C0 49.6732 14.3269 64 32 64Z" fill="url(#paint0_linear_1441_14434)"/>
<path d="M43.9748 28.7383H37.3404C37.1179 28.7383 36.9375 28.9187 36.9375 29.1412V45.3783C36.9375 45.6009 37.1179 45.7813 37.3404 45.7813H43.9748C44.1973 45.7813 44.3777 45.6009 44.3777 45.3783V29.1412C44.3777 28.9187 44.1973 28.7383 43.9748 28.7383Z" fill="white"/>
<path d="M35.2482 33.6055H28.6139C28.3913 33.6055 28.2109 33.7859 28.2109 34.0084V45.3764C28.2109 45.599 28.3913 45.7794 28.6139 45.7794H35.2482C35.4707 45.7794 35.6511 45.599 35.6511 45.3764V34.0084C35.6511 33.7859 35.4707 33.6055 35.2482 33.6055Z" fill="white"/>
<path d="M26.5251 37.6641H19.8912C19.6687 37.6641 19.4883 37.8445 19.4883 38.067V45.3771C19.4883 45.5996 19.6687 45.78 19.8912 45.78H26.5251C26.7477 45.78 26.9281 45.5996 26.9281 45.3771V38.067C26.9281 37.8445 26.7477 37.6641 26.5251 37.6641Z" fill="white"/>
<path d="M36.4912 18.8867L37.7403 19.4968C37.8338 19.5424 37.906 19.6224 37.9418 19.72C37.9776 19.8176 37.9743 19.9253 37.9325 20.0206C34.5177 27.7098 27.8172 29.9537 23.5542 30.5839C23.0791 30.654 23.1049 31.3467 23.5836 31.3842C33.3987 32.1501 37.7613 26.5779 40.6221 21.7967C40.6493 21.7512 40.6852 21.7115 40.7277 21.6799C40.7702 21.6483 40.8185 21.6254 40.8699 21.6125C40.9213 21.5995 40.9747 21.5969 41.0271 21.6047C41.0796 21.6124 41.1299 21.6304 41.1754 21.6577L42.4192 22.4043C42.4853 22.4439 42.5613 22.4637 42.6382 22.4614C42.7152 22.4592 42.7899 22.4349 42.8535 22.3915C42.9171 22.3481 42.9669 22.2873 42.997 22.2165C43.0272 22.1457 43.0364 22.0677 43.0236 21.9917L42.0675 16.3357C42.0573 16.2757 42.0337 16.2188 41.9985 16.1693C41.9632 16.1197 41.9172 16.0788 41.8638 16.0496C41.8105 16.0203 41.7512 16.0036 41.6904 16.0005C41.6297 15.9975 41.569 16.0082 41.513 16.0319L36.5122 18.1538C36.441 18.1838 36.3799 18.2337 36.3363 18.2975C36.2926 18.3613 36.2683 18.4362 36.2661 18.5135C36.2638 18.5908 36.2839 18.667 36.3238 18.7332C36.3638 18.7994 36.4219 18.8526 36.4912 18.8867Z" fill="white"/>
<path d="M45.5971 46.9297H18.4029C18.1804 46.9297 18 47.1101 18 47.3326V47.8798C18 48.1023 18.1804 48.2827 18.4029 48.2827H45.5971C45.8196 48.2827 46 48.1023 46 47.8798V47.3326C46 47.1101 45.8196 46.9297 45.5971 46.9297Z" fill="white"/>
<defs>
<linearGradient id="paint0_linear_1441_14434" x1="0" y1="0" x2="64" y2="64" gradientUnits="userSpaceOnUse">
<stop stop-color="#E32068"/>
<stop offset="1" stop-color="#F5003B"/>
</linearGradient>
</defs>
</svg>
