<svg width="64" height="64" viewBox="0 0 64 64" fill="none" xmlns="http://www.w3.org/2000/svg">
<path d="M32 64C49.6731 64 64 49.6732 64 32.0001C64 14.327 49.6731 0 32 0C14.3269 0 0 14.327 0 32.0001C0 49.6732 14.3269 64 32 64Z" fill="url(#paint0_linear_1441_14443)"/>
<path d="M16.6087 29.2656C16.5314 29.2657 16.4556 29.2877 16.3903 29.329C16.3249 29.3703 16.2725 29.4292 16.2392 29.499C16.2059 29.5688 16.193 29.6466 16.202 29.7234C16.211 29.8002 16.2416 29.8729 16.2901 29.9331L17.1618 31.0122L29.8825 46.7508C30.1658 47.1014 30.7246 46.8054 30.5938 46.3741L25.4874 29.5575C25.4618 29.4734 25.4099 29.3998 25.3392 29.3474C25.2686 29.2951 25.183 29.2668 25.0951 29.2669L16.6087 29.2656Z" fill="white"/>
<path d="M32.9644 46.2031C32.8209 46.636 33.3858 46.9444 33.6724 46.5897L46.2615 31.0122L47.1336 29.9331C47.1822 29.8729 47.2127 29.8001 47.2217 29.7233C47.2307 29.6465 47.2178 29.5686 47.1844 29.4988C47.1511 29.429 47.0986 29.3701 47.0332 29.3288C46.9678 29.2875 46.892 29.2656 46.8146 29.2656H38.8743C38.7881 29.2655 38.7041 29.2926 38.6342 29.3431C38.5643 29.3935 38.512 29.4647 38.4849 29.5465L32.9644 46.2031Z" fill="white"/>
<path d="M41.5565 20H32.9295C32.8534 20 32.7787 20.0212 32.714 20.0612C32.6492 20.1013 32.5969 20.1585 32.5628 20.2266C32.5288 20.2947 32.5144 20.371 32.5212 20.4468C32.528 20.5226 32.5558 20.5951 32.6015 20.656L37.9097 27.7513C37.9521 27.808 38.0085 27.8528 38.0734 27.8813C38.1383 27.9098 38.2094 27.9209 38.2799 27.9137C38.3504 27.9065 38.4178 27.8811 38.4756 27.8401C38.5334 27.799 38.5795 27.7437 38.6095 27.6795L41.9275 20.5867C41.9574 20.5241 41.971 20.455 41.9669 20.3857C41.9628 20.3165 41.9412 20.2495 41.9041 20.1908C41.867 20.1322 41.8157 20.084 41.7549 20.0506C41.6941 20.0172 41.6259 19.9998 41.5565 20Z" fill="white"/>
<path d="M20.3204 20.9229L16.0598 27.9234C16.0219 27.9856 16.0013 28.0567 16.0001 28.1295C15.9988 28.2022 16.0169 28.274 16.0526 28.3374C16.0882 28.4009 16.1401 28.4537 16.2029 28.4905C16.2657 28.5272 16.3372 28.5466 16.4099 28.5466H24.3846C24.4555 28.5469 24.5252 28.5288 24.587 28.4941C24.6488 28.4594 24.7005 28.4092 24.7372 28.3485C24.7738 28.2879 24.7941 28.2188 24.796 28.1479C24.798 28.0771 24.7815 28.0069 24.7483 27.9443L21.0321 20.9438C20.9981 20.88 20.9479 20.8263 20.8865 20.7882C20.825 20.7501 20.7546 20.7289 20.6823 20.7267C20.6101 20.7246 20.5385 20.7416 20.475 20.7761C20.4114 20.8105 20.3581 20.8612 20.3204 20.9229Z" fill="white"/>
<path d="M47.3667 27.9251L43.1344 20.9696C43.0957 20.9063 43.0406 20.8547 42.9749 20.8203C42.9092 20.7859 42.8354 20.7699 42.7614 20.7741C42.6873 20.7783 42.6158 20.8025 42.5544 20.8442C42.493 20.8858 42.4441 20.9433 42.4128 21.0106L39.1596 27.9648C39.1304 28.0273 39.1175 28.0961 39.122 28.1649C39.1264 28.2337 39.1482 28.3003 39.1852 28.3584C39.2223 28.4166 39.2734 28.4645 39.3338 28.4977C39.3942 28.5308 39.4621 28.5482 39.531 28.5482H47.0166C47.0894 28.5482 47.1608 28.5288 47.2236 28.4921C47.2864 28.4553 47.3383 28.4025 47.374 28.3391C47.4096 28.2756 47.4277 28.2038 47.4265 28.1311C47.4252 28.0583 47.4046 27.9872 47.3667 27.9251Z" fill="white"/>
<path d="M30.5511 20H21.9179C21.8472 20 21.7777 20.0182 21.7161 20.053C21.6546 20.0878 21.6031 20.1379 21.5666 20.1985C21.5301 20.2591 21.5099 20.328 21.508 20.3987C21.506 20.4694 21.5224 20.5394 21.5555 20.6019L25.3237 27.7012C25.3566 27.7636 25.4051 27.8164 25.4644 27.8546C25.5237 27.8927 25.5919 27.9149 25.6623 27.9191C25.7327 27.9232 25.803 27.9091 25.8663 27.8781C25.9297 27.8471 25.984 27.8003 26.024 27.7422L30.8893 20.6416C30.9315 20.5801 30.956 20.5081 30.9603 20.4336C30.9646 20.3591 30.9485 20.2848 30.9137 20.2188C30.8789 20.1528 30.8267 20.0975 30.7628 20.0589C30.6989 20.0204 30.6257 20 30.5511 20Z" fill="white"/>
<path d="M31.3978 21.0184L26.6772 27.9063C26.635 27.9678 26.6105 28.0397 26.6062 28.1142C26.6018 28.1887 26.6179 28.2629 26.6527 28.3289C26.6874 28.3949 26.7395 28.4502 26.8034 28.4888C26.8672 28.5274 26.9404 28.5478 27.015 28.5479H36.89C36.9661 28.5479 37.0408 28.5267 37.1056 28.4867C37.1703 28.4466 37.2227 28.3894 37.2567 28.3213C37.2908 28.2532 37.3052 28.1769 37.2983 28.1011C37.2915 28.0253 37.2637 27.9528 37.218 27.8919L32.0644 21.0041C32.0254 20.9519 31.9744 20.9098 31.9158 20.8812C31.8572 20.8527 31.7926 20.8385 31.7274 20.8399C31.6622 20.8413 31.5983 20.8583 31.541 20.8893C31.4837 20.9204 31.4346 20.9646 31.3978 21.0184Z" fill="white"/>
<path d="M32.1337 47.7151L37.7718 29.7986C37.7911 29.7372 37.7957 29.6721 37.7852 29.6086C37.7747 29.5451 37.7493 29.4849 37.7113 29.4331C37.6732 29.3812 37.6234 29.3389 37.566 29.3099C37.5085 29.2808 37.4451 29.2656 37.3807 29.2656H26.5783C26.5148 29.2656 26.4521 29.2803 26.3952 29.3086C26.3383 29.3369 26.2888 29.3781 26.2506 29.4288C26.2123 29.4795 26.1864 29.5385 26.1748 29.6009C26.1633 29.6634 26.1664 29.7277 26.1839 29.7888L31.3498 47.7053C31.4613 48.096 32.0119 48.1026 32.1337 47.7151Z" fill="white"/>
<defs>
<linearGradient id="paint0_linear_1441_14443" x1="0" y1="0" x2="64" y2="64" gradientUnits="userSpaceOnUse">
<stop stop-color="#E32068"/>
<stop offset="1" stop-color="#F5003B"/>
</linearGradient>
</defs>
</svg>
