<svg width="22" height="22" viewBox="0 0 22 22" fill="none" xmlns="http://www.w3.org/2000/svg">
<path d="M17.417 18.3335H18.3337" stroke="#F9003B" stroke-width="2" stroke-linecap="round" stroke-linejoin="round"/>
<path d="M12.833 18.3335H14.6663" stroke="#F9003B" stroke-width="2" stroke-linecap="round" stroke-linejoin="round"/>
<path d="M15.583 15.5835L18.333 15.5835" stroke="#F9003B" stroke-width="2" stroke-linecap="round" stroke-linejoin="round"/>
<path d="M12.833 15.5835L12.833 18.3335" stroke="#F9003B" stroke-width="2" stroke-linecap="round" stroke-linejoin="round"/>
<path d="M18.333 12.8335L18.333 15.5835" stroke="#F9003B" stroke-width="2" stroke-linecap="round" stroke-linejoin="round"/>
<path d="M17.417 12.8335L18.3337 12.8335" stroke="#F9003B" stroke-width="2" stroke-linecap="round" stroke-linejoin="round"/>
<path d="M12.833 12.8335H14.6663" stroke="#F9003B" stroke-width="2" stroke-linecap="round" stroke-linejoin="round"/>
<path d="M8.25032 12.8335H4.58366C4.0774 12.8335 3.66699 13.2439 3.66699 13.7502V17.4168C3.66699 17.9231 4.0774 18.3335 4.58366 18.3335H8.25032C8.75659 18.3335 9.16699 17.9231 9.16699 17.4168V13.7502C9.16699 13.2439 8.75659 12.8335 8.25032 12.8335Z" stroke="#F9003B" stroke-width="2" stroke-linecap="round" stroke-linejoin="round"/>
<path d="M17.4163 3.6665H13.7497C13.2434 3.6665 12.833 4.07691 12.833 4.58317V8.24984C12.833 8.7561 13.2434 9.1665 13.7497 9.1665H17.4163C17.9226 9.1665 18.333 8.7561 18.333 8.24984V4.58317C18.333 4.07691 17.9226 3.6665 17.4163 3.6665Z" stroke="#F9003B" stroke-width="2" stroke-linecap="round" stroke-linejoin="round"/>
<path d="M8.25032 3.6665H4.58366C4.0774 3.6665 3.66699 4.07691 3.66699 4.58317V8.24984C3.66699 8.7561 4.0774 9.1665 4.58366 9.1665H8.25032C8.75659 9.1665 9.16699 8.7561 9.16699 8.24984V4.58317C9.16699 4.07691 8.75659 3.6665 8.25032 3.6665Z" stroke="#F9003B" stroke-width="2" stroke-linecap="round" stroke-linejoin="round"/>
</svg>
