<svg width="28" height="28" viewBox="0 0 28 28" fill="none" xmlns="http://www.w3.org/2000/svg">
<path d="M22.166 23.332H23.3327" stroke="white" stroke-width="2" stroke-linecap="round" stroke-linejoin="round"/>
<path d="M16.334 23.332H18.6673" stroke="white" stroke-width="2" stroke-linecap="round" stroke-linejoin="round"/>
<path d="M19.834 19.832L23.334 19.832" stroke="white" stroke-width="2" stroke-linecap="round" stroke-linejoin="round"/>
<path d="M16.334 19.832L16.334 23.332" stroke="white" stroke-width="2" stroke-linecap="round" stroke-linejoin="round"/>
<path d="M23.334 16.332L23.334 19.832" stroke="white" stroke-width="2" stroke-linecap="round" stroke-linejoin="round"/>
<path d="M22.166 16.332L23.3327 16.332" stroke="white" stroke-width="2" stroke-linecap="round" stroke-linejoin="round"/>
<path d="M16.334 16.332H18.6673" stroke="white" stroke-width="2" stroke-linecap="round" stroke-linejoin="round"/>
<path d="M10.4993 16.332H5.83268C5.18835 16.332 4.66602 16.8544 4.66602 17.4987V22.1654C4.66602 22.8097 5.18835 23.332 5.83268 23.332H10.4993C11.1437 23.332 11.666 22.8097 11.666 22.1654V17.4987C11.666 16.8544 11.1437 16.332 10.4993 16.332Z" stroke="white" stroke-width="2" stroke-linecap="round" stroke-linejoin="round"/>
<path d="M22.1673 4.66797H17.5007C16.8563 4.66797 16.334 5.1903 16.334 5.83464V10.5013C16.334 11.1456 16.8563 11.668 17.5007 11.668H22.1673C22.8116 11.668 23.334 11.1456 23.334 10.5013V5.83464C23.334 5.1903 22.8116 4.66797 22.1673 4.66797Z" stroke="white" stroke-width="2" stroke-linecap="round" stroke-linejoin="round"/>
<path d="M10.4993 4.66797H5.83268C5.18835 4.66797 4.66602 5.1903 4.66602 5.83464V10.5013C4.66602 11.1456 5.18835 11.668 5.83268 11.668H10.4993C11.1437 11.668 11.666 11.1456 11.666 10.5013V5.83464C11.666 5.1903 11.1437 4.66797 10.4993 4.66797Z" stroke="white" stroke-width="2" stroke-linecap="round" stroke-linejoin="round"/>
</svg>
