<svg width="36" height="36" viewBox="0 0 36 36" fill="none" xmlns="http://www.w3.org/2000/svg">
<path d="M10.5536 36C6.28544 36 2.43753 33.4289 0.803916 29.4858C-0.829701 25.5426 0.0726288 21.0037 3.0902 17.9852L7.56907 13.5063L10.5536 16.4908L6.07682 20.9676C4.47705 22.5674 3.85227 24.8991 4.43783 27.0844C5.02338 29.2698 6.73032 30.9767 8.91564 31.5622C11.101 32.1478 13.4327 31.523 15.0324 29.9233L19.5092 25.4465L22.4937 28.4331L18.017 32.9099C16.0415 34.895 13.3542 36.0077 10.5536 36ZM12.0458 26.9387L9.06132 23.9542L23.986 9.02956L26.9705 12.0141L12.0479 26.9366L12.0458 26.9387ZM28.4648 22.462L25.4782 19.4775L29.955 15.0007C31.5765 13.4057 32.218 11.0636 31.6356 8.86488C31.0531 6.66621 29.3362 4.94886 27.1376 4.36587C24.9391 3.78289 22.5968 4.42386 21.0015 6.04504L16.5226 10.5218L13.5381 7.5373L18.017 3.05842C22.1435 -1.03216 28.8004 -1.01759 32.909 3.09103C37.0176 7.19965 37.0322 13.8565 32.9416 17.9831L28.4648 22.4599V22.462Z" fill="#343846"/>
</svg>
