<svg width="140" height="140" viewBox="0 0 140 140" fill="none" xmlns="http://www.w3.org/2000/svg">
<path d="M70 5C70 2.23858 67.7586 -0.018583 65.0042 0.178495C57.5217 0.713872 50.1627 2.44941 43.2122 5.32843C34.7194 8.84626 27.0026 14.0024 20.5025 20.5025C14.0024 27.0026 8.84626 34.7194 5.32843 43.2122C1.8106 51.705 -2.92198e-07 60.8075 0 70C2.92199e-07 79.1925 1.8106 88.2951 5.32843 96.7878C8.84626 105.281 14.0024 112.997 20.5025 119.497C27.0026 125.998 34.7194 131.154 43.2122 134.672C50.1627 137.551 57.5217 139.286 65.0042 139.822C67.7586 140.019 70 137.761 70 135V131C70 128.239 67.757 126.023 65.0066 125.777C59.3642 125.272 53.8213 123.913 48.5697 121.737C41.7755 118.923 35.6021 114.798 30.402 109.598C25.2019 104.398 21.077 98.2245 18.2627 91.4303C15.4485 84.636 14 77.354 14 70C14 62.646 15.4485 55.364 18.2627 48.5697C21.077 41.7755 25.2019 35.6021 30.402 30.402C35.6021 25.2019 41.7755 21.077 48.5697 18.2627C53.8213 16.0875 59.3642 14.7282 65.0066 14.2231C67.757 13.9768 70 11.7614 70 9V5Z" fill="url(#paint0_linear_1259_5990)"/>
<path d="M71.5046 134.983C71.5685 137.743 73.8618 139.948 76.6109 139.687C87.7325 138.632 98.4421 134.93 107.841 128.891C110.164 127.398 110.606 124.247 108.951 122.037L106.554 118.835C104.899 116.624 101.776 116.194 99.4264 117.646C92.3973 121.987 84.4929 124.72 76.2833 125.646C73.5394 125.956 71.3481 128.223 71.412 130.984L71.5046 134.983Z" fill="#0FB452"/>
<path d="M129.609 44.0822C132.142 42.9811 135.106 44.1369 136.023 46.7414C140.574 59.6597 141.247 73.6691 137.898 87.0253C134.549 100.381 127.346 112.416 117.238 121.658C115.2 123.522 112.041 123.143 110.328 120.977L107.846 117.84C106.133 115.674 106.518 112.545 108.522 110.645C116.224 103.346 121.721 93.9799 124.318 83.6202C126.916 73.2605 126.489 62.4095 123.142 52.3392C122.271 49.7187 123.409 46.7782 125.941 45.6771L129.609 44.0822Z" fill="#FF7E07"/>
<path d="M71.9858 5.03034C72.0702 2.27021 74.3796 0.0825741 77.1267 0.363698C88.322 1.50938 99.1026 5.34096 108.538 11.5638C117.974 17.7865 125.741 26.1872 131.203 36.0268C132.543 38.4412 131.442 41.4255 128.938 42.59L125.343 44.262C122.839 45.4265 119.884 44.3269 118.501 41.9367C114.16 34.4337 108.124 28.0193 100.85 23.2219C93.5755 18.4245 85.3026 15.4025 76.6963 14.3666C73.9546 14.0367 71.7803 11.7538 71.8647 8.99362L71.9858 5.03034Z" fill="#3144CA"/>
<defs>
<linearGradient id="paint0_linear_1259_5990" x1="0" y1="0" x2="140" y2="140" gradientUnits="userSpaceOnUse">
<stop stop-color="#E32068"/>
<stop offset="1" stop-color="#F5003B"/>
</linearGradient>
</defs>
</svg>
