<svg width="22" height="22" viewBox="0 0 22 22" fill="none" xmlns="http://www.w3.org/2000/svg">
<path d="M3.66699 7.3335H18.3337" stroke="#F9003B" stroke-width="2" stroke-linecap="round" stroke-linejoin="round"/>
<path d="M17.417 3.6665H4.58366C4.0774 3.6665 3.66699 4.07691 3.66699 4.58317V17.4165C3.66699 17.9228 4.0774 18.3332 4.58366 18.3332H17.417C17.9233 18.3332 18.3337 17.9228 18.3337 17.4165V4.58317C18.3337 4.07691 17.9233 3.6665 17.417 3.6665Z" stroke="#F9003B" stroke-width="2" stroke-linecap="round" stroke-linejoin="round"/>
<path d="M10.7705 11H7.56217C7.43561 11 7.33301 11.1026 7.33301 11.2292V14.4375C7.33301 14.5641 7.43561 14.6667 7.56217 14.6667H10.7705C10.8971 14.6667 10.9997 14.5641 10.9997 14.4375V11.2292C10.9997 11.1026 10.8971 11 10.7705 11Z" stroke="#F9003B" stroke-width="2" stroke-linecap="round" stroke-linejoin="round"/>
<path d="M14.667 1.8335V3.66683" stroke="#F9003B" stroke-width="2" stroke-linecap="round" stroke-linejoin="round"/>
<path d="M7.33301 1.8335V3.66683" stroke="#F9003B" stroke-width="2" stroke-linecap="round" stroke-linejoin="round"/>
</svg>
