<svg width="28" height="28" viewBox="0 0 28 28" fill="none" xmlns="http://www.w3.org/2000/svg">
<path d="M4.66602 9.33203H23.3327" stroke="white" stroke-width="2" stroke-linecap="round" stroke-linejoin="round"/>
<path d="M22.166 4.66797H5.83268C5.18835 4.66797 4.66602 5.1903 4.66602 5.83464V22.168C4.66602 22.8123 5.18835 23.3346 5.83268 23.3346H22.166C22.8103 23.3346 23.3327 22.8123 23.3327 22.168V5.83464C23.3327 5.1903 22.8103 4.66797 22.166 4.66797Z" stroke="white" stroke-width="2" stroke-linecap="round" stroke-linejoin="round"/>
<path d="M13.709 14H9.62565C9.46457 14 9.33398 14.1306 9.33398 14.2917V18.375C9.33398 18.5361 9.46457 18.6667 9.62565 18.6667H13.709C13.8701 18.6667 14.0007 18.5361 14.0007 18.375V14.2917C14.0007 14.1306 13.8701 14 13.709 14Z" stroke="white" stroke-width="2" stroke-linecap="round" stroke-linejoin="round"/>
<path d="M18.666 2.33203V4.66536" stroke="white" stroke-width="2" stroke-linecap="round" stroke-linejoin="round"/>
<path d="M9.33398 2.33203V4.66536" stroke="white" stroke-width="2" stroke-linecap="round" stroke-linejoin="round"/>
</svg>
