<svg width="14" height="16" viewBox="0 0 14 16" fill="none" xmlns="http://www.w3.org/2000/svg">
<g clip-path="url(#clip0_1557_14320)">
<path d="M13.1469 0.177496C12.9695 0.0760697 12.7669 0.0253566 12.5642 0C12.5136 0 12.4629 0 12.4122 0H12.2603H9.37251H2.43179C1.57053 0 0.861258 0.684628 0.861258 1.54675V2.33281H0.278642C0.126656 2.33281 0 2.45959 0 2.61173V4.0317C0 4.18384 0.126656 4.31062 0.278642 4.31062H0.861258V5.3756H0.278642C0.126656 5.3756 0 5.50238 0 5.65452V7.09984C0 7.25198 0.126656 7.37876 0.278642 7.37876H0.861258V8.44374H0.278642C0.126656 8.44374 0 8.57052 0 8.72266V10.1426C0 10.2948 0.126656 10.4216 0.278642 10.4216H0.861258V11.4865H0.278642C0.126656 11.4865 0 11.6133 0 11.7655V13.1854C0 13.3376 0.126656 13.4643 0.278642 13.4643H0.861258V14.4532C0.861258 15.3154 1.5452 16 2.40646 16H12.4122C12.4629 16 12.5136 16 12.5642 16C12.7669 15.9746 12.9695 15.9239 13.1469 15.8225C13.2735 15.7464 13.4002 15.6704 13.5015 15.5436C13.8055 15.2393 13.9574 14.859 13.9574 14.4532V1.54675C13.9574 1.14105 13.8055 0.735341 13.5015 0.456418C13.4002 0.354992 13.2735 0.253566 13.1469 0.177496ZM11.2977 3.29636C11.2217 3.22029 11.171 3.19493 11.0444 3.19493C10.943 3.19493 10.8671 3.22029 10.7911 3.29636L9.65116 4.4374V0.583201H12.4122V4.46276L11.2977 3.29636Z" fill="#343846"/>
</g>
<defs>
<clipPath id="clip0_1557_14320">
<rect width="13.9574" height="16" fill="white"/>
</clipPath>
</defs>
</svg>
