<svg width="14" height="16" viewBox="0 0 14 16" fill="none" xmlns="http://www.w3.org/2000/svg">
<path d="M0.950495 0C0.422442 0 0 0.422442 0 0.950495V15.0495C0 15.5776 0.422442 16 0.950495 16H9.45214V14.1254C9.45214 13.3069 10.1122 12.6205 10.9571 12.6205H13.0429V0.950495C13.0429 0.422442 12.6205 0 12.0924 0H0.950495ZM10.5611 8.73927H2.48185V8.07921H10.5611V8.73927ZM10.5611 6.44224H2.48185V5.78218H10.5611V6.44224ZM10.5611 4.14521H2.48185V3.48515H10.5611V4.14521Z" fill="#343846"/>
<path d="M10.0059 14.1253V15.6302L12.6197 13.1748H10.9564C10.4283 13.1748 10.0059 13.5972 10.0059 14.1253Z" fill="#343846"/>
</svg>
