<svg width="22" height="24" viewBox="0 0 22 24" fill="none" xmlns="http://www.w3.org/2000/svg">
<g clip-path="url(#clip0_1441_14900)">
<path d="M20.3419 0.266244C20.0682 0.114105 19.7555 0.0380349 19.4428 0C19.3646 0 19.2865 0 19.2083 0H18.9738H14.5176H3.80723C2.4782 0 1.38371 1.02694 1.38371 2.32013V3.49921H0.484666C0.250132 3.49921 0.0546875 3.68938 0.0546875 3.91759V6.04754C0.0546875 6.27575 0.250132 6.46593 0.484666 6.46593H1.38371V8.06339H0.484666C0.250132 8.06339 0.0546875 8.25357 0.0546875 8.48177V10.6498C0.0546875 10.878 0.250132 11.0681 0.484666 11.0681H1.38371V12.6656H0.484666C0.250132 12.6656 0.0546875 12.8558 0.0546875 13.084V15.2139C0.0546875 15.4422 0.250132 15.6323 0.484666 15.6323H1.38371V17.2298H0.484666C0.250132 17.2298 0.0546875 17.42 0.0546875 17.6482V19.7781C0.0546875 20.0063 0.250132 20.1965 0.484666 20.1965H1.38371V21.6799C1.38371 22.9731 2.43912 24 3.76814 24H19.2083C19.2865 24 19.3646 24 19.4428 24C19.7555 23.962 20.0682 23.8859 20.3419 23.7338C20.5373 23.6197 20.7328 23.5055 20.8891 23.3154C21.3582 22.859 21.5927 22.2884 21.5927 21.6799V2.32013C21.5927 1.71157 21.3582 1.10301 20.8891 0.684628C20.7328 0.532488 20.5373 0.380349 20.3419 0.266244ZM17.4884 4.94453C17.3711 4.83043 17.2929 4.79239 17.0975 4.79239C16.9411 4.79239 16.8239 4.83043 16.7066 4.94453L14.9476 6.6561V0.874802H19.2083V6.69414L17.4884 4.94453Z" fill="white"/>
</g>
<defs>
<clipPath id="clip0_1441_14900">
<rect width="21.538" height="24" fill="white" transform="translate(0.0546875)"/>
</clipPath>
</defs>
</svg>
