<svg width="21" height="24" viewBox="0 0 21 24" fill="none" xmlns="http://www.w3.org/2000/svg">
<g clip-path="url(#clip0_1441_14896)">
<path d="M1.52142 0C0.706567 0 0.0546875 0.633663 0.0546875 1.42574V22.5743C0.0546875 23.3663 0.706567 24 1.52142 24H14.6405V21.1881C14.6405 19.9604 15.6591 18.9307 16.9628 18.9307H20.1815V1.42574C20.1815 0.633663 19.5296 0 18.7147 0H1.52142ZM16.3517 13.1089H3.88448V12.1188H16.3517V13.1089ZM16.3517 9.66337H3.88448V8.67327H16.3517V9.66337ZM16.3517 6.21782H3.88448V5.22772H16.3517V6.21782Z" fill="white"/>
<path d="M15.4961 21.1875V23.4449L19.5296 19.7617H16.9628C16.148 19.7617 15.4961 20.3954 15.4961 21.1875Z" fill="white"/>
</g>
<defs>
<clipPath id="clip0_1441_14896">
<rect width="20.1268" height="24" fill="white" transform="translate(0.0546875)"/>
</clipPath>
</defs>
</svg>
