<svg width="22" height="25" viewBox="0 0 22 25" fill="none" xmlns="http://www.w3.org/2000/svg">
<path d="M12.5452 21.4766H8.37997C8.29274 21.4762 8.20665 21.4959 8.12874 21.534C8.05082 21.5721 7.98328 21.6276 7.93163 21.696C7.87999 21.7643 7.84569 21.8435 7.83154 21.9272C7.8174 22.0109 7.8238 22.0966 7.85024 22.1774C8.03406 22.7093 8.38507 23.1716 8.85373 23.4992C9.32239 23.8267 9.88504 24.0029 10.4623 24.0029C11.0395 24.0029 11.6021 23.8267 12.0708 23.4992C12.5395 23.1716 12.8905 22.7093 13.0743 22.1774C13.1008 22.0967 13.1074 22.0109 13.0933 21.9273C13.0793 21.8436 13.045 21.7643 12.9934 21.696C12.9418 21.6276 12.8743 21.5721 12.7964 21.534C12.7185 21.4958 12.6324 21.4762 12.5452 21.4766Z" fill="white"/>
<path d="M20.8568 18.3754L18.0287 16.1273V9.63547C18.0287 6.17161 15.5409 3.24623 12.2165 2.46025V1.67548C12.2043 1.22708 12.0125 0.80103 11.6819 0.488077C11.3513 0.175125 10.9081 0 10.4466 0C9.98517 0 9.54194 0.175125 9.21135 0.488077C8.88076 0.80103 8.68893 1.22708 8.67671 1.67548V2.45361C5.33746 3.22933 2.83536 6.16135 2.83536 9.63728V16.1026H2.8217L0.263082 18.4279C-0.287766 19.1668 0.317732 20.1466 1.32627 20.1466H19.8328C20.8761 20.1466 21.4748 19.1089 20.8568 18.3754Z" fill="white"/>
</svg>
