<svg width="28" height="28" viewBox="0 0 28 28" fill="none" xmlns="http://www.w3.org/2000/svg">
<path d="M14.3137 26C21.1317 26 26.6587 20.6274 26.6587 14C26.6587 7.37258 21.1317 2 14.3137 2C7.49578 2 1.96875 7.37258 1.96875 14C1.96875 20.6274 7.49578 26 14.3137 26Z" stroke="white" stroke-width="2.25" stroke-linecap="round" stroke-linejoin="round"/>
<path d="M10.7227 10.4015C11.0129 9.59947 11.5858 8.92319 12.3398 8.49242C13.0938 8.06166 13.9804 7.90419 14.8424 8.04792C15.7044 8.19165 16.4863 8.62729 17.0495 9.2777C17.6128 9.9281 17.9211 10.7513 17.9198 11.6015C17.9198 14.0015 14.2163 15.2015 14.2163 15.2015" stroke="white" stroke-width="2.25" stroke-linecap="round" stroke-linejoin="round"/>
<path d="M14.3164 20H14.3284" stroke="white" stroke-width="2.25" stroke-linecap="round" stroke-linejoin="round"/>
</svg>
