<svg width="21" height="24" viewBox="0 0 21 24" fill="none" xmlns="http://www.w3.org/2000/svg">
<path d="M15.6321 19.7448H10.6717C10.2159 19.7448 9.84623 19.3864 9.84623 18.9445V4.07439C9.84623 3.71448 9.59719 3.39861 9.24008 3.30294L6.87656 2.67424C6.32053 2.52694 6.43017 1.73272 7.00813 1.73272H15.6321C16.0879 1.73272 16.4575 2.0911 16.4575 2.53301V7.63093C16.4575 8.07284 16.8271 8.43123 17.2829 8.43123H17.4192C17.875 8.43123 18.2446 8.07284 18.2446 7.63093V1.08124C18.2446 0.484431 17.745 0 17.1294 0H1.19722C0.581675 0 0.0820312 0.484431 0.0820312 1.08124V21.0401C0.0820312 21.4 0.33107 21.7159 0.688182 21.8116L8.80465 23.971C9.32935 24.1107 9.84779 23.728 9.84779 23.1996V22.2763C9.84779 21.8343 10.2174 21.476 10.6732 21.476H17.1294C17.745 21.476 18.2446 20.9915 18.2446 20.3947V13.8481C18.2446 13.4061 17.875 13.0478 17.4192 13.0478H17.2829C16.8271 13.0478 16.4575 13.4061 16.4575 13.8481V18.946C16.4575 19.3864 16.0879 19.7448 15.6321 19.7448Z" fill="white"/>
<path d="M14.7914 8.98796C14.7914 8.54605 14.2307 8.33648 13.9237 8.66298L12.2431 10.4519C12.0677 10.6387 12.0708 10.9242 12.2478 11.1079L13.93 12.8498C14.2385 13.1702 14.793 12.9576 14.793 12.5202V12.4959C14.793 12.2286 15.017 12.013 15.2911 12.013H20.2484C20.524 12.013 20.7464 11.7958 20.7464 11.5301V9.95379C20.7464 9.68651 20.524 9.47087 20.2484 9.47087H15.2911C15.0154 9.47087 14.7914 9.25371 14.7914 8.98796Z" fill="white"/>
</svg>
