<svg width="30" height="30" viewBox="0 0 30 30" fill="none" xmlns="http://www.w3.org/2000/svg">
<g clip-path="url(#clip0_1441_14466)">
<path d="M22.6576 27.9075C29.7829 23.6784 32.1308 14.4739 27.9018 7.3486C23.6728 0.223278 14.4683 -2.12464 7.34294 2.10439C0.217622 6.33342 -2.13029 15.5379 2.09873 22.6633C6.32776 29.7886 15.5323 32.1365 22.6576 27.9075Z" fill="url(#paint0_linear_1441_14466)"/>
<path d="M12.9041 22.6139C12.6255 22.6168 12.3498 22.5578 12.0968 22.4411C11.8438 22.3243 11.62 22.1528 11.4415 21.9388L6.51933 15.751C6.35497 15.5603 6.23087 15.3383 6.15447 15.0984C6.07808 14.8585 6.05097 14.6057 6.07478 14.3551C6.09858 14.1044 6.17282 13.8612 6.29301 13.64C6.41321 13.4188 6.57689 13.2242 6.77421 13.0678C6.97153 12.9115 7.19843 12.7967 7.44126 12.7302C7.68409 12.6638 7.93785 12.6472 8.18727 12.6813C8.4367 12.7155 8.67665 12.7997 8.8927 12.9289C9.10876 13.0581 9.29645 13.2297 9.44451 13.4333L14.3667 19.6212C14.666 20.006 14.8019 20.4931 14.745 20.9773C14.6882 21.4614 14.4432 21.9038 14.0629 22.2089C13.7349 22.4734 13.3255 22.6165 12.9041 22.6139Z" fill="white"/>
<path d="M12.9056 22.6127C12.4844 22.6144 12.0753 22.4714 11.7468 22.2077C11.3609 21.9002 11.1124 21.4525 11.0554 20.9624C10.9985 20.4723 11.1379 19.9796 11.443 19.5919L20.5561 8.09366C20.8708 7.72857 21.3144 7.49927 21.7942 7.45369C22.274 7.40811 22.7528 7.54979 23.1306 7.84909C23.5084 8.1484 23.7558 8.58217 23.8212 9.05968C23.8865 9.5372 23.7647 10.0215 23.4813 10.4113L14.3682 21.9376C14.1905 22.1525 13.9668 22.3247 13.7137 22.4415C13.4606 22.5584 13.1844 22.6168 12.9056 22.6127Z" fill="white"/>
</g>
<defs>
<linearGradient id="paint0_linear_1441_14466" x1="-0.00226462" y1="15.0037" x2="29.9977" y2="15.0037" gradientUnits="userSpaceOnUse">
<stop stop-color="#E32068"/>
<stop offset="1" stop-color="#F5003B"/>
</linearGradient>
<clipPath id="clip0_1441_14466">
<rect width="30" height="30" fill="white"/>
</clipPath>
</defs>
</svg>
