<svg width="21" height="25" viewBox="0 0 21 25" fill="none" xmlns="http://www.w3.org/2000/svg">
<g clip-path="url(#clip0_1286_13246)">
<rect width="1920" height="3186" transform="translate(-1440 -2955)" fill="white"/>
<rect x="-1440" y="-316" width="1923" height="547" fill="url(#paint0_linear_1286_13246)"/>
<g clip-path="url(#clip1_1286_13246)">
<path d="M15.4303 8.77166C16.9271 9.90912 18.7217 10.5194 20.5618 10.5168V6.60339C20.1993 6.60333 19.8378 6.56312 19.4832 6.48341V9.56459C17.6431 9.56667 15.8487 8.95642 14.3517 7.8195V15.8066C14.3501 17.1173 14.0137 18.403 13.3784 19.5265C12.7431 20.65 11.8327 21.5691 10.7444 22.1858C9.65609 22.8025 8.43065 23.0936 7.19882 23.0282C5.967 22.9627 4.77499 22.5431 3.75 21.814C4.69618 22.8418 5.90893 23.5468 7.23361 23.8392C8.5583 24.1316 9.93491 23.9981 11.1879 23.4558C12.441 22.9134 13.5136 21.9869 14.2692 20.7941C15.0247 19.6014 15.429 18.1966 15.4303 16.7587V8.77166ZM16.7645 4.82339C16.002 3.94292 15.5332 2.82037 15.4303 1.62878V1.12598H14.404C14.5312 1.88385 14.8071 2.60477 15.2138 3.24181C15.6205 3.87885 16.1488 4.41774 16.7645 4.82339V4.82339ZM6.13205 18.7514C5.7807 18.2606 5.56539 17.6752 5.51042 17.0613C5.45544 16.4474 5.56299 15.8294 5.82093 15.2769C6.07886 14.7245 6.47691 14.2597 6.97019 13.9349C7.46346 13.6101 8.03232 13.4382 8.6126 13.4387C8.93326 13.4388 9.25203 13.491 9.55783 13.5936V9.59186C9.2005 9.53951 8.8398 9.51763 8.47919 9.52641V12.6403C7.73385 12.3914 6.92769 12.4492 6.22058 12.8023C5.51348 13.1554 4.95707 13.7781 4.66168 14.5467C4.36629 15.3154 4.35351 16.174 4.62586 16.9522C4.89821 17.7304 5.43581 18.3714 6.13205 18.7481V18.7514Z" stroke="white" stroke-width="0.5" stroke-miterlimit="10"/>
<path d="M14.3524 7.81841C15.8492 8.95573 17.6438 9.56602 19.4839 9.5635V6.48341C18.4373 6.24294 17.487 5.66286 16.7642 4.82339C16.15 4.41684 15.6233 3.87755 15.218 3.24056C14.8128 2.60357 14.5381 1.88311 14.4119 1.12598H11.725V16.7587C11.7222 17.4506 11.5156 18.1242 11.1342 18.6849C10.7528 19.2457 10.2157 19.6654 9.59839 19.8852C8.98107 20.105 8.31447 20.1138 7.69218 19.9105C7.06988 19.7072 6.52312 19.3018 6.12864 18.7514C5.43539 18.3727 4.90088 17.7316 4.63057 16.9547C4.36026 16.1777 4.37379 15.3213 4.66849 14.5544C4.96319 13.7875 5.51765 13.1659 6.22247 12.8122C6.92729 12.4584 7.73128 12.3983 8.47578 12.6436V9.52641C7.14862 9.55669 5.85875 9.99868 4.76491 10.798C3.67107 11.5973 2.821 12.719 2.31932 14.0251C1.81764 15.3313 1.68624 16.7648 1.94129 18.1492C2.19633 19.5337 2.8267 20.8087 3.75481 21.8173C4.78003 22.5468 5.97242 22.9667 7.20467 23.0322C8.43692 23.0977 9.66278 22.8063 10.7514 22.1892C11.84 21.572 12.7504 20.6523 13.3855 19.5282C14.0206 18.4041 14.3566 17.1178 14.3575 15.8066V7.81841H14.3524Z" fill="white"/>
<path d="M19.4884 6.48257V5.64928C18.5254 5.65076 17.5815 5.36426 16.7646 4.82255C17.4881 5.66325 18.4402 6.24348 19.4884 6.48257ZM14.4092 1.12513C14.3846 0.975708 14.3661 0.826285 14.3528 0.67577V0.171875H10.6468V15.8057C10.6444 16.3696 10.5065 16.9234 10.2464 17.4148C9.98621 17.9062 9.61232 18.3189 9.16012 18.6137C8.70792 18.9086 8.19237 19.076 7.6623 19.0999C7.13222 19.1239 6.60518 19.0036 6.13106 18.7506C6.52554 19.301 7.07231 19.7063 7.69461 19.9097C8.31691 20.113 8.98351 20.1042 9.60083 19.8843C10.2182 19.6645 10.7552 19.2448 11.1366 18.6841C11.518 18.1234 11.7247 17.4498 11.7275 16.7579V1.12513H14.4092ZM8.47616 9.52339V8.63885C6.95102 8.41551 5.39968 8.74808 4.07529 9.5823C2.7509 10.4165 1.73165 11.7031 1.18385 13.2322C0.636059 14.7612 0.59207 16.4424 1.05906 18.0015C1.52605 19.5605 2.47645 20.9053 3.75517 21.8165C2.82706 20.8078 2.19669 19.5328 1.94164 18.1484C1.68659 16.7639 1.81799 15.3304 2.31968 14.0243C2.82136 12.7182 3.67143 11.5964 4.76527 10.7971C5.85912 9.99784 7.149 9.55585 8.47616 9.52557V9.52339Z" stroke="white" stroke-width="0.5" stroke-miterlimit="10"/>
</g>
</g>
<defs>
<linearGradient id="paint0_linear_1286_13246" x1="-1440" y1="-316" x2="-1152.1" y2="696.108" gradientUnits="userSpaceOnUse">
<stop stop-color="#E32068"/>
<stop offset="1" stop-color="#F5003B"/>
</linearGradient>
<clipPath id="clip0_1286_13246">
<rect width="1920" height="3186" fill="white" transform="translate(-1440 -2955)"/>
</clipPath>
<clipPath id="clip1_1286_13246">
<rect width="219.71" height="24.1663" fill="white" transform="translate(-199.066)"/>
</clipPath>
</defs>
</svg>
